<svg width="377" height="245" viewBox="0 0 377 245" fill="none" xmlns="http://www.w3.org/2000/svg">
<path d="M123.582 33.8495L195.787 112.479L29.999 85.2158L123.582 33.8495Z" fill="#B2FCE3"/>
<path fill-rule="evenodd" clip-rule="evenodd" d="M195.733 112.136L30.1664 84.91L13.5753 185.802L179.142 213.028L195.733 112.136ZM166.605 177.588L110.035 115.367L96.7084 198.398L126.926 171.063L166.605 177.588Z" fill="#B2FCE3"/>
<path d="M104.569 12.1229L90.9556 94.9061" stroke="black" stroke-linecap="square"/>
<path d="M240.311 99.5409L220.529 219.835" stroke="black" stroke-linecap="square"/>
<path d="M355.434 118.473L335.652 238.767" stroke="black" stroke-linecap="square"/>
<path d="M164.973 40.6561L137.747 206.222" stroke="black" stroke-linecap="square"/>
<path d="M123.834 33.8905L96.7206 198.772" stroke="black" stroke-linecap="square"/>
<path d="M82.1918 27.0428L54.9654 192.609" stroke="black" stroke-linecap="square"/>
<path d="M19.0063 152.463L13.5722 185.802" stroke="black" stroke-linecap="square"/>
<path d="M184.67 179.398L179.14 213.029" stroke="black" stroke-linecap="square"/>
<path d="M27.3969 101.724L20.5903 143.116" stroke="black" stroke-linecap="square"/>
<path d="M192.965 128.951L186.159 170.343" stroke="black" stroke-linecap="square"/>
<path d="M36.7563 44.8124L30.1624 84.9105" stroke="black" stroke-linecap="square"/>
<path d="M202.325 72.0389L195.731 112.137" stroke="black" stroke-linecap="square"/>
<path d="M195.731 112.137L362.591 139.576" stroke="black" stroke-linecap="square"/>
<path d="M36.7563 44.8124L201.029 71.826" stroke="black" stroke-linecap="square"/>
<path d="M82.1918 27.0428L164.975 40.656" stroke="black" stroke-linecap="square"/>
<path d="M30.1625 84.91L194.435 111.924" stroke="black" stroke-linecap="square"/>
<path d="M28.6879 101.937L192.961 128.951" stroke="black" stroke-linecap="square"/>
<path d="M20.5258 143.5L186.289 170.759" stroke="black" stroke-linecap="square"/>
<path d="M19.0648 152.396L183.967 179.513" stroke="black" stroke-linecap="square"/>
<path d="M13.5102 185.881L179.122 213.115" stroke="black" stroke-linecap="square"/>
<path d="M179.139 213.029L345.999 240.468" stroke="black" stroke-linecap="square"/>
<path d="M104.569 12.1229L231.802 151.279" stroke="black" stroke-linecap="square"/>
<path d="M90.9555 94.9061L202.42 216.856" stroke="black" stroke-linecap="square"/>
<circle cx="110.183" cy="115.339" r="4.99344" transform="rotate(9.33836 110.183 115.339)" stroke="black" stroke-width="0.5"/>
<circle cx="123.583" cy="33.8489" r="4.99344" transform="rotate(9.33836 123.583 33.8489)" stroke="black" stroke-width="0.5"/>
<circle cx="237.12" cy="118.943" r="4.99344" transform="rotate(9.33836 237.12 118.943)" stroke="black" stroke-width="0.5"/>
<circle cx="335.865" cy="237.472" r="4.99344" transform="rotate(9.33836 335.865 237.472)" stroke="black" stroke-width="0.5"/>
</svg>
