<svg width="850" height="340" viewBox="0 0 850 340" fill="none" xmlns="http://www.w3.org/2000/svg">
<path d="M481.843 123.025C480.755 120.848 478.306 119.896 475.994 119.08C469.464 116.631 462.798 114.319 455.861 113.638C448.923 112.958 441.441 114.455 435.864 118.536C435.361 118.816 434.929 119.206 434.599 119.677C434.269 120.149 434.051 120.688 433.959 121.256C433.959 122.481 435.456 123.569 436.272 122.753C421.716 121.936 407.841 128.738 394.781 135.268C393.829 135.812 392.741 136.492 392.877 137.58C393.013 138.669 394.509 139.077 395.734 139.213C421.852 140.981 448.923 142.75 473.545 133.907C476.051 133.217 478.343 131.907 480.211 130.098C481.168 129.224 481.837 128.079 482.128 126.816C482.42 125.552 482.321 124.23 481.843 123.025Z" fill="white"/>
<path d="M235.324 68.9151C225.299 64.4716 214.029 63.701 203.492 66.7386C198.595 68.2349 194.105 70.4115 189.208 71.6358C184.311 72.8601 177.101 73.5403 170.98 74.2204C154.661 76.0423 138.953 81.4795 125 90.1364C131.938 94.7616 140.78 95.5778 149.214 96.394C186.397 99.6589 223.58 101.654 260.762 102.38C276.95 102.652 293.411 102.652 308.646 97.3463C299.679 93.6698 290.163 91.5091 280.487 90.9527C287.198 88.0285 293.544 84.3305 299.396 79.9339C290.614 74.3272 280.275 71.6593 269.877 72.316C261.442 62.7936 245.39 61.1611 235.324 68.9151Z" fill="white"/>
<path d="M815.942 7.94004C813.705 8.10314 811.457 7.91961 809.276 7.39591C807.66 6.70373 806.148 5.78789 804.787 4.67523C798.393 0.322125 789.551 -1.99046 783.157 2.2266C781.933 3.17884 780.845 5.21936 782.069 6.03557C775.625 5.39556 769.145 6.82502 763.569 10.1166C762.333 10.7351 761.33 11.7373 760.712 12.9733C760.402 13.5756 760.327 14.2719 760.504 14.926C760.68 15.5801 761.093 16.145 761.664 16.5102L762.888 16.7823C783.341 18.9362 803.975 18.708 824.376 16.1021C827.777 15.558 831.858 14.6057 832.81 11.3409C827.462 9.12018 821.732 7.96495 815.942 7.94004Z" fill="white"/>
<path d="M871.987 63.7131C880.285 55.0069 895.113 53.5105 904.907 60.3122C910.213 63.9852 914.294 69.6986 920.415 71.4671C926.537 73.2355 934.155 71.195 938.1 75.9562C934.563 80.7174 928.033 81.5336 922.184 81.9417C892.439 84.0535 862.562 83.3704 832.945 79.9012C831.993 75.6841 834.305 71.331 837.434 68.4743C840.563 65.6176 844.644 63.9852 848.589 62.4888C852.534 60.9924 856.479 59.224 860.832 59.0879C865.185 58.9519 869.538 60.3122 871.987 63.7131Z" fill="white"/>
<path d="M878.791 236.206C894.707 243.688 910.215 254.434 919.602 269.534C923.411 275.792 926.947 283.818 922.594 290.347C918.241 296.877 912.8 300.686 905.726 303.679C867.092 319.867 825.058 313.745 784.383 313.745C711.106 313.745 637.738 313.111 564.28 311.841L577.203 315.514C579.107 316.058 581.148 316.602 582.236 318.235C589.582 328.709 560.879 331.974 556.526 332.518C516.396 337.551 476.538 339.32 435.999 340C415.458 340 394.917 338.368 374.512 338.64C354.107 338.912 333.021 338.912 312.344 338.368C241.354 336.331 170.609 329.102 100.674 316.738C72.5153 311.705 44.0841 307.352 16.6052 298.782C13.2043 297.693 -0.399112 292.66 0.00899111 287.355C0.145026 286.266 1.50537 285.858 2.72968 285.586C10.9824 284.317 19.2805 283.364 27.624 282.73C30.3447 282.457 33.2014 282.321 35.514 280.961C37.4377 279.876 39.1815 278.5 40.6833 276.88C52.6072 265.803 68.3491 259.759 84.6224 260.012C89.9277 260.012 95.2331 260.828 100.402 260.148C104.515 259.43 108.531 258.243 112.373 256.611C129.378 249.809 147.47 241.511 161.754 229.948C176.038 218.385 190.321 202.469 205.285 189.41C223.65 173.086 246.231 159.21 270.717 159.891C295.204 160.571 315.065 174.31 334.518 187.505C343.496 177.303 356.011 174.31 369.206 176.895C382.402 179.479 396.277 186.825 410.017 191.587C451.371 164.516 491.501 135.132 534.08 110.238C543.33 104.797 552.581 99.4912 562.647 95.6822C578.699 89.6967 592.847 90.5129 608.627 96.3624C630.801 104.524 651.206 121.801 671.611 133.636C692.016 145.471 716.094 158.394 738.812 169.957C784.383 193.083 830.771 214.304 877.295 235.526L878.791 236.206Z" fill="#CBC86D"/>
<g style="mix-blend-mode:multiply" opacity="0.3">
<path d="M608.627 96.0898C630.801 104.252 651.206 121.528 671.611 133.363C692.016 145.198 716.094 158.121 738.812 169.684C784.383 192.946 830.771 214.168 877.295 235.253L878.791 235.933C894.707 243.415 910.215 254.162 919.602 269.398C923.411 275.519 926.947 283.545 922.594 290.075C918.241 296.604 912.8 300.549 905.726 303.542C867.092 319.73 825.058 313.609 784.383 313.609C711.061 313.473 637.602 312.929 564.28 311.568L577.203 315.241C579.107 315.785 581.148 316.466 582.236 318.098C589.582 328.437 560.879 331.701 556.526 332.246C516.396 337.279 476.538 339.047 435.999 339.863C415.458 339.863 394.917 338.095 374.512 338.503C354.107 338.911 333.021 338.639 312.344 338.095C241.354 336.059 170.609 328.829 100.674 316.466C72.5153 311.432 44.0841 307.079 16.6052 298.509C13.2043 297.421 -0.399112 292.387 0.00899111 287.218C0.145026 285.994 1.50537 285.586 2.72968 285.45C11.0278 284.089 19.3259 283.137 27.624 282.457C30.3447 282.185 33.2014 282.049 35.514 280.825C37.377 279.652 39.1099 278.283 40.6833 276.743C52.586 265.617 68.3303 259.524 84.6224 259.739C89.9277 259.875 95.2331 260.555 100.402 259.875C104.515 259.157 108.531 257.97 112.373 256.338C129.378 249.673 147.47 241.238 161.754 229.676C176.038 218.113 190.321 202.197 205.285 189.137C215.76 179.887 228.003 169.82 242.694 169.548C241.787 172.632 240.971 175.761 240.246 178.935C240.044 179.692 240.044 180.49 240.246 181.247C240.926 182.88 243.239 182.88 245.007 182.472C255.754 180.431 267.181 179.343 277.247 183.56C287.314 187.777 293.843 195.803 301.325 203.285C319.962 221.922 344.72 236.749 370.975 235.389C356.69 225.634 345.088 212.442 337.238 197.027C332.341 187.097 340.095 183.56 348.121 179.071C349.617 178.255 351.114 177.438 352.746 177.846C353.958 178.29 355.004 179.098 355.739 180.159C361.861 187.641 366.078 196.347 371.927 203.965C381.093 215.443 393.828 223.533 408.112 226.955L394.373 228.043C416.682 241.647 443.073 247.496 469.192 247.904C495.31 248.312 521.293 243.415 546.459 236.613C505.921 257.699 453.14 273.615 409.064 254.706C403.487 252.257 397.91 249.265 391.788 248.448C385.667 247.632 378.729 249.537 375.736 254.978C375.176 256.282 374.393 257.479 373.423 258.515C371.965 259.43 370.235 259.815 368.526 259.603C358.052 259.875 350.026 262.732 340.639 266.133C328.804 270.486 313.704 268.037 301.325 266.949C286.413 265.559 271.631 263.012 257.114 259.331C240.246 254.978 222.425 248.448 210.182 235.389C204.877 229.812 201.612 220.561 195.899 215.664C190.185 210.767 182.567 215.8 176.854 219.337C150.463 234.981 131.962 265.725 100.266 271.574C91.016 273.207 80.5414 272.798 74.0117 279.464C72.3793 275.247 70.8829 271.03 69.3865 266.813C54.4636 271.257 41.3847 280.422 32.1131 292.932C31.1921 293.992 30.6638 295.337 30.6167 296.741C30.7528 299.325 34.0176 300.413 36.6022 300.686C91.016 308.031 145.43 293.204 199.571 284.361C246.503 276.607 294.115 273.479 341.591 272.118C376.28 271.166 411.105 273.479 445.93 271.574C464.566 270.486 483.203 268.037 501.84 266.269C517.484 264.908 539.794 260.555 555.029 265.045C557.478 265.725 559.518 268.173 558.838 270.486C558.158 272.798 555.029 274.159 552.445 274.703C527.025 279.772 501.223 282.684 475.313 283.409C463.478 283.681 451.643 282.729 439.944 283.817C436.543 284.225 404.439 286.538 404.167 288.715C403.895 290.891 407.432 294.02 410.561 295.108L443.753 307.215C421.716 314.969 399.814 323.539 378.457 333.062C393.557 338.775 410.153 339.455 426.341 339.455C466.48 339.441 506.509 335.247 545.779 326.94C542.098 324.503 537.812 323.137 533.4 322.995L546.051 318.37L527.55 312.793C537.209 309.664 546.595 306.535 556.39 303.814L542.514 299.733C548.364 297.829 554.213 295.924 559.518 292.659L501.568 289.395L535.304 285.178C546.595 283.817 558.158 282.457 569.041 279.056C563.191 276.88 556.662 277.152 550.404 277.56L505.105 280.416C518.98 279.192 532.72 275.791 546.323 272.526C554.485 270.486 562.783 268.445 569.313 263.14L555.573 262.188C553.95 262.199 552.354 261.776 550.948 260.963C548.228 259.059 548.5 254.706 550.676 252.121C552.853 249.537 556.254 248.448 559.382 247.36C567.136 244.775 572.306 242.055 573.394 233.485C574.754 221.786 573.938 209.951 573.53 198.252C572.808 172.839 574.127 147.41 577.475 122.208C578.019 118.127 577.611 112.278 573.394 111.598C572.255 111.415 571.089 111.508 569.993 111.87L546.595 117.583C549.064 112.65 552.432 108.222 556.526 104.524L538.705 108.605C560.607 94.0493 582.916 86.7034 608.627 96.0898Z" fill="#327770"/>
</g>
<path d="M234.397 241.782C234.205 241.339 234.114 240.859 234.13 240.376C234.146 239.893 234.269 239.42 234.491 238.991C234.712 238.561 235.026 238.186 235.409 237.893C235.793 237.599 236.237 237.395 236.709 237.293C237.202 237.283 237.69 237.383 238.138 237.588C238.586 237.793 238.982 238.096 239.296 238.476C239.61 238.855 239.834 239.301 239.952 239.779C240.069 240.258 240.077 240.757 239.974 241.238C240.654 235.117 243.239 228.995 248.272 225.322C253.305 221.649 260.923 221.785 265.276 226.139C266.773 215.664 277.248 207.502 287.722 208.318C298.197 209.134 307.175 219.065 307.039 229.539C309.896 226.002 315.881 225.73 319.69 228.451C323.499 231.172 325.54 235.797 325.948 240.422C326.033 245.094 325.297 249.745 323.771 254.162C325.676 252.529 328.396 255.522 328.396 257.971C328.26 263.276 323.363 266.949 319.01 269.806C320.643 268.445 322.819 266.949 324.996 267.493C327.172 268.037 327.852 271.846 325.676 272.254C329.077 270.078 334.11 272.934 334.79 276.879C335.47 280.824 332.886 284.905 329.213 286.538C329.804 286.224 330.467 286.071 331.135 286.095C331.804 286.119 332.455 286.319 333.022 286.674C333.974 288.578 332.75 291.027 331.117 292.251C329.25 293.327 327.149 293.934 324.996 294.02C295.204 297.693 265.14 297.421 235.077 297.285C232.764 297.285 230.044 297.012 228.819 294.972C228.186 293.566 227.951 292.013 228.139 290.483C228.275 283.953 225.827 277.832 223.106 271.982C220.385 266.133 217.392 260.419 216.44 254.026C215.488 247.632 216.984 240.558 222.018 236.477C224.33 234.709 227.867 233.62 230.316 235.389C232.764 237.157 232.9 239.606 234.397 241.782Z" fill="#34585B"/>
<g style="mix-blend-mode:multiply" opacity="0.37">
<path d="M234.397 241.782C234.205 241.339 234.114 240.859 234.13 240.376C234.146 239.893 234.269 239.42 234.491 238.99C234.712 238.561 235.026 238.186 235.409 237.893C235.793 237.599 236.237 237.394 236.709 237.293C237.202 237.282 237.69 237.383 238.138 237.588C238.586 237.793 238.982 238.096 239.296 238.476C239.61 238.855 239.834 239.301 239.952 239.779C240.069 240.258 240.077 240.756 239.974 241.238C240.518 235.661 242.151 228.995 247.728 226.546C248.238 226.252 248.802 226.064 249.387 225.994C249.971 225.924 250.564 225.973 251.129 226.138C253.033 226.682 253.986 228.995 253.986 230.9C253.801 232.914 253.483 234.913 253.033 236.885C254.258 235.661 257.523 233.076 259.155 234.844C259.618 235.379 259.904 236.045 259.971 236.749C260.676 239.844 260.63 243.062 259.835 246.135C259.852 245.587 259.979 245.048 260.209 244.551C260.439 244.053 260.767 243.606 261.174 243.238C261.58 242.87 262.056 242.587 262.574 242.407C263.092 242.227 263.641 242.154 264.188 242.19C264.386 242.278 264.604 242.311 264.819 242.288C265.034 242.264 265.239 242.183 265.413 242.054C265.821 241.782 265.685 241.238 265.549 240.694C264.614 236.384 265.14 231.885 267.045 227.907C267.997 226.002 269.766 223.962 271.942 224.234C271.398 218.656 277.792 213.215 282.825 212.535C283.629 212.399 284.453 212.425 285.247 212.612C286.042 212.799 286.791 213.143 287.45 213.623C288.073 214.108 288.499 214.803 288.649 215.579C288.799 216.354 288.663 217.157 288.266 217.84C288.784 217.555 289.36 217.395 289.951 217.371C290.541 217.348 291.129 217.462 291.667 217.704C292.891 218.792 292.211 220.833 291.395 222.193L289.627 225.05C291.259 224.778 293.3 224.642 294.388 225.866C295.476 227.091 294.796 229.811 293.844 231.716L290.035 238.517C290.775 237.801 291.655 237.245 292.619 236.885C293.094 236.721 293.61 236.727 294.082 236.9C294.553 237.074 294.949 237.405 295.204 237.837C295.748 238.517 295.476 239.606 295.204 240.422L292.891 248.448C294.252 245.591 295.612 242.462 298.333 240.558C301.054 238.653 301.19 240.558 302.142 242.054C302.55 240.15 302.686 238.245 303.91 236.749C305.135 235.253 307.583 234.572 308.944 235.797C309.414 234.282 310.466 233.016 311.868 232.276C313.271 231.537 314.91 231.384 316.425 231.852C317.921 232.415 319.239 233.368 320.244 234.612C321.248 235.855 321.902 237.345 322.139 238.926C322.455 242.087 321.939 245.276 320.642 248.176C319.047 251.793 316.838 255.106 314.113 257.97C314.521 256.202 317.514 256.066 318.466 257.562C318.874 258.383 318.96 259.326 318.709 260.207C318.457 261.087 317.885 261.842 317.106 262.323C318.194 262.187 319.69 262.459 319.826 263.548C319.962 264.636 319.282 264.908 318.738 265.316C316.629 267.001 314.349 268.46 311.936 269.669C313.705 269.125 315.065 271.166 315.065 272.934C315.065 274.703 314.249 276.335 314.521 278.103C315.745 276.335 316.97 274.567 319.01 273.886C321.051 273.206 323.635 274.839 323.363 276.879C323.091 278.92 321.731 279.328 322.139 280.552C323.466 279.854 324.886 279.35 326.356 279.056C327.036 278.92 327.716 278.784 328.124 279.192C328.532 279.6 328.26 281.368 327.58 282.184L323.771 286.946C324.03 286.862 324.303 286.831 324.574 286.854C324.846 286.877 325.109 286.955 325.35 287.081C325.591 287.208 325.804 287.382 325.977 287.592C326.15 287.802 326.278 288.045 326.356 288.306C326.374 288.574 326.34 288.843 326.254 289.098C326.168 289.353 326.033 289.588 325.856 289.79C325.679 289.992 325.464 290.158 325.223 290.276C324.982 290.395 324.72 290.465 324.451 290.483L325.812 290.891C326.22 291.027 323.363 293.203 323.091 293.339L320.506 294.428C317.37 295.066 314.184 295.43 310.984 295.516C304.046 296.06 297.109 296.468 290.035 296.74C276.159 297.284 262.148 297.42 248.136 297.284H235.077C232.764 297.284 230.044 297.012 228.819 294.972C228.186 293.566 227.951 292.013 228.139 290.483C228.275 283.953 225.827 277.831 223.106 271.982C220.385 266.132 217.392 260.419 216.44 254.025C215.488 247.632 216.984 240.558 222.018 236.477C224.33 234.708 227.867 233.62 230.316 235.389C232.764 237.157 232.9 239.606 234.397 241.782Z" fill="#34585B"/>
</g>
<path d="M222.425 248.721C225.554 248.04 228.683 250.761 229.363 253.754C229.597 255.337 229.474 256.953 229.003 258.483C228.532 260.012 227.726 261.418 226.642 262.596C232.356 264.092 234.26 272.799 229.771 276.608C230.723 273.207 236.301 273.479 238.205 276.335C240.11 279.192 239.566 283.137 239.022 286.674C241.319 285.925 243.745 285.647 246.152 285.857C248.56 286.068 250.9 286.762 253.033 287.898C252.225 286.432 251.987 284.719 252.363 283.087C252.74 281.456 253.705 280.02 255.074 279.056C256.487 278.151 258.12 277.648 259.797 277.6C261.474 277.552 263.133 277.961 264.596 278.784C262.764 276.858 261.633 274.371 261.387 271.723C261.141 269.076 261.793 266.423 263.238 264.192C264.684 261.961 266.839 260.281 269.355 259.424C271.872 258.567 274.604 258.582 277.111 259.467C277.655 255.658 282.825 254.162 286.089 255.93C289.354 257.699 291.123 261.644 291.667 265.317C295.612 263.14 301.053 266.541 302.141 271.03C303.23 275.519 301.461 280.144 298.877 283.953C301.053 281.913 305.134 283.273 306.631 285.858C308.127 288.443 307.991 291.979 307.311 294.972C308.535 291.299 311.392 287.898 315.201 287.49C319.01 287.082 322.955 291.299 321.186 294.7C321.479 294.31 321.851 293.988 322.279 293.755C322.707 293.521 323.18 293.383 323.666 293.348C324.152 293.314 324.64 293.384 325.096 293.554C325.553 293.725 325.967 293.991 326.312 294.336C326.656 294.68 326.923 295.095 327.093 295.551C327.264 296.008 327.334 296.496 327.299 296.982C327.265 297.468 327.126 297.941 326.893 298.369C326.66 298.796 326.337 299.169 325.947 299.461C329.212 297.557 333.837 301.638 332.341 305.039C333.293 302.998 341.727 308.032 334.382 312.249C332.246 313.223 329.927 313.733 327.58 313.745C310.031 315.105 292.347 315.377 274.663 315.785L130.33 318.506C125.977 318.642 118.767 319.05 115.91 314.969C113.054 310.888 114.55 305.175 119.447 305.039C118.643 302.867 118.553 300.496 119.189 298.27C119.825 296.044 121.154 294.078 122.984 292.66C124.882 291.294 127.178 290.594 129.515 290.668C131.852 290.742 134.099 291.585 135.907 293.068C134.003 288.307 132.371 283.273 132.779 278.104C133.187 272.935 135.499 267.629 139.852 265.045C144.206 262.46 150.735 263.004 153.864 267.221C153.389 262.342 154.333 257.429 156.585 253.074C157.187 251.723 158.182 250.585 159.441 249.809C160.075 249.494 160.797 249.404 161.488 249.552C162.18 249.7 162.801 250.078 163.25 250.625C163.142 248.435 163.644 246.257 164.701 244.335C165.758 242.414 167.328 240.824 169.236 239.742C171.156 238.685 173.334 238.187 175.523 238.308C177.712 238.428 179.823 239.161 181.615 240.422C181.479 236.886 185.152 234.029 188.689 234.165C190.447 234.388 192.115 235.072 193.525 236.147C194.934 237.222 196.034 238.65 196.715 240.286C198.347 243.415 198.483 247.088 198.483 250.625C198.571 247.629 199.756 244.769 201.812 242.588C203.868 240.406 206.652 239.055 209.638 238.79C212.6 238.662 215.512 239.59 217.854 241.409C220.196 243.228 221.816 245.819 222.425 248.721Z" fill="#327770"/>
<g style="mix-blend-mode:multiply" opacity="0.38">
<path d="M274.66 315.785L130.328 318.506C126.791 318.642 122.982 318.914 119.717 317.69C116.452 316.465 112.915 312.52 116.996 310.072C118.765 308.984 121.077 309.256 123.254 309.528C122.302 307.079 121.213 304.494 121.894 301.91C122.574 299.325 125.566 297.421 127.743 298.781C126.927 297.421 128.559 295.652 130.192 295.788C131.824 295.924 133.048 296.876 134.409 297.557C135.769 298.237 137.81 298.645 138.898 297.557C139.283 297.036 139.534 296.429 139.629 295.788C139.724 295.148 139.66 294.494 139.442 293.884C138.49 290.483 136.585 287.354 136.585 283.817C136.585 280.28 139.986 276.471 143.115 278.104C140.394 276.471 139.986 271.846 142.571 269.942C143.218 269.474 143.967 269.167 144.757 269.046C145.546 268.925 146.353 268.994 147.11 269.246C147.868 269.499 148.554 269.928 149.113 270.498C149.672 271.069 150.088 271.764 150.325 272.526C150.733 269.67 155.086 268.717 157.399 270.758C156.582 268.445 155.902 265.997 156.718 263.684C157.535 261.371 160.255 259.603 162.296 260.827C160.255 259.467 161.616 255.658 164.2 255.114C166.785 254.57 169.097 255.794 171.274 257.018C169.914 253.209 168.689 248.312 171.818 245.592C174.947 242.871 178.076 244.095 180.524 246.136C182.973 248.176 184.333 251.169 185.694 254.026C185.096 251.955 184.945 249.78 185.249 247.646C185.554 245.512 186.308 243.467 187.462 241.646C190.175 244.686 192.062 248.371 192.943 252.349C193.825 256.326 193.67 260.463 192.495 264.364C192.772 263.955 193.15 263.624 193.593 263.404C194.036 263.184 194.528 263.083 195.021 263.111C195.515 263.138 195.993 263.293 196.408 263.561C196.824 263.828 197.163 264.199 197.393 264.636C197.41 260.726 198.752 256.938 201.202 253.89L203.514 257.563C202.154 254.026 202.834 249.264 206.099 247.224C209.364 245.183 214.669 248.448 213.581 252.121C215.485 250.353 219.158 251.169 220.655 253.345C221.343 254.517 221.717 255.846 221.741 257.205C221.765 258.563 221.437 259.905 220.791 261.099C219.556 263.545 217.845 265.719 215.757 267.493C217.934 265.997 221.063 267.901 221.607 270.35C222.151 272.798 220.927 275.383 219.294 277.424C217.662 279.464 215.893 281.233 214.805 283.545C216.029 281.505 217.526 279.056 219.838 278.648C222.151 278.24 224.872 281.369 223.103 283.001C223.919 280.96 225.28 278.92 227.456 278.512C229.633 278.104 231.537 281.505 229.769 282.593L233.714 282.321C233.918 283.41 233.89 284.531 233.632 285.609C233.375 286.687 232.892 287.699 232.217 288.578C232.418 288.381 232.657 288.227 232.919 288.126C233.182 288.025 233.463 287.979 233.744 287.992C234.025 288.005 234.3 288.076 234.552 288.2C234.805 288.324 235.029 288.499 235.21 288.714C235.921 289.591 236.432 290.613 236.707 291.707C239.291 296.604 246.229 296.74 251.806 296.196C252.658 296.24 253.509 296.105 254.306 295.801C255.102 295.496 255.826 295.029 256.432 294.428C258.608 291.571 254.935 287.626 255.615 284.089C255.863 283.095 256.444 282.216 257.26 281.597C258.077 280.979 259.08 280.658 260.104 280.688C261.12 280.78 262.071 281.225 262.792 281.946C263.513 282.667 263.958 283.618 264.049 284.633C264.458 280.552 270.443 278.512 273.3 281.369C272.212 279.056 270.307 277.288 268.811 275.247C267.314 273.206 266.498 270.35 267.722 268.173C268.947 265.997 274.66 265.997 277.109 268.581C276.565 266.269 276.973 263.412 278.877 262.052C280.782 260.691 284.319 262.052 284.047 264.5C285.815 263.276 288.536 264.772 289.216 266.813C289.521 267.878 289.606 268.994 289.466 270.094C289.325 271.193 288.963 272.252 288.4 273.206C288.788 272.815 289.255 272.508 289.769 272.308C290.283 272.108 290.834 272.017 291.385 272.043C291.936 272.069 292.476 272.21 292.969 272.457C293.463 272.704 293.899 273.052 294.249 273.479C294.554 273.94 294.754 274.463 294.836 275.01C294.918 275.556 294.88 276.115 294.725 276.645C294.57 277.176 294.301 277.667 293.936 278.083C293.572 278.499 293.122 278.831 292.617 279.056C293.536 279.549 294.248 280.356 294.622 281.33C294.997 282.303 295.009 283.379 294.657 284.361C293.876 286.321 292.555 288.019 290.848 289.259C293.161 288.306 295.745 291.435 294.385 293.476C294.385 290.483 299.418 290.347 300.643 292.931C301.867 295.516 300.507 298.645 298.602 300.685C301.323 297.965 306.9 299.869 307.444 303.678C308.538 300.283 310.295 297.139 312.614 294.428C314.569 295.773 315.933 297.819 316.423 300.141C316.015 298.237 319.143 297.285 320.64 298.645C322.136 300.005 322 302.318 321.864 304.358C324.721 305.447 329.074 309.12 327.714 312.793C326.353 316.465 319.279 314.289 316.967 314.425L302.955 314.969C293.569 315.377 284.183 315.513 274.66 315.785Z" fill="#327770"/>
</g>
<path d="M202.427 290.211C203.441 289.071 204.785 288.275 206.272 287.934C207.759 287.592 209.315 287.722 210.725 288.306C212.127 288.911 213.295 289.954 214.055 291.278C214.815 292.602 215.126 294.136 214.942 295.652C216.847 290.347 222.424 286.402 228.001 287.218C233.579 288.034 237.796 294.156 236.3 299.461C237.116 297.148 241.061 297.284 242.285 299.461C243.509 301.637 242.285 304.358 240.381 305.855C243.373 305.446 247.182 307.215 249.359 309.255C248.402 307.425 247.758 305.448 247.454 303.406C247.333 302.396 247.483 301.371 247.889 300.439C248.296 299.506 248.944 298.699 249.767 298.101C250.177 297.81 250.644 297.61 251.138 297.514C251.631 297.418 252.139 297.428 252.629 297.544C253.118 297.659 253.577 297.878 253.974 298.185C254.372 298.493 254.7 298.881 254.936 299.325C254.528 294.7 255.889 289.802 259.425 286.81C262.962 283.817 268.676 283.137 272.077 286.402C272.28 284.365 273.173 282.459 274.608 280.999C276.043 279.539 277.934 278.614 279.967 278.376C282.021 278.216 284.074 278.709 285.833 279.783C287.591 280.858 288.966 282.46 289.761 284.361C290.471 286.291 290.604 288.386 290.145 290.39C289.686 292.395 288.655 294.223 287.176 295.652C288.401 295.108 289.761 296.468 289.625 297.828C289.315 299.071 288.596 300.172 287.585 300.957C290.985 301.093 293.162 305.991 290.849 308.575C292.53 308.034 294.338 308.034 296.019 308.575C297.515 309.391 298.467 311.704 297.243 312.928C298.739 312.248 300.1 314.697 299.011 316.057C297.923 317.417 296.155 317.553 294.522 317.553C270.444 318.234 246.366 317.826 222.152 318.37C197.938 318.914 171.139 319.458 145.701 317.69C141.756 317.417 136.994 316.601 135.77 312.792C134.546 308.983 136.45 307.079 138.899 305.718C141.439 304.478 144.351 304.235 147.061 305.038C145.928 303.718 145.344 302.015 145.429 300.277C145.701 298.645 148.013 297.42 149.102 298.645C148.749 298.306 148.478 297.893 148.306 297.435C148.135 296.978 148.069 296.488 148.112 296.001C148.155 295.515 148.307 295.044 148.557 294.624C148.806 294.204 149.146 293.845 149.553 293.574C149.959 293.303 150.421 293.127 150.905 293.058C151.389 292.99 151.882 293.031 152.347 293.178C152.813 293.325 153.24 293.575 153.597 293.909C153.953 294.243 154.23 294.652 154.407 295.108C153.005 292.141 152.411 288.856 152.685 285.585C152.96 282.315 154.093 279.175 155.97 276.483C157.848 273.792 160.403 271.643 163.377 270.256C166.351 268.868 169.639 268.29 172.908 268.581C175.492 268.853 185.967 271.438 183.246 276.471C184.879 273.478 189.368 273.07 191.952 275.111C194.537 277.151 195.217 281.096 194.265 284.225C194.642 283.584 195.144 283.025 195.741 282.581C196.338 282.136 197.018 281.816 197.741 281.639C198.463 281.461 199.214 281.43 199.949 281.547C200.683 281.664 201.387 281.927 202.019 282.321C202.581 282.801 203.04 283.39 203.367 284.053C203.693 284.717 203.882 285.439 203.92 286.178C203.958 286.916 203.845 287.655 203.589 288.348C203.332 289.041 202.937 289.675 202.427 290.211Z" fill="#608C53"/>
<g style="mix-blend-mode:multiply" opacity="0.19">
<path d="M201.477 292.796C203.109 293.34 204.334 294.972 203.653 296.469C204.878 294.836 207.19 292.932 208.823 294.292C210.455 295.652 207.054 301.366 209.775 302.862C212.527 299.134 215.624 295.672 219.025 292.524C220.658 291.027 222.698 289.395 224.875 290.075C225.73 290.367 226.488 290.891 227.064 291.587C227.64 292.283 228.012 293.125 228.14 294.02C228.303 295.762 228.118 297.519 227.595 299.189C228.276 297.693 230.86 298.237 231.676 299.734C232.493 301.23 232.221 302.998 232.221 304.767C232.159 305.194 232.255 305.63 232.493 305.991C233.173 306.807 234.261 306.263 235.077 305.719C236.423 305.104 237.915 304.88 239.383 305.072C240.85 305.265 242.234 305.866 243.375 306.807C244.06 307.742 245.007 308.452 246.096 308.848C247.865 309.392 249.497 307.76 250.857 306.399C252.218 305.039 254.122 303.542 255.755 304.495C255.119 301.251 255.45 297.893 256.707 294.836C257.06 293.709 257.657 292.673 258.457 291.803C259.256 290.933 260.238 290.25 261.332 289.803C263.509 288.987 266.501 290.211 266.909 292.524C266.79 292.005 266.778 291.467 266.872 290.943C266.966 290.42 267.165 289.92 267.458 289.475C267.75 289.031 268.129 288.649 268.573 288.355C269.016 288.061 269.515 287.859 270.038 287.763C270.559 287.731 271.081 287.82 271.562 288.022C272.044 288.225 272.472 288.535 272.814 288.93C273.156 289.324 273.403 289.793 273.535 290.298C273.667 290.803 273.68 291.332 273.575 291.844C274.003 289.987 274.789 288.231 275.888 286.674C276.476 285.899 277.282 285.317 278.203 285.002C279.123 284.687 280.117 284.654 281.057 284.906C283.097 285.722 283.778 288.443 283.37 290.483C282.668 292.534 281.504 294.395 279.969 295.925C281.873 295.38 283.642 297.829 283.37 299.87C283.097 301.91 281.465 303.406 279.833 304.903C281.103 304.643 282.421 304.737 283.642 305.175C284.73 305.855 285.41 307.487 284.458 308.44C285.525 308.073 286.69 308.122 287.723 308.576C288.675 309.256 288.675 311.024 287.587 311.16C288.78 310.951 290.009 311.093 291.124 311.569L290.035 314.289C290.505 314.213 290.987 314.275 291.422 314.469C291.856 314.662 292.226 314.978 292.484 315.377C293.572 316.738 287.723 317.69 287.315 317.69H259.7L222.154 318.098C196.716 318.778 171.141 319.186 145.703 317.418C143.118 317.282 132.235 314.969 136.588 310.072C137.414 309.208 138.527 308.676 139.717 308.576C142.765 307.88 145.955 308.166 148.832 309.392C148.35 308.786 148.045 308.06 147.949 307.292C147.853 306.524 147.97 305.745 148.287 305.039C148.476 304.705 148.736 304.418 149.049 304.197C149.363 303.977 149.721 303.828 150.099 303.763C150.476 303.698 150.863 303.718 151.233 303.821C151.602 303.924 151.943 304.107 152.232 304.359C151.864 304.066 151.567 303.693 151.362 303.269C151.158 302.845 151.051 302.381 151.051 301.91C151.051 301.439 151.158 300.975 151.362 300.551C151.567 300.127 151.864 299.754 152.232 299.461C153.003 298.915 153.92 298.61 154.864 298.586C155.809 298.561 156.74 298.819 157.538 299.325C156.311 296.924 155.593 294.295 155.429 291.603C155.265 288.911 155.659 286.214 156.586 283.681C158.762 278.648 164.067 274.975 169.373 275.655C174.678 276.336 179.031 282.321 177.399 287.354C177.95 285.915 179.036 284.743 180.43 284.085C181.824 283.426 183.418 283.33 184.881 283.817C187.737 284.906 188.826 289.259 186.649 291.299C187.438 290.525 188.485 290.069 189.59 290.019C190.694 289.968 191.779 290.328 192.635 291.027C193.44 291.777 194.039 292.722 194.373 293.77C194.706 294.819 194.764 295.936 194.539 297.013C195.899 295.108 197.396 292.932 199.572 292.388C200.235 292.308 200.905 292.451 201.477 292.796Z" fill="#608C53"/>
</g>
<path d="M241.063 288.17C244.442 285.96 248.468 284.954 252.49 285.314L249.905 287.898C252.211 287.242 254.649 287.196 256.979 287.762L253.034 290.755C256.309 290.073 259.711 290.357 262.828 291.571L260.244 291.979C262.464 292.363 264.535 293.351 266.229 294.836L264.325 295.652C266.615 296.333 268.776 297.39 270.718 298.781C269.766 299.461 270.446 301.094 271.262 302.046C276.568 308.031 283.369 309.392 290.851 310.752C288.615 312.283 285.941 313.047 283.233 312.929L287.586 314.833C283.468 316.191 279.127 316.745 274.799 316.465L276.568 317.826H268.27C269.945 318.814 271.459 320.052 272.759 321.499C266.223 318.599 259.079 317.338 251.945 317.826L253.17 318.506C240.945 320.568 228.494 320.935 216.168 319.594C216.147 319.276 216.228 318.959 216.399 318.69C216.57 318.421 216.823 318.213 217.121 318.098C206.782 316.874 195.491 319.73 185.969 315.241C187.329 315.921 191.818 313.881 193.179 313.473C194.539 313.065 197.396 311.568 199.572 310.616C203.998 308.678 207.979 305.854 211.271 302.318C213.176 300.277 214.808 297.965 216.849 296.06C219.4 293.67 222.407 291.819 225.691 290.619C224.549 292.01 223.631 293.57 222.97 295.244C224.297 293.482 225.962 292.002 227.867 290.891C227.748 291.454 227.566 292.002 227.323 292.523C229.43 290.456 231.867 288.755 234.533 287.49C234.135 288.225 233.816 289 233.581 289.803C236.269 287.629 239.442 286.136 242.831 285.45L241.063 288.17Z" fill="#8EA565"/>
<path d="M232.356 297.557C229.91 299.828 227.802 302.439 226.099 305.311C227.65 303.797 229.659 302.84 231.812 302.59C229.269 305.024 227.596 308.226 227.051 311.704C228.718 309.312 230.845 307.278 233.309 305.719C232.503 306.988 231.776 308.305 231.132 309.664C232.964 307.58 235.181 305.871 237.662 304.63C237.387 304.961 237.158 305.327 236.982 305.719C238.809 304.62 240.849 303.924 242.967 303.678C241.067 305.126 239.413 306.872 238.07 308.848C239.973 307.597 242.097 306.72 244.328 306.263C242.285 308.17 240.376 310.215 238.614 312.384C239.441 311.676 240.418 311.165 241.471 310.888C240.927 312.112 240.519 313.473 240.11 314.697C240.851 313.435 241.875 312.364 243.103 311.568V313.473C244.34 311.262 245.951 309.283 247.864 307.623C247.456 309.12 247.184 310.752 246.776 312.248C248.31 309.85 250.475 307.92 253.034 306.671C251.945 308.848 250.993 310.888 250.041 313.065C251.564 311.512 253.499 310.427 255.618 309.936L253.306 312.52C254.384 311.971 255.526 311.56 256.707 311.296L256.299 313.881C258.77 311.167 262.071 309.349 265.685 308.711L262.828 312.793C263.399 312.099 264.102 311.526 264.896 311.106C265.69 310.685 266.559 310.426 267.453 310.344L266.093 312.929C266.909 311.16 270.174 310.208 271.943 310.344C270.854 313.473 273.303 313.609 275.343 313.745C277.384 313.881 282.417 315.105 286.09 314.561C284.345 313.856 282.768 312.79 281.465 311.432C282.009 312.112 285.274 311.568 285.954 311.568C287.567 311.396 289.16 311.077 290.715 310.616C289.219 312.52 285.546 313.065 283.233 312.929L287.586 314.833C283.468 316.191 279.127 316.745 274.799 316.465L276.568 317.826H268.27C269.945 318.814 271.459 320.052 272.759 321.499C266.223 318.599 259.079 317.338 251.945 317.826L253.17 318.506C240.945 320.568 228.494 320.935 216.168 319.594C216.147 319.276 216.228 318.959 216.399 318.69C216.57 318.421 216.823 318.213 217.121 318.098C206.782 316.874 195.491 319.73 185.969 315.241C187.329 315.921 191.818 313.881 193.179 313.473C194.539 313.065 197.396 311.568 199.572 310.616C204.174 308.721 208.307 305.842 211.679 302.182C211.679 302.182 210.863 306.807 210.727 307.079C212.885 302.966 216.462 299.776 220.794 298.101L218.617 302.046C219.738 300.694 221.264 299.74 222.97 299.325C221.338 301.296 220.342 303.715 220.113 306.263C222.03 302.958 224.803 300.233 228.139 298.373C227.17 299.487 226.347 300.722 225.691 302.046C227.432 299.937 229.747 298.377 232.356 297.557Z" fill="#608C53"/>
<path d="M248.135 212.127H242.014V298.958H248.135V212.127Z" fill="white"/>
<path d="M246.776 300.823H247.592C249.145 300.418 250.755 300.28 252.354 300.415L254.938 300.687C255.756 300.592 256.584 300.638 257.387 300.823C256.527 300.165 255.56 299.659 254.53 299.326C254.817 299.054 255.162 298.851 255.539 298.733C255.917 298.615 256.316 298.585 256.707 298.646C256.087 298.247 255.381 298.002 254.648 297.931C253.914 297.86 253.174 297.965 252.49 298.238L254.394 296.197C253.007 296.36 251.714 296.983 250.721 297.966C250.857 297.422 251.537 296.333 252.217 296.333C251.271 296.351 250.341 296.584 249.497 297.014C250.298 295.966 251.21 295.008 252.217 294.157C250.677 294.186 249.211 294.822 248.136 295.925C248.243 295.82 248.323 295.692 248.37 295.55C248.417 295.408 248.43 295.257 248.409 295.109C247.452 295.625 246.689 296.436 246.232 297.422V295.517C245.507 295.946 244.862 296.498 244.327 297.15C244.622 295.766 245.127 294.436 245.824 293.205C244.811 293.535 243.914 294.149 243.239 294.973L244.6 291.572C243.449 292.039 242.407 292.739 241.541 293.629C240.674 294.519 240.002 295.579 239.566 296.742C239.586 295.561 239.541 294.38 239.43 293.205C239.028 294.004 238.573 294.777 238.07 295.517C237.934 295.789 237.39 298.374 238.07 298.51C236.165 298.238 235.621 296.469 236.165 294.837C235.78 295.564 235.556 296.366 235.509 297.188C235.462 298.01 235.593 298.832 235.893 299.598C235.633 299.268 235.303 298.999 234.927 298.811C234.551 298.623 234.137 298.52 233.717 298.51C234.592 299.668 235.842 300.485 237.254 300.823C240.375 301.641 243.655 301.641 246.776 300.823Z" fill="#608C53"/>
<path d="M282.819 215H208V257.211H282.819V215Z" fill="#BC3C19"/>
<path d="M279.969 219.066H211.68V253.755H279.969V219.066Z" stroke="white" stroke-width="1.19" stroke-miterlimit="10"/>
<path d="M227.761 229.335H230.46C232.26 229.335 233.476 229.405 234.11 229.544C234.75 229.683 235.27 230.039 235.668 230.613C236.073 231.18 236.275 232.089 236.275 233.339C236.275 234.48 236.133 235.247 235.849 235.64C235.566 236.032 235.007 236.268 234.174 236.346C234.929 236.533 235.436 236.784 235.695 237.098C235.955 237.412 236.115 237.702 236.176 237.968C236.242 238.227 236.275 238.949 236.275 240.132V244H232.734V239.127C232.734 238.342 232.67 237.856 232.543 237.669C232.423 237.481 232.1 237.388 231.574 237.388V244H227.761V229.335ZM231.574 231.844V235.105C232.003 235.105 232.302 235.048 232.471 234.933C232.646 234.812 232.734 234.429 232.734 233.783V232.977C232.734 232.512 232.649 232.207 232.48 232.062C232.317 231.917 232.015 231.844 231.574 231.844ZM237.761 229.335H244.119V232.27H241.574V235.051H243.956V237.841H241.574V241.065H244.373V244H237.761V229.335ZM253.992 229.335V244H250.65L248.666 237.333V244H245.478V229.335H248.666L250.804 235.939V229.335H253.992ZM263.213 229.335V232.27H260.949V244H257.135V232.27H254.88V229.335H263.213Z" fill="white"/>
<path d="M541.972 279.464H538.979C497.488 280.553 456.27 280.825 414.916 281.505C401.72 281.777 388.525 282.049 375.33 282.729C362.134 283.409 349.075 283.273 336.968 286.674C335.063 287.082 332.207 288.171 333.975 290.755C334.888 291.722 336.075 292.386 337.376 292.66C348.939 296.333 361.046 297.829 373.017 299.189C379.547 299.87 385.94 300.822 392.334 301.91C395.599 302.454 399 302.998 402.264 303.815C403.081 303.951 407.978 305.855 408.522 305.719C396.687 309.256 383.628 309.392 371.385 309.936C359.141 310.48 345.266 310.752 332.071 311.16C306.224 312.113 280.242 312.793 254.395 313.473C228.548 314.153 200.117 314.561 172.91 314.833C145.703 315.105 114.416 312.113 85.9844 315.241C127.067 322.587 168.421 327.621 209.776 332.382C279.153 340.272 349.755 342.856 419.133 334.014C432.357 332.493 445.422 329.808 458.175 325.988C462.664 324.492 475.179 320.819 475.451 314.697C475.723 308.576 468.513 306.399 465.112 305.039C447.428 297.829 428.111 295.38 409.066 293.068C434.913 292.66 461.031 293.068 486.878 291.571C502.114 290.619 517.486 290.483 532.857 289.939L556.255 288.715C565.642 287.899 575.708 288.715 585.367 288.579L555.847 281.233C553.427 280.604 550.975 280.104 548.501 279.736C546.333 279.51 544.152 279.419 541.972 279.464Z" fill="#EAEAD0"/>
<path d="M607.811 269.397C610.667 269.397 611.076 215.936 611.348 210.222C611.62 206.958 600.057 205.189 600.329 208.046C600.209 206.862 599.705 205.749 598.893 204.879C598.081 204.009 597.006 203.429 595.832 203.228C594.659 203.028 593.452 203.217 592.397 203.768C591.342 204.319 590.496 205.2 589.99 206.277C586.725 203.421 580.468 205.869 580.06 210.358C579.924 207.366 576.251 205.597 573.394 206.55C570.537 207.502 568.769 210.086 567.545 212.671C566.32 215.256 565.368 219.609 566.864 222.738C566.352 222.22 565.669 221.907 564.943 221.857C564.217 221.807 563.498 222.023 562.919 222.466C562.385 222.958 562.038 223.62 561.939 224.34C561.839 225.06 561.994 225.792 562.375 226.411C562.239 224.37 559.11 223.826 557.614 225.322C556.383 226.96 555.802 228.995 555.982 231.036C555.892 229.025 556.075 227.012 556.526 225.05C556.662 223.01 556.39 220.697 554.893 219.337C553.397 217.976 550.268 218.385 549.86 220.289C550.676 218.521 551.493 216.344 550.812 214.44C550.132 212.535 546.867 211.991 546.187 213.895C547.003 211.175 547.003 207.91 544.963 206.005C542.922 204.101 538.569 205.461 538.841 208.182C539.113 205.325 535.576 203.149 532.856 203.829C531.458 204.275 530.181 205.034 529.12 206.047C528.059 207.061 527.243 208.302 526.734 209.678C523.878 215.664 524.15 222.738 525.238 229.267C524.966 227.227 525.238 225.05 524.83 223.01C524.767 221.978 524.432 220.981 523.858 220.121C523.285 219.26 522.493 218.567 521.565 218.112C519.524 217.296 516.94 218.929 517.212 220.969C517.135 219.668 516.645 218.426 515.813 217.423C514.981 216.42 513.851 215.708 512.587 215.392C510.002 214.984 507.145 217.568 508.098 220.017C507.145 218.657 506.193 217.024 504.561 216.48C502.928 215.936 500.752 218.385 501.296 220.561C500.049 219.613 498.531 219.089 496.965 219.064C495.399 219.04 493.866 219.516 492.59 220.425C491.33 221.412 490.443 222.797 490.072 224.354C489.702 225.91 489.87 227.546 490.549 228.995C489.597 226.955 486.604 232.26 486.468 232.804C485.808 234.205 485.454 235.73 485.431 237.279C485.407 238.827 485.715 240.362 486.332 241.782C484.019 235.933 475.993 233.484 470.28 236.477C464.567 239.47 462.118 246.68 463.886 252.801C463.662 252.401 463.358 252.05 462.994 251.77C462.629 251.489 462.212 251.286 461.767 251.172C461.322 251.057 460.859 251.034 460.405 251.104C459.951 251.173 459.515 251.334 459.125 251.577C458.778 251.875 458.494 252.241 458.292 252.652C458.089 253.063 457.971 253.51 457.946 253.968C457.921 254.425 457.988 254.883 458.144 255.313C458.3 255.744 458.541 256.139 458.853 256.474C458.174 256.009 457.354 255.796 456.535 255.87C455.716 255.945 454.948 256.303 454.364 256.882C453.78 257.469 453.43 258.249 453.38 259.075C453.33 259.902 453.583 260.718 454.092 261.371C453.436 261.155 452.725 261.173 452.081 261.42C451.436 261.668 450.897 262.132 450.555 262.732C450.274 263.35 450.202 264.042 450.349 264.705C450.497 265.367 450.855 265.964 451.371 266.405C448.373 265.52 445.164 265.664 442.257 266.813C440.624 267.493 439.128 269.806 440.624 270.622C439.26 270.31 437.836 270.387 436.514 270.844C435.191 271.3 434.023 272.119 433.143 273.206C435.147 273.68 437.215 273.818 439.264 273.614L607.811 269.397Z" fill="#34585B"/>
<g style="mix-blend-mode:multiply" opacity="0.37">
<path d="M609.446 246.544C609.582 243.551 610.67 240.558 610.67 237.566L611.078 225.187C611.214 220.153 611.078 215.256 611.35 210.223C611.622 205.189 600.059 205.053 600.331 208.046C600.168 206.871 599.651 205.773 598.849 204.898C598.048 204.024 596.999 203.414 595.842 203.149C594.661 202.976 593.455 203.186 592.402 203.749C591.349 204.312 590.504 205.199 589.993 206.278C586.728 203.421 580.47 205.87 580.062 210.223C579.926 207.366 576.253 205.598 573.396 206.55C570.54 207.502 568.771 209.951 567.547 212.671C566.323 215.392 565.37 219.609 566.867 222.738C566.355 222.221 565.672 221.908 564.946 221.858C564.22 221.807 563.5 222.024 562.922 222.466C562.387 222.958 562.04 223.621 561.941 224.341C561.842 225.06 561.996 225.792 562.378 226.411C562.242 224.37 559.113 223.826 557.617 225.323C556.386 226.96 555.804 228.995 555.984 231.036C555.894 228.98 556.077 226.922 556.528 224.914C556.695 223.922 556.635 222.904 556.352 221.939C556.069 220.973 555.571 220.083 554.896 219.337C553.399 217.977 550.271 218.249 549.863 220.289C550.679 218.521 551.495 216.344 550.815 214.44C550.135 212.535 546.87 211.991 546.19 213.76C547.006 211.175 547.006 207.91 544.965 206.006C542.925 204.101 536.939 206.414 535.035 208.046C533.13 209.679 530.138 214.304 530.138 217.569C530.138 220.833 532.994 224.506 536.395 224.506C535.851 223.554 534.219 224.37 533.674 225.459C532.904 226.908 532.56 228.545 532.68 230.182C532.8 231.819 533.381 233.388 534.355 234.709C533.13 233.621 531.77 232.396 530.274 232.804C528.777 233.213 528.097 234.573 527.553 235.933C526.956 237.569 526.501 239.253 526.193 240.967C526.182 238.399 525.674 235.858 524.696 233.485C522.384 228.723 513.677 223.554 508.508 225.867C503.339 228.179 502.659 233.621 502.931 238.518C501.978 236.341 498.578 236.341 496.945 238.11C495.485 240.021 494.718 242.371 494.769 244.775C494.36 248.176 493.952 251.441 493.68 254.842C492.184 254.706 491.096 253.346 489.735 252.802C488.375 252.257 486.198 253.754 487.151 254.842C485.382 251.985 483.342 248.857 480.213 247.36C477.084 245.864 470.963 247.36 467.97 250.761C465.135 254.404 463.689 258.937 463.889 263.548C463.753 264.773 463.617 266.405 462.392 266.813C461.76 266.977 461.091 266.929 460.488 266.677C458.751 266.075 456.849 266.173 455.183 266.949C454.409 267.404 453.822 268.118 453.523 268.964C453.224 269.81 453.234 270.735 453.55 271.574L444.028 272.254C443.484 272.39 443.076 272.39 442.803 272.935C442.531 273.479 444.436 273.343 446.068 273.479C459.264 274.431 473.411 272.799 486.743 272.39L508.644 271.846L520.071 271.574C522.792 271.438 526.329 272.254 528.913 271.166C529.122 271.107 529.315 271.004 529.479 270.863C529.643 270.722 529.775 270.547 529.865 270.35C530.043 269.825 530.09 269.265 530.001 268.718C529.321 265.317 529.049 261.644 530.682 258.651C532.314 255.658 536.123 253.482 539.252 254.978C539.388 249.673 541.973 244.231 546.598 241.783C551.223 239.334 558.025 240.558 560.473 245.184C560.745 242.599 561.562 239.606 563.874 238.654C566.187 237.702 569.315 239.742 570.268 242.327C571.22 244.912 571.22 247.632 571.492 250.353C571.764 253.074 572.852 255.93 575.301 257.019C575.161 255.078 575.44 253.129 576.117 251.305C576.502 250.4 577.182 249.651 578.047 249.182C578.911 248.713 579.909 248.55 580.878 248.72C581.014 246.136 581.286 243.415 582.919 241.511C584.551 239.606 588.224 239.198 589.312 241.511C589.158 239.928 589.625 238.348 590.615 237.104C591.606 235.859 593.041 235.049 594.618 234.845C596.219 234.808 597.77 235.399 598.94 236.493C600.11 237.586 600.805 239.095 600.875 240.694C600.891 240.223 601.004 239.76 601.208 239.334C601.413 238.909 601.703 238.531 602.061 238.224C602.419 237.917 602.838 237.687 603.289 237.551C603.741 237.414 604.216 237.373 604.684 237.43C605.614 237.613 606.479 238.036 607.195 238.656C607.91 239.276 608.452 240.073 608.765 240.967C609.333 242.768 609.563 244.659 609.446 246.544Z" fill="#34585B"/>
</g>
<path d="M530.679 218.794C533.521 220.579 536.73 221.695 540.066 222.059C544.419 222.331 547.956 219.338 551.765 217.434C552.15 219.081 553.037 220.569 554.305 221.69C555.572 222.811 557.156 223.51 558.839 223.691C562.239 224.1 565.504 222.875 568.633 221.379C570.129 225.188 575.027 226.684 579.108 226.276C593.527 224.78 600.329 209.408 601.009 196.757C601.417 187.914 600.329 179.072 600.193 170.094C600.057 163.836 602.778 159.211 603.594 153.09C604.596 146.683 603.941 140.126 601.689 134.045C601.113 132.617 600.248 131.324 599.147 130.247C598.047 129.17 596.736 128.333 595.296 127.787C592.439 126.971 588.766 128.195 587.542 130.916C588.358 128.195 589.174 125.339 588.222 122.754C587.27 120.169 583.733 118.265 581.556 120.033C581.017 118.792 580.145 117.723 579.037 116.946C577.929 116.168 576.628 115.712 575.276 115.628C573.925 115.543 572.577 115.834 571.381 116.467C570.185 117.101 569.187 118.052 568.497 119.217C566.55 118.678 564.492 118.685 562.549 119.237C560.606 119.789 558.852 120.864 557.478 122.346C556.132 123.89 555.262 125.79 554.972 127.818C554.683 129.846 554.986 131.914 555.846 133.773C554.413 132.476 552.684 131.551 550.811 131.076C548.937 130.602 546.976 130.594 545.099 131.052C541.376 131.921 538.035 133.974 535.577 136.902C531.768 141.119 529.455 146.968 531.224 152.409C524.966 149.417 517.076 152.409 512.723 157.715C508.37 163.02 507.145 170.366 507.281 177.304C507.888 191.377 514.052 204.635 524.422 214.169C526.366 215.893 528.46 217.441 530.679 218.794Z" fill="#608C53"/>
<g style="mix-blend-mode:multiply" opacity="0.2">
<path d="M530.679 218.794C533.521 220.579 536.73 221.695 540.066 222.059C544.419 222.331 547.956 219.338 551.765 217.434C552.15 219.081 553.037 220.569 554.305 221.69C555.572 222.811 557.156 223.51 558.839 223.692C562.239 224.1 565.504 222.875 568.633 221.379C570.129 225.188 575.027 226.684 579.108 226.276C593.527 224.78 600.329 209.408 601.009 196.757C601.417 187.914 600.329 179.072 600.193 170.094C600.057 163.836 602.778 159.211 603.594 153.09C604.596 146.683 603.941 140.126 601.689 134.045C601.113 132.617 600.248 131.324 599.147 130.247C598.047 129.17 596.736 128.333 595.296 127.787C592.439 126.971 588.766 128.195 587.542 130.916C588.358 128.195 589.174 125.339 588.222 122.754C587.27 120.169 583.869 119.217 580.876 120.441H583.869C584.141 121.122 583.597 121.802 583.189 122.346C582.559 122.715 582.077 123.292 581.828 123.978C581.828 124.658 582.508 125.475 583.189 125.067C581.148 125.747 578.836 126.971 578.972 129.012C579.09 129.61 579.367 130.166 579.774 130.621C580.181 131.076 580.702 131.412 581.284 131.596C582.39 132.04 583.527 132.404 584.685 132.685C585.75 133.093 586.721 133.714 587.54 134.509C588.358 135.304 589.007 136.257 589.446 137.31C589.735 137.802 589.832 138.383 589.718 138.942C589.582 140.302 587.542 140.711 586.317 140.166C585.093 139.622 583.869 138.534 582.508 137.99C581.756 137.712 580.942 137.642 580.152 137.785C579.363 137.929 578.626 138.281 578.019 138.806C577.387 139.323 576.903 139.998 576.616 140.763C576.33 141.527 576.251 142.354 576.387 143.159C575.299 141.799 573.802 140.302 572.034 140.438C570.265 140.574 568.361 143.839 569.041 146.152C569.721 148.464 571.49 150.505 572.714 152.682C573.938 154.858 573.122 153.362 573.122 153.77C573.122 154.178 572.17 155.402 571.354 155.81C568.902 156.787 566.211 156.998 563.637 156.415C561.063 155.832 558.726 154.483 556.934 152.545C554.349 149.417 552.853 144.928 548.908 143.839C544.963 142.751 541.426 146.016 539.114 149.281C539.114 144.792 538.978 140.438 538.705 135.949C532.176 137.31 529.319 146.424 531.224 152.273C524.966 149.281 517.076 152.273 512.723 157.579C508.37 162.884 507.145 170.23 507.281 177.168C507.888 191.241 514.052 204.499 524.422 214.033C526.361 215.805 528.455 217.398 530.679 218.794Z" fill="#608C53"/>
</g>
<g style="mix-blend-mode:multiply" opacity="0.2">
<path d="M530.679 218.794C533.52 220.578 536.73 221.695 540.065 222.059C544.418 222.331 547.955 219.338 551.764 217.434C552.149 219.081 553.037 220.568 554.304 221.689C555.571 222.81 557.156 223.51 558.838 223.691C562.239 224.099 565.504 222.875 568.632 221.379C570.129 225.188 575.026 226.684 579.107 226.276C593.527 224.779 600.328 209.408 601.008 196.756C601.417 187.914 600.328 179.072 600.192 170.094C600.192 166.965 607.81 142.615 599.376 144.111C598.6 144.254 597.886 144.634 597.336 145.199C593.755 148.061 591.143 151.956 589.854 156.354C589.854 154.45 586.861 154.314 585.909 155.81C584.956 157.306 585.092 159.211 584.684 160.979C583.46 165.196 578.699 167.373 574.346 167.781C567.307 168.423 560.291 166.328 554.757 161.932C552.716 160.299 550.948 158.259 548.635 157.306C546.323 156.354 543.058 156.49 541.697 158.667C538.297 154.314 531.495 154.722 526.326 156.354C517.075 159.211 507.009 166.557 507.281 177.303C507.887 191.377 514.051 204.635 524.421 214.169C526.366 215.893 528.46 217.441 530.679 218.794Z" fill="#608C53"/>
</g>
<path d="M488.235 190.906C488.099 188.321 487.963 185.737 487.691 183.152C487.419 180.567 485.515 175.126 484.154 171.181C483.756 169.579 482.789 168.177 481.434 167.236C480.073 166.42 477.761 167.1 477.625 168.732C473.136 158.53 461.981 152.136 450.826 152C444.61 152.036 438.496 153.576 433.005 156.489C429.196 158.394 421.17 162.475 420.49 167.372C420.391 168.299 420.624 169.231 421.147 170.003C421.67 170.775 422.449 171.337 423.347 171.589C419.112 172.951 415.28 175.342 412.194 178.546C409.108 181.751 406.864 185.67 405.662 189.954C404.574 194.171 404.574 198.932 406.887 202.741C409.199 206.55 413.825 209.134 418.042 207.774C417.501 209.099 416.767 210.336 415.865 211.447C415.411 211.989 415.129 212.654 415.056 213.357C414.983 214.06 415.123 214.769 415.457 215.392C416.409 216.48 418.722 215.8 418.314 214.44C415.457 220.697 418.994 228.451 424.707 232.26C430.421 236.069 437.903 236.341 444.704 235.661C451.903 234.973 458.961 233.231 465.654 230.492C475.992 226.275 483.474 215.8 486.467 205.189C487.665 200.523 488.259 195.723 488.235 190.906Z" fill="#327770"/>
<path d="M448.788 225.731C448.785 225.075 448.646 224.426 448.38 223.827C447.91 223.012 447.313 222.277 446.611 221.65C444.41 219.285 442.781 216.446 441.85 213.352C441.695 212.961 441.603 212.548 441.578 212.128C441.649 211.918 441.774 211.732 441.942 211.588C442.109 211.445 442.313 211.349 442.53 211.311C443.755 214.984 446.475 217.977 448.924 220.97C448.38 220.29 448.924 217.297 448.924 216.345C448.924 215.392 448.924 212.4 448.924 210.359C448.924 208.319 448.788 202.605 448.652 198.66H449.876C450.916 206.233 451.416 213.87 451.373 221.514C453.647 215.995 455.114 210.176 455.726 204.238C456.228 204.327 456.744 204.28 457.222 204.102C457.902 204.51 456.814 209.951 456.678 210.767C455.59 217.025 452.189 223.01 452.325 229.404C452.325 233.621 452.189 237.974 452.189 242.191C452.325 251.578 452.733 260.964 453.413 270.214C452.243 270.033 451.057 269.987 449.876 270.078C448.924 270.078 448.652 234.165 448.788 230.9C448.972 229.548 449.017 228.181 448.924 226.819C448.938 226.452 448.892 226.084 448.788 225.731Z" fill="#38485E"/>
<path d="M510.275 213.488C504.852 214.172 499.346 213.756 494.087 212.264C474.77 207.231 462.663 181.52 474.362 164.108C478.307 158.394 486.197 154.722 492.591 157.578C492.355 157.439 492.149 157.253 491.987 157.033C491.824 156.812 491.708 156.561 491.644 156.294C491.581 156.028 491.572 155.751 491.617 155.481C491.663 155.211 491.763 154.952 491.911 154.722C492.07 154.504 492.282 154.33 492.526 154.214C492.769 154.098 493.038 154.044 493.308 154.058C493.577 154.071 493.839 154.151 494.07 154.291C494.301 154.431 494.494 154.625 494.631 154.858C494.193 154.07 493.923 153.201 493.837 152.304C493.751 151.407 493.852 150.502 494.133 149.646C494.414 148.789 494.87 148.001 495.47 147.329C496.071 146.658 496.804 146.118 497.624 145.743C498.473 145.478 499.367 145.392 500.251 145.491C501.135 145.591 501.988 145.874 502.756 146.322C503.524 146.77 504.191 147.374 504.712 148.094C505.234 148.814 505.6 149.635 505.786 150.504C505.921 149.459 506.443 148.502 507.249 147.822C508.055 147.142 509.086 146.789 510.139 146.832C510.641 146.928 511.111 147.147 511.509 147.467C511.907 147.788 512.221 148.201 512.422 148.671C512.623 149.141 512.706 149.653 512.664 150.162C512.622 150.671 512.456 151.163 512.18 151.593C513.948 148.872 517.757 148.6 520.75 149.552C523.117 150.186 525.187 151.631 526.599 153.633C527.315 154.622 527.807 155.755 528.042 156.953C528.276 158.151 528.249 159.385 527.96 160.571C529.307 160.357 530.687 160.569 531.907 161.179C533.127 161.789 534.125 162.766 534.761 163.972C535.399 165.173 535.637 166.546 535.442 167.891C535.246 169.236 534.627 170.484 533.673 171.454C536.122 170.638 537.89 174.719 538.298 176.351C539.785 183.206 538.566 190.37 534.897 196.348C532.286 200.823 528.73 204.675 524.478 207.635C520.225 210.595 515.379 212.593 510.275 213.488Z" fill="#8EA565"/>
<g style="mix-blend-mode:multiply" opacity="0.38">
<path d="M510.273 213.487C504.85 214.171 499.344 213.755 494.085 212.263C477.489 208.046 464.294 187.369 473.272 171.18C474.774 176.864 477.567 182.124 481.434 186.552C480.479 184.014 480.094 181.298 480.305 178.594C480.517 175.891 481.32 173.267 482.658 170.908C484.155 168.596 486.467 166.419 489.188 166.555C490.275 166.775 491.328 167.141 492.317 167.644L501.023 171.861C500.467 170.288 500.191 168.631 500.207 166.963C500.25 166.135 500.53 165.337 501.012 164.662C501.494 163.987 502.158 163.464 502.927 163.154C505.104 162.474 507.281 164.243 509.457 165.195C510.952 165.761 512.583 165.86 514.135 165.478C515.687 165.097 517.087 164.253 518.149 163.058C519.21 161.864 519.884 160.375 520.081 158.789C520.278 157.203 519.989 155.594 519.252 154.176C520.66 154.311 521.992 154.881 523.06 155.809C522.652 155.4 522.108 151.319 521.564 150.367C526.053 150.911 529.182 156.217 527.958 160.57C529.305 160.355 530.685 160.568 531.905 161.178C533.125 161.788 534.123 162.764 534.759 163.971C535.397 165.171 535.635 166.544 535.44 167.89C535.244 169.235 534.625 170.483 533.671 171.453C536.12 170.636 537.888 174.717 538.296 176.35C539.783 183.205 538.564 190.369 534.895 196.347C532.284 200.822 528.728 204.674 524.476 207.634C520.223 210.594 515.377 212.592 510.273 213.487Z" fill="#8EA565"/>
</g>
<path d="M597.336 109.014V267.767L707.388 289.396H894.571V106.022H906.406V101.533H902.461L840.021 37.7324H640.459L637.602 35.0117L584.141 109.014H597.336Z" fill="white"/>
<path d="M660.594 206.551V279.873L695.419 287.083V209.816L660.594 206.551Z" fill="#48678C" stroke="#EAEAD0" stroke-width="0.96" stroke-miterlimit="10"/>
<path d="M606.586 202.334V269.671L630.8 274.432V204.783L606.586 202.334Z" fill="#48678C" stroke="#EAEAD0" stroke-width="0.96" stroke-miterlimit="10"/>
<path d="M630.801 274.432H643.18V207.503L630.801 206.143V274.432Z" fill="#49372B"/>
<path d="M643.18 274.432L660.592 277.56V279.873L630.801 274.432H643.18Z" fill="#49372B"/>
<path d="M606.586 202.334L615.428 203.286V271.439L606.586 269.671V202.334Z" fill="#5D90BA" stroke="#EAEAD0" stroke-width="0.96" stroke-miterlimit="10"/>
<path d="M695.417 209.815V287.082L684.67 284.906V208.727L695.417 209.815Z" fill="#5D90BA" stroke="#EAEAD0" stroke-width="0.96" stroke-miterlimit="10"/>
<path d="M643.18 274.431L660.592 277.56V208.998L643.18 207.502V274.431Z" fill="#5E4838"/>
<path d="M647.261 207.638V275.247L643.18 274.431V207.502L647.261 207.638Z" fill="#EAEAD0"/>
<path d="M650.391 228.588L656.92 229.404V253.754L650.391 252.802V228.588Z" fill="#38485E" stroke="white" stroke-width="0.96" stroke-miterlimit="10"/>
<path d="M603.32 200.836V203.965L699.769 212.399V208.318L603.32 200.836Z" fill="#845F46"/>
<path d="M894.707 103.844H707.115V289.435H894.707V103.844Z" fill="#EAEAD0"/>
<path d="M886.68 118.672H729.152V168.773H886.68V118.672Z" fill="#5E4838"/>
<path d="M882.326 122.617H733.232V165.101H882.326V122.617Z" fill="white"/>
<path d="M880.288 124.385H734.867V163.59H880.288V124.385Z" fill="#48678C"/>
<path d="M744.661 156.489C743.721 156.635 742.805 156.909 741.94 157.305C740.297 158.027 738.744 158.94 737.315 160.026C737.179 160.162 734.05 163.291 735.002 163.427H735.546C737.043 164.107 740.852 163.427 742.348 163.427H880.287V133.227C880.287 130.098 880.695 127.378 880.015 124.385C878.483 124.38 876.971 124.734 875.601 125.419C874.23 126.104 873.04 127.101 872.125 128.33C869.54 131.731 869.404 136.628 866.548 139.757C863.691 142.885 857.841 143.838 853.488 141.933C849.135 140.029 846.278 136.22 842.061 134.315C834.716 130.914 826.145 134.043 819.48 138.532C812.814 143.022 807.237 149.143 800.163 152.68C793.089 156.217 784.927 157.033 776.901 156.897C768.875 156.761 761.121 155.673 753.231 155.537C750.347 155.517 747.47 155.836 744.661 156.489Z" fill="#38485E"/>
<path d="M777.58 122.617H774.043V165.101H777.58V122.617Z" fill="white"/>
<path d="M840.295 122.617H836.758V165.101H840.295V122.617Z" fill="white"/>
<path d="M882.326 142.07H733.232V145.77H882.326V142.07Z" fill="white"/>
<path d="M802.884 177.711H724.664V271.384H802.884V177.711Z" fill="#5E4838"/>
<path d="M798.258 181.656H729.152V269.657H798.258V181.656Z" fill="white"/>
<path d="M794.176 187.098H734.457V263.998H794.176V187.098Z" fill="#48678C"/>
<path d="M774.86 212.265C776.493 209.68 778.805 207.639 781.662 207.503C782.342 207.503 783.294 207.503 783.702 206.959C783.977 206.611 784.121 206.178 784.111 205.735C784.655 201.926 785.471 198.117 787.647 195.124C789.824 192.132 793.905 186.826 793.905 186.826V264.094H734.458C733.778 264.094 735.274 247.361 735.682 245.729C737.213 240.456 740.658 235.944 745.341 233.078C750.428 229.84 756.578 228.718 762.481 229.949C765.836 230.72 769.08 231.908 772.14 233.486C770.378 227.205 770.909 220.503 773.636 214.577C773.908 213.741 774.322 212.959 774.86 212.265Z" fill="#38485E"/>
<path d="M762.48 184.377V266.814" stroke="white" stroke-width="2.88" stroke-miterlimit="10"/>
<path d="M731.738 225.73H796.219" stroke="white" stroke-width="2.88" stroke-miterlimit="10"/>
<path d="M885.185 177.711H809.414V271.384H885.185V177.711Z" fill="#5E4838"/>
<path d="M880.153 181.656H814.312V269.657H880.153V181.656Z" fill="white"/>
<path d="M874.437 187.098H820.023V263.998H874.437V187.098Z" fill="#48678C"/>
<path d="M834.581 208.999C817.441 230.221 820.025 263.957 820.025 263.957H874.439V187.098C874.439 187.098 851.585 187.778 834.581 208.999Z" fill="#38485E"/>
<path d="M848.184 184.377V266.814" stroke="white" stroke-width="2.88" stroke-miterlimit="10"/>
<path d="M817.439 224.506H877.567" stroke="white" stroke-width="2.88" stroke-miterlimit="10"/>
<path d="M889.401 269.67H718.678V279.913H889.401V269.67Z" fill="#5E4838"/>
<path d="M892.53 267.902H715.277V273.779H892.53V267.902Z" fill="#845F46"/>
<path d="M640.459 37.7324L704.531 103.029L905.182 103.845L840.021 37.7324H640.459Z" fill="#7C2C1D"/>
<g style="mix-blend-mode:multiply" opacity="0.34">
<path d="M640.459 37.7324L704.531 103.029L905.182 103.845L894.571 92.9624C894.571 92.9624 889.81 92.6903 887.497 92.8264C870.46 93.3241 853.747 88.1042 840.021 77.9986C833.628 73.1014 827.914 67.2519 820.977 63.4429C811.862 58.5457 801.116 57.5934 790.913 58.8178C780.71 60.0421 770.916 63.715 761.394 67.796C754.592 70.5167 747.654 73.6455 740.308 73.9176C727.113 74.1897 715.686 65.3474 705.756 56.7772C695.825 48.2071 683.31 37.7324 668.074 37.7324H647.805C646.853 37.7324 641.139 38.5486 640.459 37.7324Z" fill="#7C2C1D"/>
</g>
<g style="mix-blend-mode:multiply" opacity="0.3">
<path d="M707.115 289.396C731.737 135.677 838.524 369.248 894.571 138.262V289.396H707.115Z" fill="#845F46"/>
</g>
<g style="mix-blend-mode:multiply" opacity="0.42">
<path d="M638.146 39.3633L587.27 109.013H597.336V128.738L647.261 66.162L707.116 128.738H894.571V103.844L704.531 103.027L643.724 45.0767L638.146 39.3633Z" fill="#845F46"/>
</g>
<path d="M637.873 82.8945L625.086 103.028V148.327H665.216V96.634L637.873 82.8945Z" fill="#845F46"/>
<path d="M629.031 143.974H659.503V97.7222L640.458 87.9277L629.031 103.028V143.974Z" fill="#5D90BA"/>
<path d="M629.169 144.11H629.441C630.121 144.79 634.883 144.246 635.835 144.11H646.037C646.854 144.11 659.505 143.838 659.505 144.11V97.7222L640.46 87.9277C636.787 92.825 633.114 98.5384 628.625 102.483C636.742 105.996 644.527 110.23 651.887 115.135C648.35 120.576 644.813 126.017 640.868 131.187C638.964 133.907 636.923 136.356 634.883 138.805C633.902 140.12 632.81 141.349 631.618 142.478C630.723 142.893 629.897 143.444 629.169 144.11Z" fill="#48678C"/>
<path d="M640.459 87.9277V143.974" stroke="white" stroke-width="0.96" stroke-miterlimit="10"/>
<path d="M629.031 121.937L659.503 121.121" stroke="white" stroke-width="0.96" stroke-miterlimit="10"/>
<path d="M629.031 103.028L659.503 102.076" stroke="white" stroke-width="0.96" stroke-miterlimit="10"/>
<path d="M629.031 103.028L640.458 87.9277L659.503 97.7222V143.974H629.031V103.028Z" stroke="white" stroke-width="0.96" stroke-miterlimit="10"/>
<path d="M617.742 103.029H625.088L637.331 84.5283L633.522 80.4473L617.742 103.029Z" fill="#993A23"/>
<path d="M654.198 101.532H673.923L651.477 79.0859H634.473L654.198 101.532Z" fill="#7C2C1D"/>
<path d="M617.742 103.028H620.463L635.155 82.0787L652.703 101.532H655.968L635.835 79.0859H634.474L617.742 103.028Z" fill="#BC3C19"/>
<path d="M651.341 74.1895H634.473V79.0731H651.341V74.1895Z" fill="#7C2C1D"/>
<path d="M635.833 74.1895H634.473V79.0731H635.833V74.1895Z" fill="#BC3C19"/>
<g style="mix-blend-mode:multiply" opacity="0.58">
<path d="M635.155 82.0781L620.463 103.027H625.088V118.671L665.218 106.02V101.531H652.703L635.155 82.0781Z" fill="#38485E"/>
</g>
<path d="M507.281 267.902V272.936L587.542 291.436V286.267L507.281 267.902Z" fill="#845F46"/>
<path d="M695.282 286.266H587.543V291.489H695.282V286.266Z" fill="#49372B"/>
<path d="M507.281 267.902H597.336L695.417 286.267H587.542L507.281 267.902Z" fill="#5E4838"/>
<g style="mix-blend-mode:multiply" opacity="0.31">
<path d="M547.41 268.309L587.948 286.266L587.54 291.435H695.416V286.266L683.581 284.089V192.674L597.335 194.442V267.765L547.41 268.309Z" fill="#38485E"/>
</g>
<path d="M633.927 197.027H624.812V286.211H633.927V197.027Z" fill="#845F46"/>
<path d="M634.066 197.027H630.801V286.211H634.066V197.027Z" fill="#5E4838"/>
<path d="M675.963 197.027H667.938V286.211H675.963V197.027Z" fill="#5E4838"/>
<path d="M670.93 197.027H667.938V286.211H670.93V197.027Z" fill="#845F46"/>
<path d="M583.053 195.26V285.178L587.542 286.267H592.711V196.62L583.053 195.26Z" fill="#5E4838"/>
<path d="M583.053 195.26L587.95 195.94V286.267L583.053 285.178V195.26Z" fill="#845F46"/>
<path d="M511.092 190.09V268.854L516.533 270.078H520.886V190.09H511.092Z" fill="#5E4838"/>
<path d="M511.092 190.09L516.533 190.226V270.078L511.092 268.854V190.09Z" fill="#845F46"/>
<path d="M551.902 192.674V270.077H557.616V193.49L551.902 192.674Z" fill="#5E4838"/>
<path d="M485.514 190.09V181.656L535.574 162.203L621.956 164.516L686.436 190.09V198.932H595.702L485.514 190.09Z" fill="#7C2C1D"/>
<g style="mix-blend-mode:multiply" opacity="0.53">
<path d="M595.703 198.932V190.09H686.438V198.932H595.703Z" fill="#7C2C1D"/>
</g>
<path d="M595.702 190.09L485.514 181.656V190.09L595.702 198.933V190.09Z" fill="#993A23"/>
<g style="mix-blend-mode:multiply" opacity="0.57">
<path d="M485.516 186.418L595.703 195.26V198.933L485.516 190.091V186.418Z" fill="#BC3C19"/>
</g>
<g style="mix-blend-mode:multiply" opacity="0.57">
<path d="M686.574 195.26H595.703V198.933H686.574V195.26Z" fill="#7C2C1D"/>
</g>
<path d="M535.574 162.203L595.702 190.09L485.514 181.656L535.574 162.203Z" fill="#BC3C19"/>
<path d="M584.141 109.014H587.269L638.146 39.3641L703.443 106.021H906.406V101.532H704.531L637.874 34.875L584.141 109.014Z" fill="#BC3C19"/>
<path d="M587.27 109.013H597.336L643.724 45.0767L638.146 39.3633L587.27 109.013Z" fill="#7C2C1D"/>
<path d="M842.606 268.311C847.504 268.447 853.081 272.392 852.129 277.289C856.074 275.248 861.515 274.84 864.644 278.105C867.773 281.37 866.957 288.308 865.188 293.477C866.236 292.536 867.589 292.004 868.997 291.981C870.357 292.253 871.446 294.157 870.493 295.109C870.803 294.584 871.279 294.179 871.846 293.957C872.414 293.735 873.039 293.709 873.622 293.885C874.195 294.123 874.668 294.55 874.965 295.094C875.262 295.638 875.364 296.268 875.255 296.878C875.67 296.192 876.34 295.7 877.118 295.508C877.896 295.317 878.718 295.443 879.404 295.858C880.089 296.272 880.582 296.943 880.773 297.721C880.964 298.499 880.839 299.321 880.424 300.007C881.427 298.106 882.763 296.401 884.369 294.973C885.193 294.249 886.18 293.734 887.246 293.473C888.312 293.213 889.425 293.214 890.49 293.477C891 293.646 891.471 293.914 891.877 294.265C892.283 294.617 892.615 295.045 892.856 295.525C893.096 296.005 893.239 296.528 893.276 297.064C893.314 297.599 893.246 298.137 893.075 298.646C893.347 297.286 895.524 297.15 896.34 298.238C896.66 298.837 896.767 299.526 896.643 300.194C896.52 300.861 896.173 301.467 895.66 301.911C894.558 302.785 893.243 303.348 891.851 303.543C883.553 305.448 874.847 305.312 866.276 305.04C847.64 304.496 829.139 304.768 810.502 304.36C810.194 304.415 809.875 304.38 809.586 304.26C809.296 304.139 809.048 303.938 808.87 303.679C808.462 303.135 808.87 302.319 809.414 301.775C810.391 300.673 811.755 299.991 813.223 299.871C810.502 300.415 807.782 298.102 807.237 295.245C807.013 292.482 807.894 289.743 809.686 287.627C812.271 284.363 815.4 282.866 818.936 281.098C819.753 280.826 828.323 277.425 827.779 280.69C828.414 277.219 830.246 274.08 832.954 271.819C835.663 269.558 839.078 268.316 842.606 268.311Z" fill="#8EA565"/>
<g style="mix-blend-mode:multiply" opacity="0.29">
<path d="M839.886 277.152C840.287 277.245 840.664 277.42 840.994 277.666C841.325 277.912 841.6 278.224 841.805 278.581C842.009 278.939 842.137 279.335 842.182 279.744C842.226 280.154 842.185 280.568 842.062 280.961C843.151 279.736 844.783 278.376 846.279 279.056C846.782 279.377 847.195 279.82 847.48 280.343C847.765 280.866 847.914 281.453 847.912 282.049C848.016 284.088 847.545 286.115 846.551 287.898C847.854 286.351 849.544 285.178 851.449 284.498C853.353 283.817 855.802 284.225 856.754 285.994C857.087 286.806 857.223 287.685 857.152 288.559C857.081 289.434 856.805 290.279 856.346 291.027C855.53 292.524 854.305 293.884 853.625 295.38C854.123 294.657 854.863 294.136 855.711 293.912C856.559 293.687 857.46 293.774 858.25 294.156C859.043 294.563 859.667 295.236 860.015 296.056C860.363 296.876 860.413 297.792 860.155 298.645C861.45 297.374 862.973 296.359 864.644 295.652C864.785 295.567 864.943 295.51 865.106 295.487C865.27 295.464 865.437 295.474 865.596 295.516C866.957 295.652 866.957 297.557 866.548 298.781C867.593 297.875 868.861 297.264 870.221 297.013C870.596 297.774 870.782 298.613 870.766 299.461C871.486 299.38 872.181 299.148 872.806 298.781C873.622 298.509 874.574 298.509 874.847 299.189C875.054 299.461 875.151 299.801 875.119 300.141C875.197 300.437 875.334 300.714 875.521 300.957C875.707 301.199 875.94 301.403 876.206 301.554C876.472 301.706 876.765 301.804 877.069 301.842C877.372 301.879 877.681 301.856 877.975 301.774C879.147 301.548 880.205 300.923 880.968 300.005C881.648 299.189 882.328 298.237 883.281 298.101C884.233 297.965 885.457 299.053 884.913 299.869C885.457 298.645 886.273 297.557 887.498 297.557C888.722 297.557 889.81 299.325 888.722 300.005L891.171 299.461C891.412 300.019 891.46 300.642 891.307 301.23C891.307 300.958 895.116 302.318 892.531 303.95C889.946 305.583 886.682 304.495 885.049 304.631C878.807 305.174 872.536 305.311 866.276 305.039C847.64 304.495 829.139 304.767 810.502 304.359C810.194 304.414 809.875 304.379 809.586 304.259C809.296 304.138 809.048 303.937 808.87 303.678C808.462 303.134 808.87 302.318 809.414 301.774C810.391 300.672 811.755 299.99 813.223 299.869C810.502 300.414 807.782 298.101 807.237 295.244C807.013 292.481 807.894 289.742 809.686 287.626C811.727 285.042 816.624 280.961 820.297 281.777C821.521 282.049 822.201 283.817 821.249 284.634C822.74 284.043 824.395 284.022 825.9 284.574C827.406 285.126 828.655 286.212 829.411 287.626C829.819 285.042 831.588 282.729 833.22 280.689C834.852 278.648 836.213 277.288 838.389 277.016L839.886 277.152Z" fill="#8EA565"/>
</g>
<path d="M731.466 309.665C729.697 309.529 727.384 308.576 727.929 306.944C728.107 306.576 728.375 306.259 728.708 306.021C729.04 305.784 729.427 305.633 729.833 305.584C731.989 304.907 734.277 304.767 736.499 305.175C734.96 302.903 734.013 300.283 733.745 297.552C733.476 294.82 733.895 292.066 734.963 289.538C736.031 287.01 737.714 284.789 739.86 283.077C742.005 281.365 744.544 280.217 747.246 279.737C751.735 278.921 756.904 280.417 759.489 284.09C758.568 280.495 758.633 276.718 759.675 273.156C760.717 269.594 762.698 266.378 765.411 263.846C768.125 261.314 771.469 259.559 775.095 258.764C778.72 257.97 782.492 258.166 786.015 259.332C790.368 260.692 794.313 263.821 795.674 268.038C796.49 265.725 797.442 263.277 799.483 262.053C801.523 260.828 805.196 262.189 804.924 264.501C805.019 264.035 805.224 263.599 805.522 263.228C805.819 262.857 806.2 262.563 806.634 262.369C807.068 262.175 807.542 262.087 808.017 262.112C808.492 262.138 808.954 262.276 809.364 262.516C809.775 262.755 810.122 263.089 810.378 263.49C810.634 263.89 810.791 264.346 810.836 264.819C810.88 265.293 810.812 265.77 810.635 266.211C810.459 266.653 810.18 267.046 809.821 267.358C812.27 267.358 813.902 270.215 813.766 272.663C813.399 275.077 812.362 277.339 810.774 279.193C812.406 277.969 814.991 279.193 815.671 281.233C815.906 282.239 815.918 283.283 815.707 284.294C815.495 285.304 815.065 286.256 814.447 287.083C813.252 288.805 812.205 290.625 811.318 292.524C813.096 290.212 815.505 288.463 818.255 287.491C819.599 286.982 821.063 286.878 822.466 287.192C823.868 287.506 825.148 288.225 826.145 289.259C829.138 292.796 827.098 298.374 823.969 301.775C825.465 300.822 827.642 299.734 829.41 300.414C831.179 301.094 832.675 303.135 830.363 304.087C833.55 303.928 836.738 304.39 839.749 305.448L840.565 305.856C841.245 306.808 840.157 308.032 839.069 308.576C840.336 308.413 841.624 308.549 842.829 308.975C844.034 309.4 845.122 310.102 846.006 311.025C832.053 312.611 817.988 312.975 803.972 312.113L805.876 310.073C781.118 308.984 756.224 311.705 731.466 309.665Z" fill="#608C53"/>
<g style="mix-blend-mode:multiply" opacity="0.3">
<path d="M731.466 309.665C729.697 309.529 727.384 308.577 727.929 306.944C728.107 306.576 728.375 306.259 728.708 306.022C729.04 305.784 729.427 305.634 729.833 305.584C731.989 304.907 734.277 304.767 736.499 305.176C735.41 305.04 734.322 300.551 734.186 299.598C734.023 297.497 734.206 295.382 734.73 293.341C735.004 292.372 735.596 291.523 736.41 290.931C737.224 290.339 738.213 290.038 739.219 290.076C741.26 290.212 742.62 292.116 743.709 293.885C743.337 292.477 743.491 290.983 744.142 289.681C744.793 288.379 745.897 287.358 747.246 286.811C748.664 286.393 750.169 286.361 751.604 286.72C753.039 287.079 754.352 287.815 755.408 288.852C756.861 290.529 758.138 292.353 759.217 294.293C759.792 295.244 760.562 296.064 761.477 296.697C762.391 297.33 763.429 297.762 764.522 297.966C763.978 294.157 763.57 290.348 763.162 286.539C762.753 282.73 762.481 280.826 763.706 278.377C764.93 275.928 768.467 274.296 770.643 276.064C770.272 274.246 770.617 272.354 771.605 270.783C772.593 269.212 774.149 268.083 775.949 267.63C778.125 267.222 780.438 267.902 782.75 267.766C783.611 267.698 784.475 267.698 785.335 267.766C787.376 268.038 788.736 270.079 789.144 272.119C789.274 274.194 788.997 276.273 788.328 278.241C789.656 276.912 791.291 275.93 793.089 275.384C793.967 275.069 794.915 275.003 795.828 275.196C796.741 275.388 797.582 275.83 798.258 276.472C800.435 278.785 799.347 282.458 798.122 285.315C799.07 284.668 800.132 284.207 801.251 283.954C801.829 283.845 802.427 283.917 802.963 284.161C803.498 284.404 803.946 284.807 804.244 285.315C804.588 286.236 804.588 287.25 804.244 288.171C803.793 290.19 803.012 292.121 801.931 293.885C803.604 292.068 805.872 290.91 808.325 290.62C808.884 290.563 809.447 290.657 809.957 290.892C811.046 291.572 810.91 293.069 810.774 294.157C810.485 296.465 809.984 298.742 809.277 300.959C810.806 297.769 813.406 295.218 816.623 293.749C818.255 293.069 820.568 292.797 821.248 294.565C821.396 295.027 821.424 295.52 821.329 295.996C821.233 296.472 821.018 296.916 820.704 297.286C819.691 299.35 818.411 301.271 816.895 302.999C817.881 302.357 818.995 301.939 820.16 301.775C820.557 301.64 820.987 301.64 821.384 301.775C822.2 302.047 822.473 303.407 822.064 304.223C821.605 305.093 820.894 305.804 820.024 306.264C820.938 306.203 821.825 305.923 822.609 305.448C823.043 305.264 823.513 305.181 823.984 305.204C824.456 305.228 824.915 305.357 825.329 305.584C826.146 305.992 826.282 307.488 825.465 307.76C828.73 307.76 832.403 307.624 834.716 310.753C830.19 311.959 825.523 312.553 820.84 312.522C815.127 312.658 809.549 312.522 803.972 312.113L805.876 310.073C781.118 308.985 756.224 311.705 731.466 309.665Z" fill="#608C53"/>
</g>
<path d="M635.969 69.6996C639.914 67.9312 643.995 65.7547 645.9 61.9457C647.804 58.1367 646.58 52.1512 644.539 47.6621C630.392 16.7823 574.481 5.4914 567.136 47.9341C556.6 45.6774 545.637 46.528 535.576 50.3828C529.318 52.8314 522.652 58.2727 524.013 64.8024C509.918 65.1935 495.91 67.1555 482.25 70.6519C480.482 71.06 478.033 72.4203 478.577 74.3248C479.121 76.2293 480.754 76.0933 482.114 76.2293C532.719 82.2148 587.813 90.785 635.969 69.6996Z" fill="white"/>
</svg>
