<svg width="977" height="383" viewBox="0 0 977 383" fill="none" xmlns="http://www.w3.org/2000/svg">
<path d="M196.499 101.101C211.353 96.2006 226.208 90.075 237.847 79.6615C241.369 76.5987 244.738 72.7702 245.044 68.176C245.35 63.5819 243.666 60.6722 241.675 57.4563C236.227 48.6912 228.622 41.47 219.586 36.483C210.551 31.4961 200.387 28.9101 190.067 28.9723C192.977 20.7028 187.77 11.6675 180.879 6.61391C162.502 -7.01551 130.802 1.25403 123.451 23.7656C120.236 19.4762 116.044 16.0158 111.223 13.672C106.403 11.3281 101.092 10.1685 95.733 10.2893C90.4033 10.5039 85.2027 11.9924 80.5666 14.6301C75.9306 17.2679 71.994 20.9781 69.0867 25.4501C33.7114 20.3965 -5.49231 25.6032 -31.3729 50.2587C-38.111 56.5374 -43.7772 64.1944 -46.3806 72.9234C-47.8403 77.28 -48.3496 81.8988 -47.8741 86.4688C-47.3987 91.0387 -45.9494 95.4538 -43.6241 99.4165C-36.5796 110.596 -22.3377 114.73 -9.32079 116.874C24.3699 122.541 60.5109 121.162 94.5079 119.325C128.505 117.487 163.574 111.974 196.499 101.101Z" fill="white"/>
<path d="M315.336 15.4967C313.509 16.7 311.769 18.0305 310.13 19.4784C305.382 23.7663 302.932 31.2701 306.607 36.63C308.461 38.9872 310.886 40.8321 313.652 41.9899C326.362 48.2686 340.911 50.1063 355.153 51.1783C378.889 52.8628 403.392 52.5565 425.75 44.4401C430.344 42.6024 435.857 38.9271 434.479 34.0266C433.101 29.1261 427.741 28.8199 423.453 28.6667L396.041 27.4416C400.482 24.3788 408.139 24.3788 408.905 19.0189C409.67 13.659 406.301 12.8934 403.238 11.6682C380.268 2.93928 338.154 0.948461 315.336 15.4967Z" fill="white"/>
<path d="M473.988 13.5042C463.575 11.5134 453.008 10.4414 442.748 13.6573C440.298 14.423 437.541 15.6481 436.929 18.0984C436.662 19.2976 436.803 20.5517 437.33 21.6614C437.857 22.7712 438.74 23.6731 439.838 24.2239C449.027 29.8901 466.331 29.1244 475.52 24.8365C478.429 23.4582 481.492 20.8549 480.726 17.7921C479.961 14.7293 476.745 13.9636 473.988 13.5042Z" fill="white"/>
<path d="M606.453 113.353C568.474 114.272 530.496 115.19 492.517 113.046C485.166 112.587 476.897 111.668 471.843 106.155C466.789 100.642 466.636 91.1475 470.312 84.2562C473.987 77.365 480.878 72.6176 487.923 69.0954C498.55 63.7744 510.196 60.7976 522.073 60.3665C530.342 60.0602 540.45 62.8167 541.981 70.78C555.764 64.9606 574.14 60.6727 584.248 71.8519C586.698 74.6085 588.382 78.1307 591.139 80.5809C593.895 83.0311 602.012 85.7876 607.984 86.5533L705.84 99.8765C713.804 100.948 723.145 102.939 726.361 110.29L606.453 113.353Z" fill="white"/>
<path d="M786.085 132.036C786.545 134.486 783.329 135.865 780.878 136.324C762.096 139.438 742.908 139.179 724.217 135.558C725.595 130.964 730.802 128.82 735.549 127.748C743.817 125.579 752.283 124.245 760.817 123.766C769.393 123.307 778.735 123.92 784.707 130.045C785.336 130.574 785.812 131.261 786.085 132.036Z" fill="white"/>
<path d="M868.321 256.538C838.153 256.998 807.984 256.079 778.122 255.926C728.199 255.773 678.428 255.313 628.505 257.151C614.557 257.376 600.663 258.915 587.004 261.745C586.742 261.733 586.482 261.782 586.242 261.889C586.003 261.995 585.792 262.156 585.626 262.358C584.554 263.583 586.544 265.114 588.076 265.421C602.624 269.555 617.785 271.087 632.18 275.987C643.359 279.816 646.269 288.545 633.252 292.373C607.525 300.03 580.419 301.408 553.466 302.174C533.099 302.633 512.425 303.246 492.057 302.633C412.272 300.183 332.026 300.949 252.087 302.48C242.746 302.787 233.098 302.94 224.676 306.921C232.194 310.466 240.191 312.891 248.412 314.119C253.313 314.885 262.348 314.732 264.492 320.704C265.717 324.379 262.96 328.055 260.051 330.352C250.403 338.468 237.999 341.99 227.126 348.269C219.928 352.251 210.893 359.295 218.703 367.105C226.513 374.915 244.89 372.159 255.15 372.771L314.262 376.6C300.02 375.681 283.481 379.969 268.933 380.275C251.016 380.735 233.098 380.582 215.181 380.582C169.545 380.735 123.91 380.275 78.1209 379.663C41.0611 379.203 4.00132 378.744 -33.0585 375.987C-42.0937 375.222 -51.5884 374.456 -59.5516 369.862C-63.0167 368.143 -65.7774 365.274 -67.3617 361.745C-69.3526 356.232 -66.4429 349.8 -62.0018 346.125C-57.5608 342.45 -51.5884 340.612 -45.9222 338.928L45.0427 311.975C37.8452 302.633 22.2249 305.849 11.8114 304.931C1.39795 304.012 -11.1595 302.94 -22.645 301.868C-34.1304 300.796 -45.3096 301.102 -55.8763 296.661C-56.7951 296.202 -58.0202 295.589 -58.0202 294.364C-58.0202 293.139 -57.1014 292.833 -56.3357 292.22C-45.3096 284.563 -29.9957 282.878 -16.9788 280.581C-1.20542 277.825 14.568 275.834 30.4945 274.15C33.1662 273.972 35.7975 273.405 38.3046 272.465C41.3674 271.087 42.5925 268.33 44.7365 266.033C47.5279 263.111 50.6648 260.54 54.078 258.376C77.6615 242.348 101.858 227.238 126.666 213.047C137.692 206.768 147.34 199.264 158.366 193.292C169.392 187.319 184.4 180.887 196.038 173.077L303.696 115.191C336.774 97.4264 367.249 77.8245 403.696 67.5642C414.109 64.6545 424.676 62.3574 435.396 62.3574C469.546 62.5106 496.805 82.1124 523.604 100.489C540.909 112.434 558.06 124.838 574.753 137.396C586.085 145.972 605.993 170.321 621.46 163.583L664.492 144.44C669.852 142.143 675.672 139.693 681.491 140.765C687.31 141.837 688.995 143.675 692.364 145.972C711.659 158.835 730.496 172.312 748.872 186.094C750.86 187.862 753.213 189.169 755.764 189.923C758.52 190.38 761.344 190.223 764.033 189.463C773.375 187.626 782.869 185.482 792.364 186.707C805.534 188.391 816.866 196.508 828.352 203.246C870.312 227.748 915.488 228.208 962.655 232.036C967.403 232.496 972.456 232.955 976.744 234.946C962.607 239.739 947.96 242.874 933.099 244.287L939.378 248.269C935.856 251.638 930.649 252.404 925.902 252.863C906.785 255.089 887.566 256.315 868.321 256.538Z" fill="#DDDB94"/>
<g style="mix-blend-mode:multiply" opacity="0.62">
<path d="M868.63 246.737C822.433 247.477 776.248 244.61 730.498 238.161C733.867 236.783 736.317 242.449 734.02 245.205C731.723 247.962 727.435 247.962 723.913 247.656C675.367 245.052 625.444 238.467 577.205 244.287C585.006 244.435 592.704 246.1 599.87 249.187C587.97 254.409 575.185 257.319 562.197 257.763C563.235 257.866 564.238 258.193 565.137 258.722C566.036 259.25 566.81 259.968 567.404 260.826C565.719 263.429 562.197 264.195 559.134 264.654L540.451 267.411L570.16 275.221C571.539 275.68 573.376 276.293 573.683 277.824C573.989 279.356 571.998 281.346 570.007 281.959C566.784 282.928 563.409 283.291 560.053 283.031C562.197 283.337 565.26 285.022 564.188 287.013C563.604 287.724 562.793 288.211 561.891 288.391C525.444 298.498 487.312 298.957 449.793 297.732C432.182 297.273 414.111 295.282 396.194 294.67C378.277 294.057 357.45 293.444 338.001 293.751C295.122 294.21 252.549 298.957 209.517 297.579C210.589 299.876 206.76 301.408 204.157 301.255L156.377 300.183C138 299.723 118.245 299.57 102.625 309.677C100.175 311.209 97.7247 314.731 100.022 316.569C102.319 318.406 104.769 318.253 103.85 319.784C93.4368 322.388 83.1765 325.297 72.9161 328.667C77.5265 331.775 82.8461 333.671 88.3832 334.18C67.8625 336.017 46.5761 338.008 27.8931 346.89C24.9834 348.422 21.6144 350.566 21.4612 353.781C21.3081 356.997 25.2897 360.366 28.9651 361.898C48.2607 370.014 67.4031 371.239 87.9238 373.69C108.445 376.14 131.722 378.284 153.621 380.121C143.207 380.428 133.253 380.275 122.687 380.275L78.7354 379.662C41.5225 379.203 4.46272 378.743 -32.4439 375.987C-41.6323 375.221 -51.127 374.455 -59.0902 369.861C-62.5553 368.142 -65.316 365.273 -66.9003 361.745C-68.8912 356.232 -65.9815 349.8 -61.3873 346.124C-56.7931 342.449 -51.127 340.611 -45.4608 338.927L45.5041 311.974C38.3066 302.633 22.6863 305.849 12.2729 304.93C1.85935 304.011 -10.6981 302.939 -22.1836 301.867C-33.669 300.795 -44.8482 301.101 -55.2617 296.66C-56.3337 296.201 -57.4057 295.588 -57.5588 294.363C-57.712 293.138 -56.64 292.832 -55.8743 292.219C-44.6951 284.562 -29.5343 282.878 -16.5174 280.581C-0.744026 277.824 15.0294 275.833 30.9559 274.149C33.6753 273.957 36.3551 273.39 38.9191 272.464C41.8288 271.086 43.0539 268.33 45.1979 266.032C47.9893 263.11 51.1262 260.539 54.5394 258.375C78.1229 242.296 102.472 227.135 127.281 213.046C138.154 206.767 147.801 199.264 158.981 193.291C170.16 187.319 184.861 180.887 196.5 173.077L304.31 115.19C323.606 104.776 342.595 93.4441 362.35 83.7963C382.105 74.1485 404.004 62.8162 424.831 68.1761C426.362 68.4823 428.2 69.4012 428.2 70.9326C428.2 72.464 427.587 72.7703 426.975 73.536C426.362 74.3017 422.074 79.2021 419.471 81.9586C428.808 79.7173 438.511 79.4565 447.955 81.1929C451.011 81.584 453.886 82.8618 456.225 84.8683C461.278 90.3813 457.297 98.804 456.531 106.155C455.153 120.55 467.098 132.495 478.889 140.764C500.023 155.619 524.065 166.645 549.487 170.933C591.906 178.13 627.282 161.132 664.954 144.44C667.864 143.214 677.052 138.161 679.808 141.53C682.565 144.899 675.521 154.087 672.764 156.997C675.271 155.865 677.978 155.24 680.727 155.159C683.484 155.312 686.393 156.997 687.006 159.6C687.214 161.573 686.952 163.568 686.24 165.42C683.79 176.293 692.519 187.166 702.933 191.147C713.346 195.129 724.832 193.751 736.011 192.372C749.487 190.841 762.81 188.544 776.44 187.472C779.656 187.166 788.078 185.022 790.222 188.084C792.366 191.147 788.691 199.11 785.015 200.948C807.068 200.795 820.084 226.829 841.064 233.873C858.829 239.846 881.953 232.189 894.663 245.971C885.934 246.431 877.359 246.737 868.63 246.737Z" fill="#DDDB94"/>
</g>
<path d="M101.247 104.317C97.419 104.93 94.6625 108.299 92.2122 111.362C92.8678 109.817 92.9504 108.089 92.445 106.489C91.9397 104.888 90.8796 103.521 89.4557 102.633C87.9895 101.816 86.2841 101.538 84.6342 101.845C82.9844 102.153 81.4939 103.027 80.4205 104.317C82.8707 97.4262 80.8799 88.5441 74.6012 84.7156C68.3224 80.8871 58.2152 84.2562 56.837 91.4538C54.693 83.4905 46.1172 78.7432 37.8477 77.8243C30.637 76.9786 23.338 78.3056 16.8865 81.6353C10.4349 84.9649 5.12476 90.1454 1.63672 96.5128C-1.85131 102.88 -3.35828 110.144 -2.69099 117.373C-2.02369 124.603 0.787443 131.468 5.38206 137.089C-1.66236 133.261 -11.0039 135.252 -17.1295 140.612C-23.2551 145.971 -26.471 153.935 -27.3898 162.051C-28.4618 172.465 -25.8584 183.797 -18.5077 191.301C-11.157 198.805 1.24729 201.867 10.5888 196.661C7.21974 201.255 11.2014 208.146 16.5612 209.678C21.9211 211.209 27.7404 209.371 32.9472 207.534C34.1723 215.344 42.4418 220.704 50.252 220.397C58.0621 220.091 65.2597 214.731 69.5476 208.146C71.8447 212.74 77.5108 215.037 82.7176 214.272C87.9243 213.506 92.2122 210.137 95.4282 206.155C103.238 196.814 104.923 183.797 105.229 171.546C105.535 159.295 104.617 146.89 108.139 135.099C109.976 128.973 113.039 123.001 112.886 116.722C112.733 110.443 107.526 103.246 101.247 104.317Z" fill="#8EA565"/>
<g style="mix-blend-mode:multiply" opacity="0.31">
<path d="M111.659 132.188C112.338 130.009 112.649 127.731 112.578 125.45C112.425 120.856 109.975 116.262 105.687 114.883C101.399 113.505 96.0392 116.721 96.4986 121.162C96.9581 118.712 93.589 116.874 91.2919 117.946C88.9948 119.018 87.7697 121.315 86.8509 123.765C85.792 126.887 85.1233 130.127 84.86 133.413C83.3177 131.714 82.2137 129.664 81.6441 127.441C81.0742 125.242 79.7103 123.333 77.8156 122.081C75.8248 121.009 72.6089 121.928 72.4557 124.225C73.8575 121.477 74.8383 118.535 75.3654 115.496C75.6402 113.974 75.5622 112.41 75.1374 110.923C74.7126 109.436 73.9523 108.067 72.9151 106.92C70.618 104.776 66.7896 104.163 64.4925 106.307C65.7176 104.01 63.1142 100.948 60.5108 101.101C57.9075 101.254 55.6104 103.091 54.079 105.235C52.3188 107.745 51.0971 110.591 50.4909 113.596C49.8848 116.6 49.9072 119.698 50.5568 122.693C42.8998 115.343 40.6027 104.163 38.6119 93.75C38.6359 93.108 38.51 92.4694 38.2441 91.8845C37.9783 91.2997 37.5799 90.7849 37.0805 90.3809C36.4817 90.1657 35.8436 90.0816 35.2095 90.1345C34.5754 90.1873 33.96 90.3758 33.4051 90.6872C29.4869 91.8776 25.8792 93.9167 22.8385 96.6596C19.9288 99.5693 18.0912 103.857 19.3163 107.839C18.0851 107.488 16.7727 107.553 15.5822 108.024C14.3918 108.494 13.3897 109.344 12.7313 110.442C11.4283 112.666 10.7906 115.217 10.8936 117.793C10.8376 124.375 12.5576 130.85 15.8726 136.537C19.1875 142.223 23.9747 146.911 29.7298 150.105C24.2168 153.934 16.4066 152.556 10.4342 149.187C8.74964 148.268 7.0651 147.043 5.07429 147.349C3.08347 147.655 1.70522 150.412 3.38975 151.484C1.85836 148.88 -2.58269 149.493 -4.26723 151.943C-5.95176 154.393 -5.33921 157.915 -4.11409 160.825C-2.88897 163.735 -1.05129 166.032 -0.13245 168.942C-3.73911 167.546 -6.94716 165.284 -9.47398 162.357C-11.3117 160.366 -12.843 157.303 -15.2933 156.231C-17.7435 155.159 -19.8875 156.997 -21.2657 158.987C-28.9227 169.248 -27.085 182.418 -18.5092 191.3C-9.93339 200.182 1.24581 201.867 10.5873 196.66C7.21825 201.254 11.1999 208.145 16.5598 209.677C21.9196 211.208 27.739 209.37 32.9457 207.533C34.1708 215.343 42.4404 220.703 50.2505 220.396C58.0606 220.09 65.2582 214.73 69.5461 208.145C71.8432 212.739 77.5093 215.037 82.7161 214.271C87.9228 213.505 92.2107 210.136 95.4267 206.154C103.237 196.813 104.921 183.796 105.228 171.545C105.534 159.294 105.228 149.493 109.516 138.314C110.39 136.331 111.106 134.283 111.659 132.188Z" fill="#8EA565"/>
</g>
<g style="mix-blend-mode:multiply" opacity="0.31">
<path d="M102.166 145.818C101.028 145.812 99.9123 146.13 98.9498 146.737C97.4955 147.832 96.2505 149.181 95.2744 150.718C93.743 148.268 89.7614 149.034 87.7706 151.025C85.7797 153.015 84.4015 155.925 82.2575 157.763C81.9751 158.109 81.6265 158.396 81.2321 158.606C80.8377 158.816 80.4055 158.946 79.9604 158.988C79.1556 158.85 78.4096 158.477 77.8165 157.916C74.7537 154.7 74.1411 148.881 70.0064 147.656C65.8716 146.43 62.962 149.646 60.3586 152.556C59.2866 149.34 57.7552 146.124 54.9987 144.286C52.2422 142.449 46.8823 142.449 43.0538 143.674C29.2712 148.421 20.5423 164.348 24.0645 178.437C20.3891 175.221 15.9481 171.698 11.0476 172.617C9.32289 172.902 7.71516 173.673 6.41314 174.839C5.11113 176.006 4.16885 177.519 3.69691 179.202C3.19996 180.863 3.06583 182.612 3.30363 184.329C3.54142 186.047 4.14557 187.693 5.07516 189.156C0.791859 187.935 -3.64079 187.316 -8.09485 187.319C-8.66757 187.243 -9.25008 187.316 -9.78644 187.531C-10.3228 187.745 -10.795 188.094 -11.1576 188.544C-11.3343 188.87 -11.4394 189.229 -11.4658 189.599C-11.4922 189.969 -11.4394 190.34 -11.3108 190.688C-10.7383 192.617 -9.67554 194.364 -8.22618 195.76C-6.77683 197.156 -4.9904 198.152 -3.04123 198.651C0.0215578 199.417 8.44424 199.417 10.5882 196.507C7.21912 200.948 11.2007 207.839 16.5606 209.524C21.9205 211.208 27.7398 209.218 32.9466 207.38C34.1717 215.037 42.4412 220.55 50.2514 220.091C58.0615 219.631 65.259 214.578 69.547 207.993C71.844 212.587 77.5102 214.731 82.7169 213.965C87.7903 212.968 92.3167 210.132 95.4275 206.002C106.454 192.679 107.372 168.483 106.3 151.943C106.147 149.953 105.841 147.656 104.156 146.43C103.553 146.066 102.87 145.855 102.166 145.818Z" fill="#8EA565"/>
</g>
<path d="M93.1324 211.056C87.4663 211.669 80.2687 217.794 81.1875 218.407C75.3682 214.425 66.9456 215.957 61.7388 220.857C56.5321 225.758 54.5413 233.108 54.8475 240C52.5504 235.712 45.3529 236.937 42.4432 240.918C39.5336 244.9 39.8399 250.413 40.1461 255.467C37.5428 250.26 36.1645 244.441 33.5611 239.081C30.9578 233.721 26.9761 228.82 21.31 227.595C15.6438 226.37 8.59937 230.505 8.90564 236.324C9.21192 231.117 3.08634 226.983 -1.96727 228.055C-7.02088 229.127 -10.6962 234.333 -11.4619 239.54C-12.2276 244.747 -10.2368 250.107 -7.78657 254.701C-9.77738 252.557 -13.1465 251.026 -15.903 252.098C-18.6595 253.17 -19.4252 257.917 -16.6687 259.142C-18.8721 258.291 -21.3039 258.239 -23.5419 258.994C-25.7799 259.749 -27.6827 261.265 -28.9198 263.277C-30.0694 265.307 -30.4692 267.677 -30.0494 269.972C-29.6295 272.267 -28.4167 274.342 -26.6227 275.834C-29.5324 273.537 -35.3517 276.6 -34.8923 280.428C-34.4329 284.257 -23.4068 282.726 -20.0377 282.572L20.0848 280.582C47.4968 279.51 74.9088 278.897 102.474 278.897C101.708 260.673 104.005 241.837 102.627 223.767C102.321 218.713 101.861 214.425 96.6546 211.669C95.5595 211.144 94.3405 210.932 93.1324 211.056Z" fill="#608C53"/>
<g style="mix-blend-mode:multiply" opacity="0.48">
<path d="M92.2098 221.775H91.5972C90.1746 221.911 88.8183 222.441 87.6817 223.307C86.545 224.173 85.6734 225.34 85.1654 226.676C84.2658 229.387 83.9017 232.248 84.0934 235.099C83.9559 231.826 83.065 228.629 81.49 225.757C81.0306 224.838 80.2649 223.919 79.1929 224.072C78.1209 224.226 78.1209 224.685 77.8146 225.144C76.1515 227.218 75.3313 229.843 75.5175 232.495L71.8422 226.523C71.3828 225.91 70.9234 224.991 70.1577 224.685C69.392 224.379 66.6355 225.91 65.8698 227.595C64.4243 230.586 63.6103 233.843 63.4785 237.163C63.3468 240.483 63.9001 243.794 65.1041 246.89C61.8881 246.584 59.7442 242.143 56.3751 242.756C53.006 243.368 53.006 245.512 52.2403 247.656C51.4222 250.647 51.0608 253.745 51.1684 256.844C48.4119 255.772 47.3399 251.484 44.4302 251.791C41.5206 252.097 41.5206 254.241 41.2143 256.232C40.552 260.234 40.5004 264.313 41.0611 268.33C39.0703 267.564 37.8452 265.573 36.6201 263.736C35.6316 261.796 33.9302 260.314 31.8728 259.601C29.882 259.141 27.2786 261.132 28.0443 263.276C28.3157 256.617 27.3286 249.967 25.1346 243.674C24.2974 244.046 23.581 244.644 23.0667 245.402C22.5524 246.16 22.2608 247.047 22.225 247.962C22.3701 244.32 21.3509 240.726 19.3153 237.702C17.9371 236.017 16.0994 234.333 13.9554 234.792C13.2463 235.026 12.5939 235.406 12.04 235.907C11.4862 236.408 11.0433 237.02 10.7395 237.702C8.59555 241.99 9.97381 247.197 11.3521 251.791C10.2801 250.106 9.20811 248.422 7.98299 246.737L7.21729 245.818C6.72968 245.67 6.2038 245.715 5.74796 245.942C5.29212 246.17 4.94104 246.564 4.76706 247.043C4.5675 248.072 4.67398 249.137 5.07333 250.106C4.44584 247.073 3.41579 244.137 2.01054 241.377C0.938564 239.233 -0.899111 236.936 -3.34935 237.396C-5.79958 237.855 -6.56527 239.846 -7.02469 241.837C-9.0155 249.494 -5.95271 257.457 -3.04306 264.654L-7.48411 261.898C-8.03567 261.516 -8.66199 261.255 -9.32178 261.132C-9.86088 261.271 -10.3366 261.59 -10.6706 262.035C-11.0047 262.48 -11.1771 263.026 -11.1595 263.583C-10.9537 264.7 -10.4808 265.75 -9.7812 266.645C-12.9971 263.736 -18.0507 261.285 -21.4198 264.042C-22.5166 264.945 -23.2998 266.172 -23.6573 267.547C-24.0149 268.923 -23.9285 270.376 -23.4106 271.699C-22.4641 274.375 -20.8262 276.752 -18.6633 278.59C-21.4703 278.412 -24.2873 278.463 -27.086 278.743C-27.7535 278.839 -28.3858 279.102 -28.9237 279.509C-29.0559 279.727 -29.1412 279.971 -29.1741 280.224C-29.207 280.477 -29.1868 280.735 -29.1148 280.98C-29.0427 281.224 -28.9205 281.452 -28.7557 281.647C-28.591 281.842 -28.3874 282 -28.158 282.112C-25.7077 283.797 -22.6449 282.725 -20.0416 282.572C-14.988 282.266 -9.78121 279.968 -5.03388 280.122C-6.71841 279.509 -8.55609 278.896 -9.16864 277.212C-9.28284 276.445 -9.15179 275.662 -8.79424 274.975C-8.43669 274.287 -7.87094 273.73 -7.17784 273.383C-5.72831 272.891 -4.14897 272.946 -2.73678 273.537C-3.50248 272.465 -2.43051 270.78 -1.05225 270.474C0.291084 270.339 1.64062 270.662 2.77624 271.393C-1.05225 262.204 15.0274 259.448 15.64 268.636C15.4362 267.252 15.5408 265.84 15.9463 264.501C16.1484 263.856 16.5585 263.296 17.1126 262.908C17.6666 262.52 18.3335 262.326 19.009 262.357C19.6321 262.513 20.2081 262.817 20.6881 263.244C21.1681 263.671 21.5378 264.207 21.7656 264.808C23.1432 267.07 23.8839 269.663 23.9095 272.311C24.2158 270.321 27.2786 269.708 28.9631 270.933C30.3929 272.369 31.3997 274.17 31.8728 276.14C32.179 276.753 32.3322 277.365 32.9448 277.518C33.5573 277.671 35.2418 276.599 36.467 275.681C40.6017 272.618 47.0336 280.734 51.0152 277.365C52.5466 276.14 53.3123 273.383 55.3031 273.69C57.2939 273.996 57.2939 276.14 57.1408 277.671C57.9065 276.293 60.2036 276.753 61.735 277.212C67.4012 279.203 73.3736 278.743 79.1929 279.05C85.0122 279.356 94.66 278.896 102.47 278.896C102.93 278.896 102.47 229.586 101.858 224.685C101.871 224.091 101.712 223.506 101.398 223.001C100.632 221.775 98.6416 222.082 97.7228 223.307C96.9309 224.484 96.5046 225.869 96.4977 227.288C97.1102 224.838 94.8132 222.082 92.2098 221.775Z" fill="#608C53"/>
</g>
<path d="M396.193 373.23L423.299 367.105C416.255 368.789 406.454 367.87 399.256 367.258C392.058 366.645 383.636 366.798 375.826 366.798C358.98 366.645 342.135 366.492 325.29 366.033C308.444 365.573 290.067 364.961 272.456 364.501C254.845 364.042 239.378 363.889 223.145 360.979C221.63 360.841 220.191 360.254 219.011 359.295C212.732 353.475 240.297 342.909 243.972 340.918C245.339 340.344 246.509 339.387 247.342 338.161C253.314 327.288 203.85 324.685 197.418 324.379C177.816 323.766 157.602 324.379 138.306 320.397C134.937 319.785 130.802 317.947 130.955 314.578C131.153 313.555 131.57 312.587 132.178 311.741C132.786 310.894 133.571 310.191 134.478 309.677C144.279 302.327 158.214 299.57 169.7 295.435L190.22 287.931C195.58 285.941 202.778 281.653 208.444 281.193C204.309 281.5 200.175 281.653 195.887 281.653C177.663 281.806 157.908 279.509 139.991 284.103C120.824 289.038 101.956 295.071 83.4821 302.173C79.5315 303.47 75.8104 305.383 72.4561 307.84C69.2401 310.596 66.7899 314.425 67.0962 318.559C67.2815 321.206 68.3001 323.725 70.0058 325.757C74.1406 330.657 80.5725 332.801 86.8512 334.333C105.534 339.08 124.83 340.765 143.972 341.377L173.375 341.837C181.645 341.99 189.455 341.377 197.724 342.602C199.409 342.755 201.4 343.674 201.093 345.206C200.864 345.878 200.437 346.465 199.868 346.89C196.048 349.586 192 351.943 187.77 353.935L175.978 360.213C174.018 361.011 172.358 362.404 171.231 364.195C165.718 376.14 211.507 378.437 217.326 378.896C248.72 381.959 280.267 381.653 311.813 382.419C351.783 383.491 391.752 383.184 431.569 379.05C441.523 377.978 451.477 376.752 461.278 375.221L396.193 373.23Z" fill="#EAEAD0"/>
<path d="M765.108 212.433C768.783 211.821 773.071 212.433 775.215 215.496C775.735 216.667 776.35 217.794 777.052 218.865C780.881 223.459 789.304 218.253 794.051 221.928C790.376 225.144 785.016 225.297 780.115 225.144L673.071 223.459C671.677 223.631 670.267 223.305 669.089 222.541C667.864 221.622 667.558 219.631 668.783 219.018C627.741 218.1 586.394 228.972 545.659 223.613C543.38 223.505 541.189 222.704 539.38 221.315C537.695 219.937 537.083 216.874 538.614 215.343C511.661 217.181 484.556 218.253 457.45 219.018C447.496 219.325 432.948 222.847 425.138 215.649C417.327 208.452 415.949 199.416 415.949 189.922C416.102 171.545 425.291 152.403 444.433 147.349C457.909 143.674 474.908 152.556 475.367 166.645C480.165 161.722 486.191 158.17 492.822 156.356C499.453 154.542 506.448 154.533 513.084 156.328C519.719 158.124 525.755 161.659 530.567 166.569C535.378 171.479 538.791 177.585 540.452 184.256C544.74 178.436 555.919 181.346 556.685 188.544C562.657 183.337 572.764 185.021 578.124 190.841C583.484 196.66 584.709 205.542 582.718 213.199C587.006 209.064 595.429 210.902 597.573 216.568C601.095 211.668 605.077 206.92 610.437 204.47C615.796 202.02 622.841 202.02 627.129 206.308C632.335 197.426 638.308 188.85 646.424 182.571C654.541 176.292 665.414 173.076 675.368 175.68C682.412 177.671 696.807 186.859 693.438 196.354C694.221 194.362 695.674 192.707 697.548 191.672C699.421 190.638 701.596 190.29 703.699 190.688C705.788 191.215 707.63 192.448 708.914 194.179C710.198 195.909 710.844 198.03 710.743 200.182C710.902 199.561 711.184 198.979 711.574 198.471C711.963 197.962 712.452 197.538 713.01 197.223C713.568 196.908 714.184 196.709 714.821 196.639C715.458 196.569 716.102 196.628 716.715 196.813C717.925 197.232 718.922 198.107 719.495 199.252C720.067 200.397 720.169 201.72 719.778 202.939C725.138 199.723 731.264 197.426 737.236 198.191C743.209 198.957 749.181 204.011 749.334 210.289C749.334 211.821 749.181 213.812 750.406 214.884C751.285 215.394 752.305 215.609 753.316 215.496C757.297 215.037 760.82 213.352 764.648 212.587L765.108 212.433Z" fill="#327770"/>
<g style="mix-blend-mode:multiply" opacity="0.34">
<path d="M739.38 224.531L717.481 224.224L673.071 223.459C671.677 223.63 670.267 223.305 669.089 222.54C667.864 221.621 667.558 219.63 668.783 219.018C627.741 218.099 586.394 228.972 545.658 223.612C543.38 223.505 541.189 222.703 539.38 221.315C537.695 219.937 537.083 216.874 538.614 215.342C511.661 217.18 484.556 218.252 457.45 219.018C447.496 219.324 432.948 222.846 425.138 215.649C417.327 208.451 415.949 199.416 415.949 189.921C415.949 180.426 419.318 167.41 426.363 158.834C433.407 150.258 444.893 142.754 453.009 151.789C456.991 156.23 457.756 162.662 457.297 168.635C456.837 174.607 455.306 180.426 455.612 186.399C456.625 184.8 458.122 183.566 459.885 182.877C461.648 182.189 463.585 182.081 465.413 182.57C467.236 183.118 468.839 184.227 469.994 185.74C471.149 187.252 471.797 189.091 471.845 190.993C474.449 183.03 479.196 175.22 486.547 171.544C493.897 167.869 504.617 169.554 508.752 176.751C512.887 183.949 510.896 187.93 510.13 193.75C511.614 191.59 513.809 190.02 516.332 189.314C518.855 188.608 521.546 188.811 523.935 189.887C526.324 190.963 528.259 192.844 529.403 195.201C530.546 197.558 530.825 200.243 530.191 202.785C532.795 201.253 534.326 198.65 536.164 196.2C538.001 193.75 540.299 191.606 543.208 191.606C546.118 191.606 549.028 194.975 547.496 197.425L552.55 194.822C553.249 195.381 553.827 196.076 554.248 196.866C554.67 197.656 554.925 198.524 555 199.416C557.297 196.659 560.666 194.209 564.188 194.515C567.711 194.822 570.62 200.028 567.864 202.479C571.692 202.019 573.377 208.757 569.855 210.136C573.224 207.226 579.655 211.667 577.971 215.802C578.277 213.658 581.493 213.045 583.331 214.117C585.168 215.189 586.7 217.18 588.691 218.099C590.682 219.018 597.879 217.946 601.248 214.73C604.617 211.514 607.833 207.685 612.274 206.307C616.715 204.929 622.841 208.145 621.922 212.739C622.633 211.757 623.534 210.927 624.572 210.301C625.61 209.674 626.764 209.263 627.964 209.091C629.164 208.92 630.387 208.992 631.559 209.303C632.731 209.614 633.828 210.157 634.786 210.901C636.777 205.848 638.767 200.641 642.749 196.966C646.731 193.29 653.163 191.606 657.45 194.822C659.135 188.696 664.954 183.336 671.233 184.255C677.512 185.174 681.493 194.056 676.746 198.344C677.359 195.587 681.953 196.047 683.331 198.497C684.709 200.947 683.79 204.01 682.872 206.766C683.79 202.632 691.141 202.785 691.907 206.92C692.673 204.316 694.051 201.407 696.501 200.488C698.951 199.569 702.78 201.56 702.014 204.163C701.401 201.866 705.23 200.488 707.068 202.172C708.905 203.857 708.905 206.613 708.905 208.91C707.374 206.307 711.968 203.397 714.418 205.235C716.869 207.073 716.869 210.901 715.49 213.658C718.4 209.982 721.769 206.001 726.516 205.541C731.264 205.082 735.705 211.667 732.029 214.73C734.173 213.045 736.777 211.514 739.38 212.28C741.983 213.045 741.677 217.333 739.84 219.324C740.416 218.705 741.139 218.24 741.941 217.972C742.744 217.705 743.601 217.643 744.434 217.793C745.252 217.96 746.015 218.327 746.657 218.861C747.298 219.396 747.797 220.081 748.109 220.855C748.877 219.883 749.81 219.054 750.866 218.405C751.386 218.136 751.964 217.996 752.55 217.996C753.136 217.996 753.714 218.136 754.235 218.405C754.694 218.711 755 219.018 755.46 219.018C755.919 219.018 756.838 218.405 757.297 217.793C758.12 216.8 759.149 215.998 760.312 215.442C761.476 214.887 762.746 214.591 764.036 214.577C766.639 214.883 769.089 217.333 768.477 219.937C769.179 219.456 769.955 219.094 770.774 218.865C771.216 218.814 771.662 218.926 772.028 219.179C772.394 219.433 772.656 219.811 772.765 220.243C772.765 220.855 772.458 221.621 772.918 222.08C772.978 222.187 773.068 222.273 773.177 222.327C773.286 222.382 773.409 222.403 773.53 222.387L779.196 223.612C779.043 224.684 777.818 224.837 776.746 224.837C764.342 224.531 751.938 224.684 739.38 224.531Z" fill="#34585B"/>
</g>
<path d="M94.815 260.213H28.1992V268.482H32.1808V280.887H94.815V260.213Z" fill="#48678C"/>
<g style="mix-blend-mode:multiply" opacity="0.67">
<path d="M94.6606 268.482H32.1797V275.649H94.6606V268.482Z" fill="#38485E"/>
</g>
<path d="M28.1992 260.212L94.815 239.998V260.212H28.1992Z" fill="#5D90BA"/>
<path d="M94.8139 177.978H31.1078V169.861H27.2793V164.195H94.8139V177.978Z" fill="#48678C"/>
<g style="mix-blend-mode:multiply" opacity="0.67">
<path d="M94.8116 169.861H31.1055V177.947H94.8116V169.861Z" fill="#38485E"/>
</g>
<path d="M27.2793 164.195L94.8139 146.125V164.195H27.2793Z" fill="#C6C5B5"/>
<path d="M44.8898 177.977H37.5391V260.182H44.8898V177.977Z" fill="white"/>
<path d="M73.0683 177.977H65.5645V260.182H73.0683V177.977Z" fill="white"/>
<path d="M48.106 177.977H34.4766V181.652H48.106V177.977Z" fill="#38485E"/>
<path d="M75.9771 177.977H62.3477V181.652H75.9771V177.977Z" fill="#38485E"/>
<path d="M92.9777 285.635V165.574H80.7266L160.053 17.3346L273.223 11.209L351.937 126.217H438.154V219.938L371.386 282.572L246.424 282.726L246.27 285.635H92.9777Z" fill="white"/>
<path d="M160.055 17.3346L259.442 164.195L351.939 126.217L273.225 11.209L160.055 17.3346Z" fill="#38485E"/>
<g style="mix-blend-mode:multiply" opacity="0.17">
<path d="M346.115 119.324C346.578 120.427 347.197 121.458 347.953 122.387C350.709 125.756 352.241 125.449 348.718 127.593C345.196 129.737 344.89 129.125 343.205 129.89L326.207 136.782L259.438 164.194L160.51 17.9453C160.969 18.5579 177.815 18.0985 180.112 18.2516C187.109 18.3472 194.061 19.3773 200.785 21.3144C214.091 24.9662 226.259 31.9194 236.161 41.5288C236.677 42.0298 237.308 42.3976 237.998 42.6008C238.614 42.7002 239.245 42.6477 239.836 42.4477C248.322 40.297 257.207 40.276 265.703 42.3866C274.199 44.4972 282.042 48.6739 288.534 54.5457C295.273 60.6713 300.173 68.4814 304.92 75.9852C306.04 75.1736 307.361 74.6869 308.739 74.5788C310.117 74.4707 311.499 74.7455 312.731 75.3727C315.079 76.775 317.154 78.5909 318.856 80.7326C324.482 87.2051 329.651 94.0619 334.323 101.253C336.467 104.622 338.305 108.451 340.755 111.82C343.205 115.189 344.737 116.261 346.115 119.324Z" fill="#38485E"/>
</g>
<path d="M259.441 164.195H371.08L438.155 126.217H351.938L259.441 164.195Z" fill="#C6C5B5"/>
<path d="M371.078 164.195V282.572L438.153 219.938V126.217L371.078 164.195Z" fill="#C6C5B5"/>
<path opacity="0.38" d="M438.153 126.217V134.793L371.078 174.609V164.195L438.153 126.217Z" fill="#5D90BA"/>
<path d="M221.613 62.2037V67.4104L278.581 157.916L280.725 156.997L280.878 59.6003L332.486 135.864L335.243 134.639L281.797 57.1501L283.788 51.1776L221.613 62.2037Z" fill="#48678C"/>
<path d="M221.613 62.2037V67.4104L281.797 57.1501L283.788 51.1776L221.613 62.2037Z" fill="#5D90BA"/>
<g style="mix-blend-mode:multiply" opacity="0.67">
<path d="M329.423 135.557L280.725 135.863L280.878 155.465L329.423 135.557Z" fill="#38485E"/>
</g>
<g style="mix-blend-mode:multiply" opacity="0.34">
<path d="M280.879 151.943H286.851" stroke="#38485E" stroke-width="0.96" stroke-miterlimit="10"/>
</g>
<g style="mix-blend-mode:multiply" opacity="0.34">
<path d="M280.725 148.422H296.498" stroke="#38485E" stroke-width="0.96" stroke-miterlimit="10"/>
</g>
<g style="mix-blend-mode:multiply" opacity="0.34">
<path d="M280.879 145.205H303.39" stroke="#38485E" stroke-width="0.96" stroke-miterlimit="10"/>
</g>
<g style="mix-blend-mode:multiply" opacity="0.34">
<path d="M280.879 141.99H310.435" stroke="#38485E" stroke-width="0.96" stroke-miterlimit="10"/>
</g>
<path d="M280.879 138.467H325.902" stroke="black" stroke-width="0.96" stroke-miterlimit="10"/>
<g style="mix-blend-mode:multiply" opacity="0.32">
<path d="M280.878 59.5996L280.725 135.863H332.486L280.878 59.5996Z" fill="#48678C"/>
</g>
<g style="mix-blend-mode:multiply" opacity="0.34">
<path d="M283.787 135.863V63.7344" stroke="#38485E" stroke-width="0.96" stroke-miterlimit="10"/>
</g>
<g style="mix-blend-mode:multiply" opacity="0.34">
<path d="M287.924 135.864V70.0137" stroke="#38485E" stroke-width="0.96" stroke-miterlimit="10"/>
</g>
<g style="mix-blend-mode:multiply" opacity="0.34">
<path d="M292.824 135.865V77.3652" stroke="#38485E" stroke-width="0.96" stroke-miterlimit="10"/>
</g>
<g style="mix-blend-mode:multiply" opacity="0.34">
<path d="M297.727 135.863V84.4082" stroke="#38485E" stroke-width="0.96" stroke-miterlimit="10"/>
</g>
<g style="mix-blend-mode:multiply" opacity="0.34">
<path d="M303.391 135.864V92.832" stroke="#38485E" stroke-width="0.96" stroke-miterlimit="10"/>
</g>
<g style="mix-blend-mode:multiply" opacity="0.34">
<path d="M309.516 135.864V101.867" stroke="#38485E" stroke-width="0.96" stroke-miterlimit="10"/>
</g>
<g style="mix-blend-mode:multiply" opacity="0.34">
<path d="M315.336 135.864V110.137" stroke="#38485E" stroke-width="0.96" stroke-miterlimit="10"/>
</g>
<g style="mix-blend-mode:multiply" opacity="0.34">
<path d="M321.461 135.864V119.479" stroke="#38485E" stroke-width="0.96" stroke-miterlimit="10"/>
</g>
<g style="mix-blend-mode:multiply" opacity="0.34">
<path d="M327.434 135.864V127.748" stroke="#38485E" stroke-width="0.96" stroke-miterlimit="10"/>
</g>
<path d="M278.582 157.916V57.6098L281.798 57.1504L335.244 134.639L332.487 135.864L280.879 59.6006L280.726 156.997L278.582 157.916Z" fill="#5D90BA"/>
<g style="mix-blend-mode:multiply" opacity="0.45">
<path d="M221.613 62.2045V67.4113L278.581 157.917V57.6103L280.725 51.791L273.528 53.0161L221.613 62.2045Z" fill="#48678C"/>
</g>
<path d="M381.797 187.166V210.749L426.207 178.437V157.916L381.797 187.166Z" fill="#5D90BA"/>
<path d="M384.555 189.157V205.39L423.452 177.212V164.195L384.555 189.157Z" fill="#38485E"/>
<path d="M402.166 177.823V192.525L409.976 187.012V172.77L402.166 177.823Z" fill="#5D90BA"/>
<path d="M406.609 170.934V192.526" stroke="#EAEAD0" stroke-width="0.96" stroke-miterlimit="10"/>
<path d="M346.117 106.613H343.973V129.722H346.117V106.613Z" fill="#C6C5B5"/>
<path d="M388.538 106.613H386.547V126.23H388.538V106.613Z" fill="#C6C5B5"/>
<path opacity="0.43" d="M384.403 108.605H348.262V127.763H384.403V108.605Z" fill="#5D90BA"/>
<path opacity="0.43" d="M391.141 108.605V127.748H434.326V108.605H391.141Z" fill="#5D90BA"/>
<path d="M438.153 101.102H322.532L317.479 102.48H435.243L438.153 101.102Z" fill="#EAEAD0"/>
<path d="M435.243 102.479H317.479V106.675H435.243V102.479Z" fill="#C6C5B5"/>
<path d="M371.078 131.729L438.153 101.102H434.325L371.078 129.739V131.729Z" fill="white"/>
<path d="M438.153 101.102V106.615L371.078 138.621V131.729L438.153 101.102Z" fill="#EAEAD0"/>
<path d="M371.078 163.275V138.62L372.916 137.701V162.204L371.078 163.275Z" fill="#EAEAD0"/>
<path d="M407.527 121.162V142.601L409.978 141.223V120.09L407.527 121.162Z" fill="#EAEAD0"/>
<path opacity="0.43" d="M374.602 138.621V159.907L405.383 142.602V124.072L374.602 138.621Z" fill="#5D90BA"/>
<path opacity="0.43" d="M411.814 121.162L434.326 110.289V126.216L411.814 139.386V121.162Z" fill="#5D90BA"/>
<path d="M436.16 107.685V127.44L438.151 126.215V106.613L436.16 107.685Z" fill="#EAEAD0"/>
<path opacity="0.42" d="M160.053 17.334L260.972 165.573H80.7266L160.053 17.334Z" fill="#5D90BA"/>
<path opacity="0.42" d="M246.422 165.572H92.9766V285.664H246.422V165.572Z" fill="#5D90BA"/>
<path d="M246.27 165.574V174.609H371.078V164.195H260.052L260.971 165.574H246.27Z" fill="#5D90BA"/>
<path d="M354.539 196.201H256.07V282.694H354.539V196.201Z" fill="#C6C5B5"/>
<path opacity="0.43" d="M348.721 200.643H261.125V282.71H348.721V200.643Z" fill="#5D90BA"/>
<path d="M260.973 203.705H348.875" stroke="#48678C" stroke-width="0.96" stroke-miterlimit="10"/>
<path d="M261.125 208.451H348.874" stroke="#48678C" stroke-width="0.96" stroke-miterlimit="10"/>
<path d="M261.125 213.658H348.874" stroke="#48678C" stroke-width="0.96" stroke-miterlimit="10"/>
<path d="M261.125 219.172H348.874" stroke="#48678C" stroke-width="0.96" stroke-miterlimit="10"/>
<path d="M348.874 224.686H261.125" stroke="#48678C" stroke-width="0.96" stroke-miterlimit="10"/>
<path d="M261.125 229.738H348.874" stroke="#48678C" stroke-width="0.96" stroke-miterlimit="10"/>
<path d="M261.125 234.332H348.874" stroke="#48678C" stroke-width="0.96" stroke-miterlimit="10"/>
<path d="M261.125 239.387H348.874" stroke="#48678C" stroke-width="0.96" stroke-miterlimit="10"/>
<path d="M260.971 244.746H348.873" stroke="#48678C" stroke-width="0.96" stroke-miterlimit="10"/>
<path d="M261.125 249.646H348.874" stroke="#48678C" stroke-width="0.96" stroke-miterlimit="10"/>
<path d="M261.125 254.395H348.874" stroke="#48678C" stroke-width="0.96" stroke-miterlimit="10"/>
<path d="M261.125 259.447H348.874" stroke="#48678C" stroke-width="0.96" stroke-miterlimit="10"/>
<path d="M261.125 264.041H348.874" stroke="#48678C" stroke-width="0.96" stroke-miterlimit="10"/>
<path d="M261.125 268.941H348.874" stroke="#48678C" stroke-width="0.96" stroke-miterlimit="10"/>
<path d="M261.125 273.537H348.874" stroke="#48678C" stroke-width="0.96" stroke-miterlimit="10"/>
<path d="M261.125 278.59H348.874" stroke="#48678C" stroke-width="0.96" stroke-miterlimit="10"/>
<g style="mix-blend-mode:multiply" opacity="0.49">
<path d="M88.5352 161.59L160.051 29.584L251.169 161.59H88.5352Z" fill="#38485E"/>
</g>
<path d="M160.051 36.4766L245.044 159.448H96.8047L160.051 36.4766Z" fill="#5D90BA"/>
<g style="mix-blend-mode:multiply" opacity="0.4">
<path d="M160.361 33.2593L248.876 161.59H251.173L160.055 29.584L160.361 33.2593Z" fill="#48678C"/>
</g>
<path d="M160.817 41.8359L103.543 156.997H239.531L160.817 41.8359Z" fill="#48678C"/>
<path opacity="0.15" d="M103.543 156.997L117.632 153.168L164.952 55.4654L160.817 41.8359L103.543 156.997Z" fill="#5D90BA"/>
<g style="mix-blend-mode:multiply" opacity="0.31">
<path d="M117.632 153.168H232.487L239.531 156.996H103.543L117.632 153.168Z" fill="#38485E"/>
</g>
<g style="mix-blend-mode:multiply" opacity="0.23">
<path d="M160.818 41.8359L164.953 55.4654L232.488 153.168L239.532 156.997L160.818 41.8359Z" fill="#38485E"/>
</g>
<path d="M122.07 150.412L164.949 60.5195L226.971 150.412H122.07Z" fill="#5D90BA"/>
<g style="mix-blend-mode:multiply">
<path d="M117.783 153.475H116.711C118.3 151.311 119.685 149.004 120.846 146.584C135.853 116.721 150.249 86.706 164.95 56.8438C164.337 58.222 175.057 71.0857 175.976 72.464L211.198 122.847L226.206 144.133C227.431 145.971 230.034 148.421 230.647 150.565C232.638 156.844 223.756 154.547 219.774 151.943C216.455 149.599 213.467 146.817 210.892 143.674C201.55 133.107 191.749 123 181.642 113.352C170.616 120.244 159.59 127.135 148.717 134.179L132.178 144.593C128.196 147.196 122.53 152.403 117.783 153.475Z" fill="#5D90BA"/>
</g>
<path d="M164.953 153.168V55.9243C164.953 55.7711 164.8 55.7711 164.8 55.9243L117.633 153.168H232.488L164.953 55.4648" stroke="#C6C5B5" stroke-width="1.92" stroke-miterlimit="10"/>
<path d="M145.656 95.588H192.67" stroke="#C6C5B5" stroke-width="1.92" stroke-miterlimit="10"/>
<path d="M125.445 137.395H221.464" stroke="#C6C5B5" stroke-width="1.92" stroke-miterlimit="10"/>
<path d="M228.962 189.004H106.91V285.635H228.962V189.004Z" fill="#5D90BA"/>
<path d="M204.156 191.146V285.634" stroke="white" stroke-width="0.96" stroke-miterlimit="10"/>
<path d="M128.965 191.146V285.634" stroke="white" stroke-width="0.96" stroke-miterlimit="10"/>
<path d="M108.598 209.523H227.281" stroke="white" stroke-width="0.96" stroke-miterlimit="10"/>
<path d="M108.598 229.738H227.281" stroke="white" stroke-width="0.96" stroke-miterlimit="10"/>
<path d="M108.598 252.402H228.047" stroke="white" stroke-width="0.96" stroke-miterlimit="10"/>
<path d="M107.984 273.537H228.046" stroke="white" stroke-width="0.96" stroke-miterlimit="10"/>
<path d="M193.897 189.004H139.992V285.62H193.897V189.004Z" fill="#EAEAD0"/>
<path d="M187.924 200.643H146.883V285.742H187.924V200.643Z" fill="white"/>
<path d="M184.858 204.777H149.023V285.635H184.858V204.777Z" fill="#C6C5B5"/>
<g style="mix-blend-mode:multiply">
<path d="M152.393 204.777H149.023V285.635H152.393V204.777Z" fill="#C6C5B5"/>
</g>
<path d="M152.395 235.098H160.97V278.436H184.86V285.634H152.395V235.098Z" fill="white"/>
<path d="M154.383 237.855H158.824V247.963H155.302V239.999" stroke="#38485E" stroke-width="0.96" stroke-miterlimit="10"/>
<path d="M154.383 251.178H159.436" stroke="#38485E" stroke-width="0.96" stroke-miterlimit="10"/>
<path d="M232.333 183.184H103.543V191.024H232.333V183.184Z" fill="white"/>
<path d="M108.598 190.994H105.229V285.65H108.598V190.994Z" fill="white"/>
<path d="M141.674 191.146H138.305V285.802H141.674V191.146Z" fill="white"/>
<path d="M195.582 190.994H192.213V285.65H195.582V190.994Z" fill="white"/>
<path d="M230.652 190.994H227.283V285.65H230.652V190.994Z" fill="white"/>
<path d="M371.078 131.729H251.17V138.497H371.078V131.729Z" fill="#EAEAD0"/>
<path d="M251.17 131.729L259.439 129.738H371.078V131.729H251.17Z" fill="white"/>
<path d="M266.177 138.467H263.727V163.168H266.177V138.467Z" fill="white"/>
<path d="M320.237 138.773H317.787V163.475H320.237V138.773Z" fill="white"/>
<path d="M371.077 138.621H368.627V163.323H371.077V138.621Z" fill="white"/>
<path opacity="0.43" d="M315.334 140.152H268.32V162.22H315.334V140.152Z" fill="#5D90BA"/>
<path opacity="0.18" d="M279.806 140.152L268.32 162.204H315.334V140.152H313.803L304.002 162.204H296.498L308.596 140.152H305.227L290.832 162.204H286.85L301.858 140.152H289.3L274.446 162.204H272.302L284.4 140.152H279.806Z" fill="white"/>
<path opacity="0.37" d="M333.253 140.152L322.533 162.204H366.484V140.152H365.106L355.765 162.204H348.72L360.206 140.152H356.99L343.513 162.204H339.685L353.927 140.152H342.135L328.199 162.204H326.209L337.541 140.152H333.253Z" fill="white"/>
<path opacity="0.43" d="M366.484 140.152H322.533V162.22H366.484V140.152Z" fill="#5D90BA"/>
<g style="mix-blend-mode:multiply" opacity="0.43">
<path d="M160.051 29.584L88.5352 161.59L116.713 153.627L164.952 91.4524L228.964 151.943L251.169 161.59L160.051 29.584Z" fill="#7C2C1D"/>
</g>
<g style="mix-blend-mode:multiply" opacity="0.65">
<path d="M105.229 190.994H230.803L230.956 208.452L105.229 247.962V190.994Z" fill="#5D90BA"/>
</g>
<g style="mix-blend-mode:multiply" opacity="0.65">
<path d="M261.125 200.643H348.874V219.172L261.125 282.572V200.643Z" fill="#5D90BA"/>
</g>
<path d="M561.433 183.338C549.335 198.958 533.255 206.921 513.5 207.687C501.555 208.299 489.151 205.849 478.89 199.417C471.457 194.542 465.743 187.455 462.555 179.156C459.368 170.858 458.868 161.767 461.126 153.169C462.204 148.99 464.31 145.147 467.252 141.99C468.749 140.453 470.572 139.27 472.586 138.528C474.599 137.786 476.753 137.504 478.89 137.702C477.512 131.883 477.971 125.298 481.647 120.55C485.322 115.803 492.52 113.659 497.42 117.028C498.424 110.986 501.783 105.589 506.762 102.021C510.501 99.3359 514.889 97.6972 519.472 97.2733C524.448 96.6742 529.495 97.1728 534.257 98.7338C539.019 100.295 543.382 102.88 547.037 106.309C550.604 109.792 553.38 114.001 555.177 118.652C556.974 123.302 557.749 128.285 557.451 133.261C561.126 131.73 564.802 135.405 566.792 138.927C574.143 152.863 571.08 170.78 561.433 183.338Z" fill="#608C53"/>
<g style="mix-blend-mode:multiply" opacity="0.44">
<path d="M554.079 183.644C554.135 184.456 553.919 185.264 553.466 185.941C549.791 192.219 544.278 198.804 537.846 202.327C521.154 211.362 494.66 209.218 478.887 199.417C471.471 194.705 465.776 187.722 462.654 179.509C459.745 172.311 457.754 161.438 463.267 154.853C464.798 153.169 467.248 151.79 469.239 152.862C470.077 153.246 470.812 153.824 471.383 154.547C473.383 156.987 475.08 159.661 476.437 162.51C476.246 159.57 476.772 156.627 477.968 153.934C478.2 153.016 478.741 152.205 479.5 151.637C481.337 150.259 483.787 150.872 485.931 151.637C484.55 147.337 483.928 142.828 484.094 138.314C484.233 133.797 486.033 129.49 489.147 126.216C490.048 125.234 491.174 124.485 492.427 124.032C493.68 123.578 495.024 123.435 496.345 123.613C500.02 124.378 501.858 128.666 505.074 130.504C504.002 123.306 508.443 116.262 514.262 111.974C515.711 110.741 517.45 109.897 519.316 109.524C520.251 109.387 521.207 109.515 522.073 109.894C522.939 110.273 523.682 110.888 524.216 111.668C524.523 112.28 524.982 113.046 525.595 113.199C526.067 113.161 526.506 112.941 526.82 112.587C528.811 110.902 531.261 109.371 533.864 109.83C536.467 110.29 539.377 115.037 539.683 119.019C539.805 123.255 539.076 127.473 537.539 131.423C538.611 132.189 539.99 130.963 541.062 130.504C542.134 130.045 545.656 131.27 546.422 133.261C547.063 135.417 547.009 137.721 546.268 139.846C544.684 145.517 542.635 151.049 540.143 156.385C542.76 152.055 546.595 148.592 551.169 146.431C552.217 145.801 553.383 145.394 554.595 145.236C555.807 145.078 557.039 145.172 558.213 145.512C561.582 146.737 562.808 151.025 562.042 154.394C561.015 157.751 559.174 160.803 556.682 163.276C558.213 161.745 560.664 160.06 562.348 161.438C564.033 162.817 563.267 164.654 562.654 166.186C559.679 173.479 554.411 179.607 547.647 183.644C548.643 182.738 549.856 182.105 551.169 181.806C551.794 181.706 552.435 181.837 552.971 182.175C553.506 182.514 553.9 183.036 554.079 183.644Z" fill="#327770"/>
</g>
<path d="M512.272 181.959C518.433 175.097 522.846 166.849 525.136 157.916L527.586 158.376C529.271 158.682 525.595 168.636 525.289 169.861C523.957 172.882 522.315 175.756 520.389 178.437C518.857 180.428 515.948 182.878 515.182 185.328C514.907 186.325 514.854 187.371 515.029 188.391C515.795 203.399 516.56 218.406 516.867 233.414C516.867 234.945 517.02 259.141 517.785 259.141C515.478 258.99 513.161 259.144 510.894 259.601C511.2 243.368 510.741 227.135 510.128 210.902C509.975 205.696 509.516 200.948 505.381 197.426C501.254 194.072 497.865 189.901 495.427 185.175C494.817 184.102 494.501 182.887 494.508 181.653C494.498 181.035 494.709 180.434 495.102 179.957C495.494 179.48 496.044 179.158 496.652 179.049C497.405 182.3 498.865 185.344 500.93 187.965C502.995 190.586 505.613 192.718 508.597 194.21C507.066 180.581 505.84 166.798 504.769 153.016L508.597 152.25C509.516 162.357 510.588 172.618 511.507 182.725L512.272 181.959Z" fill="#845F46"/>
<path d="M555.92 260.979C552.64 261.63 549.309 261.989 545.965 262.051C534.633 262.204 523.301 262.664 512.122 262.204C509.978 262.051 507.374 261.898 506.149 260.06C505.713 259.353 505.402 258.576 505.23 257.763C504.952 255.826 505.126 253.851 505.737 251.991C506.348 250.132 507.38 248.439 508.753 247.044C509.671 246.125 517.175 241.684 517.328 245.206C517.253 242.332 517.935 239.489 519.306 236.963C520.677 234.436 522.688 232.314 525.138 230.811C527.606 229.386 530.405 228.636 533.255 228.636C536.104 228.636 538.904 229.386 541.371 230.811C542.912 228.874 545.138 227.603 547.589 227.261C550.04 226.919 552.529 227.532 554.541 228.973C556.464 230.535 557.7 232.786 557.987 235.246C558.273 237.707 557.586 240.182 556.073 242.143C559.135 241.531 561.892 244.593 562.045 247.656C562.011 249.195 561.637 250.708 560.948 252.085C560.26 253.462 559.275 254.669 558.063 255.619C558.385 255.71 558.681 255.875 558.928 256.101C559.175 256.327 559.365 256.607 559.484 256.919C559.603 257.232 559.648 257.568 559.614 257.901C559.58 258.233 559.468 258.553 559.289 258.835C558.916 259.416 558.422 259.909 557.84 260.279C557.259 260.649 556.603 260.888 555.92 260.979Z" fill="#8EA565"/>
<g style="mix-blend-mode:multiply" opacity="0.45">
<path d="M555.305 260.367L554.845 260.674C554.12 260.985 553.337 261.141 552.548 261.133L547.341 261.592C547.801 259.142 548.107 256.845 548.566 254.548C549.026 252.251 548.72 252.557 547.954 252.098C547.188 251.638 545.657 253.17 544.279 253.629C544.505 252.855 544.553 252.04 544.421 251.244C544.288 250.449 543.978 249.694 543.513 249.035C543.286 248.719 542.987 248.461 542.641 248.283C542.295 248.106 541.911 248.013 541.522 248.013C541.133 248.013 540.749 248.106 540.403 248.283C540.057 248.461 539.758 248.719 539.531 249.035C539.378 249.188 539.225 249.647 538.919 249.801C538.612 249.954 538 249.494 538.306 249.341C537.916 249.854 537.718 250.487 537.746 251.13C537.774 251.773 538.026 252.387 538.459 252.863C539.225 253.629 540.45 253.782 541.369 254.548C541.915 255.248 542.212 256.11 542.212 256.998C542.212 257.886 541.915 258.749 541.369 259.448C538.459 263.277 532.64 262.205 528.352 262.358H512.119C509.975 262.205 507.372 261.899 506.147 260.061C505.687 259.422 505.373 258.69 505.228 257.917C504.309 251.945 509.21 243.216 516.101 247.503C516.369 247.084 516.736 246.737 517.17 246.491C517.603 246.245 518.089 246.109 518.587 246.094C519.085 246.079 519.579 246.185 520.026 246.404C520.474 246.623 520.861 246.948 521.155 247.35C521.206 244.932 521.765 242.551 522.793 240.362C523.822 238.173 525.298 236.223 527.127 234.64C527.931 233.84 528.887 233.211 529.94 232.79C530.992 232.369 532.119 232.165 533.253 232.19C534.376 232.305 535.413 232.845 536.153 233.699C536.892 234.552 537.279 235.655 537.234 236.784C538 234.793 541.063 235.405 541.981 237.243C542.9 239.081 542.135 241.225 541.522 243.216C542.459 240.476 543.973 237.969 545.963 235.865C546.71 234.853 547.798 234.146 549.026 233.874C551.476 233.568 553.314 236.171 553.008 238.621C552.59 240.913 551.527 243.038 549.945 244.747C550.404 243.369 553.008 243.981 553.467 245.513C553.534 246.286 553.416 247.064 553.123 247.783C552.83 248.502 552.371 249.141 551.782 249.647C553.008 248.422 554.539 247.044 556.07 247.657C557.602 248.269 557.755 250.413 556.836 251.791C555.85 253.125 554.45 254.094 552.854 254.548C553.62 253.782 554.998 254.548 554.998 255.62C555.008 256.104 554.918 256.585 554.734 257.033C554.549 257.481 554.274 257.886 553.926 258.223C554.084 258.086 554.273 257.991 554.477 257.948C554.681 257.904 554.893 257.914 555.092 257.975C555.292 258.037 555.472 258.148 555.616 258.298C555.761 258.449 555.864 258.634 555.917 258.836C555.941 259.121 555.899 259.408 555.792 259.674C555.686 259.94 555.519 260.177 555.305 260.367Z" fill="#8EA565"/>
</g>
<path d="M449.024 270.168C443.205 267.105 441.827 259.142 443.817 253.016C444.766 250.995 445.535 248.894 446.114 246.738C446.574 244.594 446.421 242.144 446.727 239.846C446.857 235.267 448.782 230.922 452.087 227.748C453.748 226.161 455.847 225.107 458.113 224.725C460.379 224.343 462.707 224.649 464.797 225.604C465.776 222.799 467.663 220.401 470.161 218.792C472.658 217.183 475.621 216.454 478.58 216.722C481.549 217.178 484.269 218.648 486.279 220.88C488.289 223.113 489.464 225.973 489.606 228.974C492.209 226.37 496.957 227.595 499.101 230.505C501.245 233.415 501.704 237.243 501.704 240.918C501.704 244.594 501.857 248.422 503.542 251.638C506.911 250.107 510.739 248.575 514.415 249.494C518.09 250.413 521 255.007 518.856 258.07C521.153 255.773 523.909 253.323 527.278 253.016C530.648 252.71 534.476 255.773 533.71 258.989C535.796 257.654 538.225 256.958 540.701 256.985C543.177 257.012 545.59 257.762 547.646 259.142C548.264 259.561 548.787 260.104 549.183 260.737C549.578 261.37 549.837 262.079 549.943 262.817C550.096 265.88 546.421 267.258 543.358 267.871C514.878 273.071 485.834 274.461 456.987 272.006C454.225 272.032 451.496 271.402 449.024 270.168Z" fill="#327770"/>
<g style="mix-blend-mode:multiply" opacity="0.36">
<path d="M449.024 270.014C443.205 266.951 441.827 258.988 443.817 252.862C444.717 250.821 445.484 248.723 446.114 246.583C446.574 244.286 446.421 241.989 446.727 239.692C447.033 233.413 451.474 223 459.438 227.288C460.645 227.91 461.656 228.855 462.359 230.018C463.062 231.18 463.429 232.514 463.419 233.873C463.426 231.919 463.843 229.988 464.644 228.207C465.117 227.365 465.851 226.701 466.736 226.314C467.62 225.927 468.606 225.839 469.545 226.063C469.58 225.315 469.771 224.584 470.105 223.915C470.44 223.246 470.911 222.655 471.488 222.179C472.065 221.703 472.735 221.353 473.455 221.151C474.176 220.95 474.93 220.901 475.67 221.009C476.395 221.188 477.078 221.509 477.679 221.952C478.28 222.396 478.787 222.954 479.171 223.595C479.555 224.235 479.809 224.945 479.918 225.684C480.027 226.423 479.988 227.176 479.805 227.9C480.606 227.843 481.401 228.074 482.047 228.551C482.693 229.029 483.147 229.721 483.327 230.504C483.661 232.127 483.609 233.805 483.174 235.404C482.536 237.831 481.664 240.19 480.571 242.448L483.787 238.926C484.775 237.752 485.969 236.766 487.309 236.017C487.992 235.673 488.76 235.534 489.521 235.616C490.281 235.697 491.002 235.996 491.597 236.476C493.128 237.854 492.669 240.305 492.056 242.295C492.975 241.07 494.966 241.683 495.732 242.908C496.022 243.596 496.145 244.343 496.092 245.089C496.038 245.834 495.81 246.556 495.425 247.196C494.813 248.574 493.894 249.799 493.281 251.177C494.047 249.952 496.191 250.412 496.804 251.637C497.36 252.997 497.468 254.499 497.11 255.925C496.901 256.617 496.847 257.346 496.953 258.061C497.059 258.776 497.322 259.458 497.722 260.06C498.488 258.222 499.254 256.231 500.938 255.312C502.623 254.393 505.379 255.006 505.533 256.997C506.424 255.611 507.631 254.456 509.055 253.628C509.785 253.233 510.63 253.109 511.443 253.277C512.255 253.445 512.982 253.895 513.496 254.547C513.885 255.245 514.046 256.049 513.955 256.844C513.85 258.167 513.484 259.457 512.88 260.64C512.276 261.822 511.444 262.874 510.433 263.735C513.331 263.407 516.139 262.523 518.703 261.132C519.352 260.721 520.084 260.46 520.847 260.366C521.612 260.519 522.378 261.438 521.919 262.05C522.151 261.255 522.634 260.557 523.297 260.06C523.96 259.563 524.766 259.294 525.594 259.294C527.125 259.447 528.35 261.744 527.278 262.969C528.657 261.744 530.801 260.672 532.179 261.897C533.557 263.122 532.945 263.429 533.71 263.429L534.629 263.122L537.079 261.438C537.516 261.166 538.02 261.023 538.534 261.023C539.048 261.023 539.552 261.166 539.989 261.438C540.189 261.568 540.355 261.743 540.475 261.949C540.595 262.155 540.665 262.387 540.68 262.625C540.695 262.862 540.654 263.101 540.561 263.32C540.467 263.539 540.324 263.734 540.142 263.888C540.709 263.496 541.35 263.223 542.025 263.087C542.701 262.952 543.398 262.956 544.072 263.099C544.746 263.243 545.384 263.523 545.946 263.922C546.508 264.321 546.982 264.83 547.34 265.419C548.105 266.645 543.971 267.563 543.358 267.717C514.87 272.84 485.835 274.23 456.987 271.851C454.243 271.73 451.544 271.107 449.024 270.014Z" fill="#327770"/>
</g>
<path d="M456.224 241.53C458.827 239.233 463.727 241.684 463.574 245.206C466.331 240.918 473.375 241.684 476.438 245.665C479.501 249.647 478.429 255.772 475.519 259.907C476.786 258.418 478.516 257.398 480.432 257.009C482.348 256.62 484.339 256.886 486.086 257.763C487.776 258.757 489.058 260.319 489.703 262.17C490.348 264.021 490.314 266.042 489.608 267.87C490.826 266.652 492.479 265.967 494.202 265.967C495.925 265.967 497.578 266.652 498.796 267.87C500.015 269.089 500.699 270.742 500.699 272.465C500.699 274.188 500.015 275.84 498.796 277.059C499.1 276.703 499.486 276.425 499.92 276.25C500.354 276.075 500.824 276.007 501.29 276.052C501.756 276.097 502.204 276.254 502.596 276.509C502.989 276.764 503.314 277.111 503.544 277.518C503.951 278.386 504.066 279.361 503.873 280.3C503.68 281.238 503.188 282.089 502.472 282.725C501.104 284.052 499.415 285.002 497.571 285.482C490.908 287.325 484.091 288.555 477.204 289.157C459.746 290.995 442.288 292.067 424.83 292.985C424.198 293.124 423.544 293.127 422.91 292.995C422.277 292.863 421.679 292.599 421.155 292.22C420.236 291.454 420.236 289.463 421.461 289.157L400.328 287.779C394.968 287.472 389.455 287.013 385.167 283.95C380.879 280.887 378.122 274.302 377.663 268.483C377.204 262.664 378.888 255.772 383.329 251.331C387.77 246.89 395.274 245.665 400.174 249.341C399.176 244.452 399.204 239.408 400.259 234.531C401.313 229.654 403.371 225.049 406.3 221.01C409.51 216.332 414.121 212.793 419.47 210.903C422.143 209.923 425.001 209.553 427.836 209.817C430.671 210.082 433.41 210.976 435.856 212.434C442.594 216.722 445.351 225.298 445.351 233.414C446.116 228.82 452.548 226.523 456.224 229.432C459.899 232.342 459.746 238.468 456.224 241.53Z" fill="#8EA565"/>
<g style="mix-blend-mode:multiply" opacity="0.34">
<path d="M446.729 246.89C447.344 247.996 447.808 249.181 448.107 250.412C449.316 255.431 449.983 260.565 450.098 265.726C451.017 261.897 452.089 257.916 454.845 255.159C457.602 252.403 462.808 251.637 465.259 254.7C467.709 257.762 465.718 263.429 463.268 267.104C465.259 265.266 468.475 263.582 470.465 265.419C472.456 267.257 470.619 270.932 468.628 273.076C470.925 271.698 473.681 270.32 476.285 270.933C478.888 271.545 480.879 275.067 479.041 276.905C479.625 275.634 480.521 274.533 481.645 273.702C482.77 272.872 484.087 272.341 485.473 272.158C486.236 271.972 487.038 272.025 487.77 272.311C488.191 272.574 488.555 272.921 488.838 273.329C489.122 273.737 489.32 274.198 489.42 274.685C489.52 275.172 489.52 275.673 489.421 276.16C489.322 276.647 489.125 277.109 488.842 277.518C487.709 279.171 486.11 280.45 484.248 281.193C485.867 281.123 487.467 280.813 488.995 280.274C490.527 280.121 492.671 281.346 492.211 282.877C491.752 284.409 490.374 285.174 491.292 286.093C484.106 287.317 476.778 287.472 469.547 286.553C468.824 286.491 468.133 286.226 467.556 285.787C466.178 284.562 467.556 282.112 467.249 280.274C466.943 278.436 463.727 277.211 461.736 278.283C459.73 279.421 458.166 281.201 457.295 283.337C456.683 279.815 455.151 276.139 452.089 274.608C449.026 273.076 444.125 275.067 444.125 278.589C443.1 277.318 441.639 276.473 440.026 276.219C438.413 275.964 436.763 276.318 435.396 277.211C434.102 278.139 433.197 279.513 432.858 281.069C432.518 282.625 432.768 284.252 433.559 285.634C430.8 284.711 428.134 283.532 425.595 282.112C423.035 280.683 420.055 280.195 417.173 280.733C416.418 280.901 415.704 281.218 415.073 281.665C414.442 282.112 413.906 282.68 413.497 283.337C412.579 284.715 413.344 287.012 412.732 287.931C412.119 288.85 409.822 289.156 407.066 288.697C400.021 287.165 391.445 288.237 385.167 283.796C378.888 279.355 375.213 268.942 380.266 264.654C380.676 264.316 381.149 264.063 381.658 263.911C382.166 263.758 382.7 263.709 383.228 263.766C383.756 263.823 384.268 263.985 384.732 264.243C385.196 264.501 385.604 264.849 385.932 265.266C385.106 263.674 384.852 261.846 385.215 260.089C385.577 258.332 386.534 256.753 387.923 255.619C389.356 254.542 391.061 253.885 392.846 253.723C394.631 253.56 396.427 253.899 398.03 254.7C401.553 256.537 404.156 260.213 407.984 261.285C400.94 247.655 401.246 229.585 411.813 218.712C413.55 216.785 415.771 215.357 418.245 214.577C419.47 214.157 420.791 214.107 422.044 214.434C423.297 214.761 424.426 215.45 425.289 216.415C426.262 217.544 426.899 218.923 427.127 220.396C428.831 226.993 429.247 233.857 428.352 240.611C428.711 239.228 429.335 237.927 430.19 236.782C430.674 236.278 431.31 235.945 432.001 235.834C432.692 235.724 433.4 235.842 434.018 236.17C434.457 236.639 434.793 237.194 435.004 237.801C435.215 238.408 435.297 239.052 435.243 239.692C435.575 244.18 435.524 248.689 435.09 253.168C436.211 250.336 437.997 247.815 440.297 245.818C440.985 245.16 441.828 244.686 442.747 244.439C443.581 244.398 444.407 244.61 445.118 245.048C445.828 245.485 446.39 246.127 446.729 246.89Z" fill="#8EA565"/>
</g>
<path d="M486.085 310.289L474.599 309.83C473.221 309.677 471.383 309.371 470.618 307.992C470.361 307.259 470.392 306.456 470.705 305.746C471.017 305.035 471.588 304.47 472.302 304.164C476.547 302.813 480.903 301.84 485.319 301.254C485.013 297.426 486.085 292.831 489.607 290.841C491.436 289.818 493.572 289.487 495.624 289.909C497.676 290.331 499.509 291.477 500.786 293.138C499.408 289.462 502.471 284.715 505.84 283.031C507.518 282.253 509.427 282.137 511.186 282.705C512.946 283.272 514.427 284.482 515.334 286.093C515.277 285.292 515.508 284.497 515.986 283.851C516.463 283.206 517.155 282.752 517.938 282.571C518.412 283.009 518.751 283.573 518.914 284.197C519.077 284.822 519.057 285.48 518.857 286.093C519.251 285.498 519.804 285.024 520.454 284.726C521.103 284.429 521.823 284.319 522.532 284.409C522.908 284.987 523.054 285.685 522.941 286.366C522.827 287.046 522.463 287.659 521.919 288.084C523.962 287.2 526.269 287.145 528.351 287.931C528.864 288.202 529.316 288.575 529.681 289.026C530.045 289.478 530.315 289.998 530.472 290.557C530.63 291.115 530.672 291.699 530.597 292.275C530.522 292.85 530.331 293.404 530.036 293.903C531.336 293.301 532.809 293.187 534.186 293.58C535.564 293.974 536.754 294.849 537.54 296.047C538.152 297.119 539.224 303.551 536.468 303.092L542.593 304.164C544.431 304.47 546.881 305.542 546.422 307.227C546.183 307.806 545.781 308.303 545.264 308.656C544.747 309.01 544.138 309.205 543.512 309.217C535.209 311.303 526.597 311.873 518.091 310.902C518.067 310.544 518.158 310.187 518.35 309.884C518.543 309.581 518.828 309.347 519.163 309.217C508.17 310.263 497.122 310.621 486.085 310.289Z" fill="#608C53"/>
<g style="mix-blend-mode:multiply" opacity="0.41">
<path d="M486.086 310.29L474.601 309.83C473.529 309.677 471.691 309.677 471.385 308.452C471.245 307.904 471.328 307.323 471.614 306.835C471.901 306.347 472.369 305.993 472.916 305.849C474.222 305.825 475.504 306.199 476.592 306.921C476.879 306.239 477.374 305.664 478.006 305.279C478.639 304.895 479.376 304.719 480.114 304.777L484.402 305.542C486.06 305.735 487.734 305.356 489.149 304.47C488.996 302.02 488.077 299.57 488.843 297.426C489.135 296.775 489.571 296.198 490.118 295.739C490.664 295.279 491.307 294.949 491.999 294.772C492.69 294.596 493.413 294.577 494.113 294.719C494.813 294.86 495.471 295.157 496.04 295.588C496.137 295.289 496.299 295.014 496.514 294.784C496.729 294.554 496.992 294.374 497.284 294.257C497.577 294.14 497.891 294.089 498.206 294.107C498.52 294.126 498.826 294.213 499.103 294.363C500.151 295.073 500.953 296.089 501.4 297.273L502.779 300.029C503.292 298.292 503.499 296.478 503.391 294.67C503.544 292.985 504.923 290.841 506.607 291.147C506.324 290.722 506.152 290.232 506.107 289.723C506.061 289.214 506.144 288.701 506.348 288.232C506.551 287.763 506.869 287.353 507.272 287.038C507.675 286.723 508.15 286.514 508.654 286.43C509.158 286.346 509.675 286.39 510.159 286.557C510.642 286.724 511.075 287.009 511.42 287.387C511.764 287.764 512.009 288.222 512.131 288.719C512.254 289.215 512.25 289.734 512.12 290.228C512.321 290 512.569 289.818 512.846 289.693C513.123 289.567 513.424 289.503 513.728 289.503C514.032 289.503 514.333 289.567 514.61 289.693C514.887 289.818 515.135 290 515.336 290.228C516.123 291.226 516.506 292.484 516.408 293.751C516.54 292.968 516.745 292.198 517.021 291.454C517.213 291.066 517.526 290.752 517.913 290.559C518.3 290.365 518.739 290.303 519.164 290.382C520.236 290.688 520.543 292.066 520.543 293.291C520.751 292.765 521.108 292.311 521.571 291.984C522.033 291.658 522.58 291.474 523.146 291.454C523.713 291.466 524.267 291.629 524.751 291.925C525.235 292.22 525.633 292.639 525.903 293.138C526.821 295.282 525.29 297.426 523.759 299.111C524.754 298.412 525.916 297.989 527.128 297.885C527.731 297.837 528.331 298.014 528.811 298.382C529.292 298.749 529.62 299.282 529.731 299.876C529.781 299.613 529.888 299.364 530.044 299.147C530.2 298.929 530.402 298.748 530.636 298.617C530.869 298.486 531.128 298.407 531.395 298.387C531.662 298.366 531.931 298.404 532.181 298.498C532.692 298.73 533.107 299.131 533.358 299.632C533.609 300.134 533.68 300.707 533.56 301.255C533.377 301.763 533.092 302.229 532.724 302.624C532.355 303.018 531.91 303.334 531.416 303.552C531.8 303.246 532.262 303.055 532.75 303.001C533.237 302.947 533.731 303.031 534.172 303.245C534.938 303.858 534.785 305.389 533.866 305.542C532.947 305.696 534.938 305.083 535.55 305.236C536.163 305.389 536.469 306.155 536.01 306.461C536.914 306.259 537.845 306.207 538.766 306.308L539.532 306.614C540.298 307.38 539.226 308.452 538.307 308.758C535.528 310.016 532.592 310.891 529.578 311.362C528.659 311.362 518.093 311.362 518.093 310.902C518.068 310.544 518.159 310.187 518.352 309.884C518.545 309.581 518.83 309.348 519.164 309.218C508.171 310.263 497.124 310.621 486.086 310.29Z" fill="#608C53"/>
</g>
<path d="M460.053 310.902L461.891 311.209C465.107 311.515 468.629 309.218 471.538 310.443C474.448 311.668 474.295 313.965 472.764 315.037H478.736C479.128 314.994 479.525 315.041 479.896 315.173C480.267 315.306 480.604 315.521 480.88 315.803C481.492 317.028 479.961 318.1 478.736 318.406C475.121 319.232 471.416 319.592 467.71 319.478C454.693 319.631 441.37 318.406 428.2 318.866C431.263 318.866 436.01 323.919 431.875 325.91C430.836 326.261 429.754 326.467 428.659 326.523C408.445 327.288 389.456 327.288 369.547 322.847C368.066 322.582 366.657 322.008 365.413 321.163C362.962 318.713 365.566 311.056 368.782 314.118C367.997 313.304 367.381 312.343 366.968 311.29C366.555 310.238 366.354 309.114 366.375 307.983C366.396 306.853 366.64 305.738 367.093 304.701C367.545 303.665 368.197 302.728 369.011 301.944C369.826 301.159 370.787 300.543 371.84 300.13C372.892 299.717 374.016 299.516 375.146 299.537C376.277 299.558 377.392 299.802 378.428 300.255C379.465 300.707 380.402 301.359 381.186 302.173C377.051 297.579 376.592 289.769 380.88 285.175C385.168 280.581 393.437 280.581 397.113 285.634C396.675 284.034 396.687 282.345 397.146 280.751C397.606 279.158 398.494 277.721 399.716 276.599C402.217 274.367 405.294 272.881 408.598 272.311C412.284 271.535 416.117 271.854 419.624 273.23C421.381 273.886 422.916 275.024 424.054 276.514C425.192 278.004 425.886 279.786 426.056 281.653C429.272 279.509 434.172 281.193 435.857 284.562C437.541 287.931 436.776 292.373 434.479 295.435C437.388 295.129 441.217 294.976 443.514 296.814C445.811 298.651 447.189 301.867 445.964 303.552C447.649 301.255 451.477 302.02 453.621 303.858C455.765 305.696 456.99 309.677 460.053 310.902Z" fill="#608C53"/>
<g style="mix-blend-mode:multiply" opacity="0.31">
<path d="M460.513 315.649C465.26 315.649 470.773 315.955 474.448 317.793C471.539 317.946 468.782 319.324 466.026 319.324C463.269 319.324 457.603 319.171 453.468 319.171C445.046 318.865 436.623 318.559 428.2 318.712C431.263 318.712 436.01 323.765 431.876 325.756C427.741 327.747 424.678 326.063 421.615 326.063C422.075 324.991 421.003 323.612 419.777 323.306C418.559 323.277 417.352 323.54 416.255 324.072C416.531 323.862 416.753 323.589 416.9 323.275C417.047 322.962 417.117 322.617 417.101 322.271C417.086 321.924 416.988 321.587 416.814 321.287C416.64 320.987 416.395 320.734 416.102 320.55C415.479 320.245 414.776 320.14 414.091 320.25C413.406 320.36 412.771 320.678 412.274 321.162C413.652 319.784 415.183 318.099 415.183 316.108C415.183 314.118 412.58 312.433 411.202 313.811C412.189 312.04 412.668 310.03 412.587 308.004C412.506 305.978 411.868 304.013 410.742 302.326C410.278 301.544 409.632 300.885 408.859 300.405C408.086 299.925 407.208 299.639 406.301 299.569C403.851 299.416 401.86 301.56 401.248 304.01C400.814 306.403 400.919 308.861 401.554 311.208C399.869 308.145 394.816 308.758 392.672 311.514C390.528 314.271 390.528 318.252 390.681 321.775L386.852 319.324C386.24 319.018 385.78 318.559 385.168 318.559C384.571 318.595 384.007 318.849 383.584 319.272C383.161 319.695 382.907 320.258 382.871 320.856C382.834 321.977 383.099 323.087 383.637 324.072L372.457 322.693C366.179 321.928 369.548 317.18 374.601 317.946C373.206 316.204 372.118 314.236 371.385 312.127C371.085 311.012 371.098 309.837 371.422 308.729C371.746 307.622 372.369 306.625 373.223 305.848C374.216 305.17 375.39 304.807 376.592 304.807C377.794 304.807 378.969 305.17 379.961 305.848C381.973 307.17 383.693 308.889 385.015 310.902C384.466 310.042 384.241 309.015 384.382 308.004C384.522 306.994 385.018 306.066 385.78 305.389C386.608 304.835 387.594 304.566 388.588 304.621C389.582 304.676 390.532 305.053 391.294 305.695C389.609 302.632 386.393 301.101 384.862 297.732C383.33 294.363 383.483 291.453 385.78 289.615C386.672 288.987 387.73 288.637 388.82 288.609C389.91 288.582 390.984 288.879 391.906 289.462C393.774 290.668 395.387 292.229 396.653 294.056C396.032 290.225 396.51 286.295 398.032 282.724C398.816 280.949 400.074 279.423 401.668 278.316C403.261 277.208 405.13 276.561 407.067 276.445C410.895 276.445 414.724 279.661 414.418 283.49C414.418 281.04 418.246 279.814 420.237 281.499C422.228 283.183 421.921 286.399 420.543 288.543C421.462 286.246 425.29 286.859 426.362 289.003C427.434 291.147 426.516 293.75 425.137 295.741C423.759 297.732 421.768 299.416 420.543 301.56C421.577 300.206 422.95 299.149 424.525 298.497C424.906 298.356 425.312 298.296 425.718 298.321C426.124 298.346 426.52 298.456 426.881 298.643C427.242 298.831 427.559 299.092 427.813 299.41C428.066 299.728 428.25 300.095 428.353 300.488C428.66 302.326 426.669 303.857 426.975 305.695C427.778 303.992 428.865 302.438 430.191 301.101C430.835 300.397 431.677 299.904 432.605 299.685C433.534 299.467 434.507 299.533 435.398 299.876C435.83 300.064 436.216 300.346 436.527 300.7C436.838 301.055 437.068 301.473 437.199 301.926C437.331 302.379 437.361 302.856 437.288 303.322C437.215 303.788 437.04 304.232 436.776 304.623C437.21 304.207 437.729 303.89 438.297 303.695C438.865 303.5 439.47 303.431 440.067 303.494C440.665 303.556 441.242 303.748 441.758 304.056C442.274 304.364 442.717 304.781 443.055 305.277C443.394 305.774 443.62 306.338 443.718 306.931C443.816 307.524 443.784 308.131 443.624 308.71C443.463 309.289 443.179 309.826 442.789 310.284C442.4 310.742 441.916 311.11 441.37 311.361C442.962 310.304 444.82 309.72 446.73 309.677C448.721 309.983 450.405 311.974 449.64 313.658C449.696 313.162 449.867 312.685 450.139 312.267C450.412 311.848 450.778 311.498 451.209 311.245C451.64 310.993 452.124 310.844 452.622 310.811C453.121 310.778 453.62 310.861 454.081 311.055C454.53 311.246 454.933 311.532 455.261 311.894C455.589 312.256 455.834 312.685 455.98 313.151C456.125 313.617 456.168 314.109 456.104 314.594C456.041 315.078 455.873 315.542 455.612 315.955L460.513 315.649Z" fill="#608C53"/>
</g>
<path d="M670.771 240.306C672.523 239.621 674.426 239.416 676.283 239.712C678.141 240.008 679.886 240.794 681.338 241.99C678.275 243.828 674.753 243.981 671.23 244.134L606.605 246.431C606.831 244.903 607.611 243.512 608.798 242.523C609.984 241.534 611.494 241.017 613.037 241.071C612.793 238.684 613.107 236.272 613.956 234.027C615.181 231.883 617.938 230.505 619.929 231.73C621.265 225.899 624.179 220.549 628.351 216.263C630.435 214.148 633 212.57 635.827 211.663C638.654 210.757 641.659 210.548 644.584 211.056C650.403 212.434 655.304 217.794 654.998 223.767C656.035 223.413 657.168 223.469 658.165 223.925C659.162 224.381 659.946 225.201 660.357 226.217C661.016 228.251 661.069 230.432 660.511 232.496C665.258 230.352 671.537 235.099 670.771 240.306Z" fill="#327770"/>
<g style="mix-blend-mode:multiply" opacity="0.39">
<path d="M670.465 242.142C671.936 242.387 673.374 242.798 674.753 243.367C663.88 244.898 652.547 244.898 641.368 245.205L606.605 246.43C606.831 244.902 607.611 243.51 608.798 242.521C609.984 241.533 611.494 241.016 613.037 241.07C612.793 238.682 613.107 236.271 613.956 234.026C614.375 233.237 614.989 232.569 615.74 232.087C616.491 231.604 617.353 231.322 618.244 231.269C620.082 231.422 621.307 233.719 622.226 235.251C622.374 233.101 622.838 230.986 623.604 228.972C623.797 227.866 624.333 226.848 625.135 226.062C625.494 225.666 625.96 225.383 626.477 225.247C626.993 225.111 627.538 225.129 628.045 225.297C628.564 222.446 629.968 219.832 632.057 217.825C634.146 215.819 636.815 214.521 639.684 214.117C640.977 213.885 642.31 214.045 643.512 214.577C644.222 214.938 644.84 215.457 645.318 216.094C645.796 216.731 646.121 217.469 646.269 218.252C646.574 219.82 646.574 221.432 646.269 222.999C645.995 225.895 645.483 228.764 644.737 231.575C645.702 230.305 646.836 229.171 648.106 228.206L649.485 227.441C650.25 227.441 650.863 228.206 651.169 228.972C651.272 229.74 651.219 230.521 651.016 231.269C652.088 231.116 652.701 230.044 653.619 229.738C654.538 229.431 656.988 230.963 656.988 232.647C656.708 234.454 655.848 236.12 654.538 237.395C655.407 236.594 656.387 235.924 657.448 235.404C657.992 235.224 658.572 235.186 659.135 235.293C659.698 235.4 660.224 235.649 660.664 236.016C661.053 236.537 661.335 237.131 661.493 237.762C661.65 238.393 661.681 239.049 661.583 239.692C661.959 239.226 662.47 238.888 663.045 238.724C663.621 238.56 664.233 238.577 664.799 238.773C665.063 238.891 665.296 239.071 665.478 239.297C665.66 239.522 665.786 239.788 665.846 240.072C665.906 240.355 665.898 240.649 665.822 240.929C665.746 241.209 665.606 241.467 665.411 241.683L670.465 242.142Z" fill="#327770"/>
</g>
<path d="M719.469 224.838C721.224 223.871 723.23 223.455 725.224 223.647C727.219 223.838 729.109 224.627 730.648 225.91C732.027 227.135 733.099 229.126 732.027 230.657C731.612 231.093 731.113 231.439 730.56 231.676C730.007 231.913 729.412 232.035 728.811 232.035C710.714 234.435 692.376 234.384 674.293 231.882C675.212 231.116 674.906 229.432 674.752 228.207C674.475 227.051 674.454 225.849 674.693 224.685C674.931 223.52 675.422 222.422 676.131 221.469C676.885 220.532 677.956 219.905 679.142 219.708C680.328 219.51 681.546 219.755 682.562 220.397C682.716 215.956 686.544 212.28 690.526 210.136C692.91 208.801 695.603 208.114 698.336 208.146C699.723 208.182 701.072 208.602 702.235 209.359C703.397 210.116 704.327 211.18 704.921 212.433C707.831 209.064 713.497 209.524 716.713 212.587C718.168 214.23 719.184 216.216 719.666 218.358C720.148 220.5 720.08 222.729 719.469 224.838Z" fill="#8EA565"/>
<g style="mix-blend-mode:multiply" opacity="0.47">
<path d="M719.317 227.287C719.601 227.274 719.885 227.322 720.149 227.427C720.413 227.533 720.651 227.694 720.848 227.9C722.226 227.287 724.217 226.828 724.983 228.206C725.749 229.584 725.289 228.972 725.596 229.278C725.902 229.584 728.811 229.278 729.118 230.656C729.424 232.035 705.994 233.719 703.39 233.719C698.434 233.87 693.473 233.716 688.536 233.26L681.338 232.647C680.266 232.647 675.059 231.269 674.294 231.881C673.528 232.494 674.906 229.431 674.753 228.206C674.376 226.535 674.65 224.782 675.519 223.306C675.831 222.849 676.296 222.521 676.831 222.38C677.365 222.239 677.933 222.296 678.429 222.54C678.807 222.828 679.12 223.194 679.347 223.612C679.998 224.527 680.562 225.501 681.032 226.521C681.072 225.623 681.279 224.74 681.644 223.918C681.807 223.489 682.103 223.124 682.489 222.876C682.875 222.628 683.331 222.51 683.788 222.54C685.014 222.693 685.932 224.071 687.157 223.918C686.69 221.607 687.009 219.206 688.063 217.097C689.118 214.988 690.847 213.292 692.977 212.279C693.697 211.927 694.492 211.757 695.293 211.784C696.094 211.811 696.876 212.033 697.571 212.433C698.949 213.505 698.949 215.495 699.102 217.18C700.021 215.955 701.706 214.577 702.931 215.649C703.21 215.894 703.425 216.203 703.559 216.55C703.692 216.896 703.739 217.27 703.697 217.639C704.003 219.171 704.156 220.855 704.309 222.387C705.505 220.604 707.009 219.048 708.75 217.793C710.128 216.721 711.966 215.955 713.344 216.721C713.912 217.134 714.355 217.695 714.625 218.343C714.896 218.992 714.982 219.702 714.876 220.396C714.76 222.396 713.947 224.292 712.579 225.756C713.497 224.837 715.029 223.918 716.101 224.684C717.173 225.45 716.56 227.593 715.641 228.819C716.362 228.168 717.191 227.65 718.092 227.287C718.497 227.212 718.912 227.212 719.317 227.287Z" fill="#8EA565"/>
</g>
<path d="M311.657 336.477C312.525 329.964 315.174 323.817 319.314 318.713C323.602 313.813 330.034 310.444 336.619 311.056C343.204 311.669 349.329 316.722 350.095 323.154C351.775 321.551 353.993 320.632 356.314 320.575C358.636 320.519 360.896 321.329 362.652 322.848C364.299 324.466 365.264 326.652 365.349 328.959C365.435 331.265 364.634 333.517 363.112 335.252C364.33 334.216 365.877 333.648 367.476 333.648C369.075 333.648 370.622 334.216 371.841 335.252C373.003 336.382 373.696 337.908 373.781 339.527C373.866 341.145 373.337 342.736 372.3 343.981C375.363 342.909 378.885 342.297 381.795 343.522C384.704 344.747 386.848 348.422 385.623 351.332C386.155 350.988 386.755 350.761 387.381 350.668C388.008 350.574 388.647 350.616 389.257 350.79C389.866 350.964 390.431 351.266 390.913 351.677C391.396 352.087 391.785 352.596 392.055 353.17C365.715 353.17 339.375 352.404 313.035 351.026C311.205 351.062 309.401 350.584 307.828 349.647C306.763 348.789 306.007 347.607 305.676 346.28C305.344 344.954 305.455 343.555 305.991 342.297C307.163 339.769 309.161 337.716 311.657 336.477Z" fill="#608C53"/>
<path d="M315.947 327.287C319.752 324.789 324.27 323.606 328.811 323.918L325.748 326.981C328.395 326.265 331.171 326.16 333.865 326.675L329.424 330.197C333.059 329.424 336.842 329.744 340.297 331.116L337.387 331.575C339.907 331.939 342.257 333.061 344.125 334.791L341.981 335.557C344.628 336.342 347.116 337.586 349.332 339.232C348.107 339.998 348.872 341.836 349.791 342.755C355.764 349.646 363.421 351.177 371.996 352.709C369.461 354.394 366.464 355.25 363.421 355.159L368.321 357.303C363.63 358.825 358.695 359.448 353.773 359.141L355.764 360.672H346.422C348.388 361.596 350.117 362.958 351.476 364.654C344.098 361.458 336.072 360.042 328.045 360.519L329.424 361.438C315.713 363.785 301.736 364.147 287.923 362.51C287.87 362.147 287.95 361.778 288.146 361.469C288.343 361.16 288.644 360.931 288.995 360.825C277.203 359.447 264.492 362.816 253.926 357.762C255.457 358.528 260.358 356.231 261.889 355.618L269.087 352.556C274.115 350.377 278.648 347.199 282.41 343.214C284.554 340.917 286.391 338.314 288.535 336.17C291.397 333.388 294.853 331.294 298.643 330.044C297.29 331.533 296.202 333.242 295.427 335.098C297.077 333.265 298.926 331.621 300.94 330.197L300.48 332.035C302.837 329.759 305.521 327.849 308.443 326.369L307.525 329.125C310.476 326.652 314.006 324.966 317.785 324.225L315.947 327.287Z" fill="#8EA565"/>
<path d="M306.146 337.855C303.352 340.317 300.974 343.212 299.102 346.431C300.78 344.742 303.007 343.709 305.381 343.522C302.564 346.276 300.734 349.882 300.174 353.782C301.95 351.058 304.303 348.758 307.065 347.044C306.149 348.441 305.379 349.93 304.768 351.485C306.725 349.054 309.179 347.07 311.966 345.666L311.2 347.044C313.257 345.807 315.554 345.024 317.938 344.747C315.763 346.336 313.895 348.308 312.425 350.566C314.576 349.068 317.036 348.074 319.623 347.656C317.163 349.685 314.952 351.998 313.038 354.548C314.008 353.81 315.095 353.24 316.254 352.863L314.722 357.151C315.637 355.75 316.775 354.509 318.091 353.476C318.06 354.194 318.111 354.913 318.244 355.62C319.675 353.246 321.427 351.081 323.451 349.188C323.145 350.872 322.685 352.71 322.226 354.395C323.993 351.729 326.42 349.566 329.27 348.116L326.055 355.313C327.703 353.528 329.829 352.252 332.18 351.638C331.414 352.71 330.496 353.629 329.577 354.701L333.405 353.169L332.946 356.232C335.705 353.149 339.432 351.097 343.512 350.413L340.297 355.007C340.939 354.227 341.731 353.581 342.624 353.108C343.518 352.635 344.496 352.343 345.503 352.251C345.052 353.201 344.54 354.122 343.972 355.007C345.044 353.169 348.566 352.097 350.557 352.251C349.332 355.62 352.088 355.773 354.539 356.079C356.989 356.385 362.349 357.457 366.483 356.845C364.524 356.203 362.776 355.038 361.43 353.476C361.889 354.088 365.718 353.629 366.483 353.476C368.244 353.332 369.987 353.024 371.69 352.557C370.006 354.701 366.024 355.16 363.421 355.16L368.321 357.304C363.63 358.826 358.695 359.45 353.773 359.142L355.764 360.673H346.422C348.388 361.598 350.117 362.96 351.476 364.655C344.098 361.46 336.072 360.043 328.045 360.52L329.424 361.439C315.713 363.787 301.736 364.148 287.923 362.511C287.87 362.148 287.95 361.779 288.146 361.47C288.343 361.161 288.644 360.933 288.995 360.826C277.203 359.448 264.492 362.817 253.926 357.764C255.457 358.529 260.358 356.232 261.889 355.62L269.087 352.557C274.29 350.464 278.95 347.218 282.716 343.062C282.716 343.062 281.797 348.116 281.797 348.575C284.166 343.956 288.142 340.361 292.976 338.468L290.526 342.756C291.932 341.333 293.668 340.281 295.58 339.693C293.734 341.906 292.612 344.632 292.364 347.503C294.508 343.825 297.568 340.765 301.246 338.621C300.27 339.928 299.399 341.311 298.643 342.756C300.599 340.411 303.212 338.704 306.146 337.855Z" fill="#608C53"/>
<path d="M323.911 241.529H317.02V339.278H323.911V241.529Z" fill="#38485E"/>
<path d="M322.378 341.53H323.144C324.891 341.074 326.704 340.918 328.504 341.07H331.413C332.026 341.223 333.71 340.917 334.17 341.223C333.231 340.563 332.199 340.046 331.107 339.692C331.728 339.105 332.55 338.777 333.404 338.773C332.707 338.324 331.912 338.048 331.086 337.968C330.26 337.888 329.427 338.006 328.657 338.314L330.954 336.17C329.347 336.354 327.843 337.052 326.666 338.16C326.819 337.548 327.585 336.323 328.35 336.17C327.281 336.281 326.242 336.593 325.288 337.088C326.227 335.894 327.251 334.768 328.35 333.719C327.496 333.719 326.653 333.912 325.884 334.283C325.115 334.654 324.44 335.194 323.909 335.863C324.032 335.573 324.085 335.259 324.062 334.945C323.066 335.559 322.227 336.398 321.612 337.395V335.404C320.722 335.696 319.962 336.292 319.468 337.088C319.801 335.58 320.369 334.132 321.153 332.801C320.558 332.916 319.992 333.152 319.492 333.495C318.992 333.837 318.567 334.278 318.243 334.791L319.621 330.963C318.311 331.463 317.125 332.242 316.146 333.247C315.168 334.252 314.42 335.459 313.955 336.782C313.981 335.453 313.93 334.124 313.802 332.801C313.496 333.719 312.73 334.485 312.424 335.404C312.118 336.323 311.505 338.62 312.271 338.62C310.127 338.467 309.667 336.323 310.127 334.485C309.337 336.165 309.228 338.086 309.821 339.845C309.214 339.215 308.396 338.833 307.523 338.773C308.48 340.107 309.9 341.035 311.505 341.376C315.075 342.216 318.785 342.268 322.378 341.53Z" fill="#8EA565"/>
<path d="M363.227 245H279V292.519H363.227V245Z" fill="#BC3C19"/>
<path d="M359.591 249.494H282.715V288.545H359.591V249.494Z" stroke="white" stroke-width="1.19" stroke-miterlimit="10"/>
<path d="M312.24 266.312H308.538V265.176C308.538 264.646 308.491 264.308 308.396 264.163C308.301 264.018 308.144 263.945 307.923 263.945C307.683 263.945 307.5 264.043 307.374 264.239C307.254 264.434 307.194 264.731 307.194 265.129C307.194 265.64 307.263 266.025 307.402 266.284C307.535 266.542 307.91 266.855 308.529 267.221C310.302 268.275 311.419 269.139 311.88 269.815C312.341 270.49 312.571 271.579 312.571 273.081C312.571 274.173 312.442 274.977 312.183 275.495C311.93 276.012 311.438 276.448 310.706 276.801C309.974 277.148 309.122 277.322 308.15 277.322C307.083 277.322 306.171 277.12 305.414 276.716C304.663 276.312 304.171 275.798 303.937 275.173C303.704 274.548 303.587 273.661 303.587 272.513V271.509H307.288V273.374C307.288 273.949 307.339 274.318 307.44 274.482C307.547 274.646 307.733 274.728 307.998 274.728C308.264 274.728 308.459 274.624 308.585 274.416C308.718 274.207 308.784 273.898 308.784 273.488C308.784 272.585 308.661 271.995 308.415 271.718C308.163 271.44 307.541 270.976 306.55 270.326C305.559 269.67 304.903 269.193 304.581 268.896C304.259 268.6 303.991 268.19 303.776 267.666C303.568 267.142 303.464 266.473 303.464 265.659C303.464 264.485 303.612 263.627 303.909 263.084C304.212 262.541 304.698 262.118 305.367 261.815C306.036 261.506 306.844 261.351 307.79 261.351C308.825 261.351 309.706 261.519 310.431 261.853C311.164 262.188 311.646 262.611 311.88 263.122C312.12 263.627 312.24 264.488 312.24 265.706V266.312ZM320.712 261.673L322.994 277H318.914L318.715 274.245H317.285L317.049 277H312.921L314.947 261.673H320.712ZM318.601 271.528C318.399 269.793 318.197 267.65 317.995 265.1C317.591 268.029 317.339 270.171 317.238 271.528H318.601ZM327.661 261.673V273.933H330.084V277H323.675V261.673H327.661ZM331.06 261.673H337.705V264.741H335.045V267.647H337.535V270.563H335.045V273.933H337.97V277H331.06V261.673Z" fill="white"/>
</svg>
