<svg width="111" height="136" viewBox="0 0 111 136" fill="none" xmlns="http://www.w3.org/2000/svg">
<path d="M68.3223 18.7142L108.241 62.1842L16.5852 47.112L68.3223 18.7142Z" fill="#B2FCE3"/>
<path fill-rule="evenodd" clip-rule="evenodd" d="M108.211 61.9952L16.6777 46.9431L7.50538 102.721L99.0386 117.773L108.211 61.9952ZM92.1079 98.18L60.8329 63.7809L53.4654 109.685L70.1713 94.5727L92.1079 98.18Z" fill="#B2FCE3"/>
<path d="M57.811 6.70276L50.285 52.4694" stroke="black" stroke-linecap="square"/>
<path d="M91.2054 22.4772L76.1534 114.01" stroke="black" stroke-linecap="square"/>
<path d="M68.4619 18.7369L53.4721 109.892" stroke="black" stroke-linecap="square"/>
<path d="M45.4399 14.9512L30.3879 106.484" stroke="black" stroke-linecap="square"/>
<path d="M10.5078 84.2894L7.50357 102.721" stroke="black" stroke-linecap="square"/>
<path d="M102.095 99.1808L99.0376 117.773" stroke="black" stroke-linecap="square"/>
<path d="M15.1466 56.2389L11.3836 79.1222" stroke="black" stroke-linecap="square"/>
<path d="M106.681 71.291L102.918 94.1743" stroke="black" stroke-linecap="square"/>
<path d="M20.3209 24.775L16.6755 46.9432" stroke="black" stroke-linecap="square"/>
<path d="M111.855 39.8273L108.21 61.9955" stroke="black" stroke-linecap="square"/>
<path d="M108.21 61.9952L200.458 77.1649" stroke="black" stroke-linecap="square"/>
<path d="M20.3209 24.775L111.139 39.7095" stroke="black" stroke-linecap="square"/>
<path d="M45.4399 14.9512L91.2065 22.4772" stroke="black" stroke-linecap="square"/>
<path d="M16.6755 46.9431L107.494 61.8776" stroke="black" stroke-linecap="square"/>
<path d="M15.8604 56.3566L106.678 71.291" stroke="black" stroke-linecap="square"/>
<path d="M11.3479 79.3344L102.99 94.4043" stroke="black" stroke-linecap="square"/>
<path d="M10.5403 84.2527L101.706 99.2444" stroke="black" stroke-linecap="square"/>
<path d="M7.46936 102.765L99.0278 117.821" stroke="black" stroke-linecap="square"/>
<path d="M99.0372 117.774L191.286 132.943" stroke="black" stroke-linecap="square"/>
<path d="M57.811 6.70276L128.152 83.6351" stroke="black" stroke-linecap="square"/>
<path d="M50.2849 52.4694L111.908 119.889" stroke="black" stroke-linecap="square"/>
<circle cx="60.9148" cy="63.7657" r="2.64883" transform="rotate(9.33836 60.9148 63.7657)" stroke="black" stroke-width="0.5"/>
<circle cx="68.3231" cy="18.7138" r="2.64883" transform="rotate(9.33836 68.3231 18.7138)" stroke="black" stroke-width="0.5"/>
</svg>
