<svg width="155" height="221" viewBox="0 0 155 221" fill="none" xmlns="http://www.w3.org/2000/svg">
<circle cx="86" cy="30" r="29.6" fill="#B2FCE3" stroke="black" stroke-width="0.8"/>
<path d="M94.6621 31.984H88.1981V38.608H84.8061V31.984H78.3421V28.912H84.8061V22.288H88.1981V28.912H94.6621V31.984Z" fill="black"/>
<path d="M57.5027 219.948C57.4737 220.222 57.6728 220.468 57.9474 220.497L62.4225 220.97C62.6971 220.999 62.9433 220.8 62.9723 220.525C63.0013 220.251 62.8022 220.005 62.5276 219.976L58.5497 219.555L58.9699 215.577C58.9989 215.303 58.7998 215.057 58.5252 215.028C58.2506 214.999 58.0044 215.198 57.9754 215.472L57.5027 219.948ZM58.3144 220.389C136.847 156.862 155.898 110.214 152.873 79.1389C151.36 63.6007 144.329 52.0125 136.541 44.2167C132.648 40.3199 128.564 37.3676 124.878 35.34C121.202 33.3179 117.889 32.1971 115.542 32.0015L115.459 32.9981C117.611 33.1774 120.782 34.2284 124.396 36.2161C127.999 38.1983 132.008 41.0936 135.834 44.9234C143.483 52.5808 150.39 63.9614 151.877 79.2358C154.852 109.786 136.153 156.138 57.6855 219.611L58.3144 220.389Z" fill="black"/>
</svg>
