<svg width="546" height="200" viewBox="0 0 546 200" fill="none" xmlns="http://www.w3.org/2000/svg">
<path d="M138.139 52.8018C145.897 50.2425 153.655 47.0433 159.734 41.6047C161.573 40.0051 163.333 38.0056 163.493 35.6062C163.653 33.2068 162.773 31.6871 161.733 30.0076C158.888 25.4298 154.916 21.6584 150.197 19.0539C145.478 16.4494 140.17 15.0988 134.78 15.1313C136.3 10.8124 133.58 6.09357 129.981 3.45423C120.384 -3.66398 103.828 0.654938 99.9888 12.412C98.3098 10.1718 96.1204 8.36456 93.6027 7.14044C91.0849 5.91633 88.3113 5.31066 85.5125 5.37375C82.729 5.48582 80.0129 6.26322 77.5916 7.64085C75.1703 9.01847 73.1144 10.9562 71.596 13.2918C53.1206 10.6524 32.6458 13.3717 19.1291 26.2485C15.61 29.5277 12.6508 33.5267 11.2911 38.0855C10.5287 40.3608 10.2627 42.7731 10.5111 45.1599C10.7594 47.5466 11.5163 49.8524 12.7308 51.9221C16.4098 57.7606 23.848 59.92 30.6463 61.0398C48.2418 63.999 67.1171 63.2792 84.8726 62.3194C102.628 61.3597 120.944 58.4804 138.139 52.8018Z" fill="white"/>
<path d="M200.204 8.09346C199.25 8.72187 198.341 9.41674 197.485 10.1729C195.006 12.4124 193.726 16.3314 195.645 19.1307C196.613 20.3618 197.88 21.3253 199.325 21.93C205.963 25.2092 213.561 26.1689 220.999 26.7288C233.396 27.6086 246.193 27.4486 257.87 23.2097C260.269 22.2499 263.149 20.3304 262.429 17.771C261.709 15.2117 258.91 15.0517 256.67 14.9717L242.354 14.3319C244.673 12.7323 248.672 12.7323 249.072 9.93299C249.472 7.1337 247.712 6.7338 246.113 6.09396C234.116 1.5351 212.121 0.495366 200.204 8.09346Z" fill="white"/>
<path d="M283.063 7.05273C277.624 6.013 272.106 5.45313 266.747 7.13271C265.467 7.53261 264.028 8.17245 263.708 9.45213C263.569 10.0785 263.642 10.7334 263.918 11.313C264.193 11.8926 264.654 12.3636 265.228 12.6513C270.026 15.6106 279.064 15.2107 283.863 12.9712C285.382 12.2514 286.982 10.8918 286.582 9.29217C286.182 7.69257 284.503 7.29267 283.063 7.05273Z" fill="white"/>
<path d="M352.245 59.2004C332.41 59.6803 312.575 60.1602 292.74 59.0404C288.901 58.8005 284.582 58.3206 281.943 55.4414C279.303 52.5621 279.223 47.6033 281.143 44.0042C283.062 40.4051 286.662 37.9258 290.341 36.0862C295.891 33.3072 301.973 31.7525 308.176 31.5274C312.495 31.3674 317.774 32.807 318.574 36.966C325.772 33.9268 335.369 31.6873 340.648 37.5259C341.928 38.9655 342.807 40.805 344.247 42.0847C345.687 43.3644 349.926 44.804 353.045 45.2039L404.152 52.1622C408.311 52.722 413.19 53.7618 414.869 57.6008L352.245 59.2004Z" fill="white"/>
<path d="M446.061 68.9581C446.301 70.2378 444.622 70.9576 443.342 71.1976C433.533 72.824 423.512 72.6886 413.75 70.7977C414.469 68.3983 417.189 67.2786 419.668 66.7187C423.986 65.5857 428.407 64.889 432.865 64.6392C437.344 64.3993 442.222 64.7192 445.342 67.9184C445.67 68.1944 445.919 68.5534 446.061 68.9581Z" fill="white"/>
<path d="M489.011 133.982C473.254 134.222 457.498 133.742 441.902 133.662C415.829 133.582 389.835 133.342 363.762 134.302C356.478 134.419 349.221 135.223 342.087 136.701C341.951 136.695 341.815 136.72 341.69 136.776C341.565 136.831 341.454 136.915 341.368 137.021C340.808 137.661 341.848 138.461 342.647 138.621C350.245 140.78 358.163 141.58 365.682 144.139C371.52 146.139 373.04 150.697 366.241 152.697C352.805 156.696 338.648 157.416 324.572 157.816C313.935 158.056 303.137 158.376 292.5 158.056C250.83 156.776 208.921 157.176 167.171 157.976C162.293 158.136 157.254 158.216 152.855 160.295C156.782 162.146 160.958 163.413 165.252 164.054C167.811 164.454 172.53 164.374 173.65 167.493C174.29 169.413 172.85 171.332 171.33 172.532C166.292 176.771 159.813 178.61 154.135 181.89C150.376 183.969 145.657 187.648 149.736 191.727C153.815 195.806 163.412 194.366 168.771 194.686L199.643 196.686C192.205 196.206 183.567 198.445 175.969 198.605C166.612 198.845 157.254 198.765 147.896 198.765C124.062 198.845 100.228 198.605 76.3142 198.286C56.9591 198.046 37.604 197.806 18.2488 196.366C13.53 195.966 8.57127 195.566 4.41232 193.167C2.60259 192.269 1.1608 190.771 0.333345 188.928C-0.706393 186.049 0.813224 182.689 3.13264 180.77C5.45206 178.85 8.57127 177.891 11.5305 177.011L59.0386 162.934C55.2795 158.056 47.1216 159.735 41.6829 159.255C36.2443 158.775 29.686 158.216 23.6875 157.656C17.689 157.096 11.8505 157.256 6.33184 154.936C5.85196 154.696 5.21212 154.377 5.21212 153.737C5.21212 153.097 5.692 152.937 6.0919 152.617C11.8504 148.618 19.8484 147.738 26.6467 146.539C34.8847 145.099 43.1226 144.059 51.4405 143.179C52.8358 143.087 54.2101 142.79 55.5195 142.3C57.1191 141.58 57.7589 140.14 58.8786 138.94C60.3365 137.414 61.9748 136.071 63.7574 134.941C76.0743 126.57 88.7111 118.679 101.668 111.267C107.426 107.988 112.465 104.069 118.224 100.95C123.982 97.8308 131.82 94.4716 137.899 90.3926L194.125 60.1602C211.4 50.8825 227.316 40.6451 246.352 35.2865C251.79 33.7668 257.309 32.5671 262.907 32.5671C280.743 32.6471 294.979 42.8845 308.976 52.4821C318.013 58.7206 326.971 65.1989 335.689 71.7573C341.608 76.2362 352.005 88.953 360.083 85.4339L382.557 75.4364C385.357 74.2367 388.396 72.957 391.435 73.5169C394.474 74.0767 395.354 75.0365 397.114 76.2362C407.191 82.9545 417.029 89.9927 426.626 97.1909C427.664 98.1142 428.893 98.7969 430.225 99.1904C431.665 99.4292 433.14 99.3473 434.544 98.9505C439.423 97.9907 444.382 96.871 449.34 97.5108C456.219 98.3906 462.137 102.63 468.136 106.149C490.05 118.945 513.644 119.185 538.278 121.185C540.758 121.425 543.397 121.665 545.636 122.705C538.253 125.208 530.603 126.845 522.842 127.583L526.121 129.663C524.282 131.422 521.562 131.822 519.083 132.062C509.099 133.224 499.061 133.865 489.011 133.982Z" fill="#DDDB94"/>
<g style="mix-blend-mode:multiply" opacity="0.62">
<path d="M489.172 128.863C465.044 129.249 440.924 127.752 417.03 124.384C418.789 123.664 420.069 126.623 418.869 128.063C417.67 129.503 415.43 129.503 413.591 129.343C388.237 127.983 362.163 124.544 336.97 127.583C341.044 127.661 345.064 128.53 348.807 130.143C342.592 132.87 335.915 134.39 329.132 134.621C329.674 134.675 330.198 134.846 330.667 135.122C331.137 135.398 331.541 135.773 331.851 136.221C330.971 137.581 329.132 137.981 327.532 138.221L317.775 139.66L333.291 143.739C334.011 143.979 334.97 144.299 335.13 145.099C335.29 145.899 334.251 146.938 333.211 147.258C331.527 147.764 329.765 147.954 328.012 147.818C329.132 147.978 330.731 148.858 330.172 149.898C329.867 150.269 329.443 150.523 328.972 150.617C309.937 155.896 290.022 156.136 270.427 155.496C261.229 155.256 251.791 154.216 242.434 153.897C233.076 153.577 222.199 153.257 212.041 153.417C189.647 153.657 167.412 156.136 144.938 155.416C145.498 156.616 143.498 157.416 142.139 157.336L117.185 156.776C107.587 156.536 97.27 156.456 89.1121 161.735C87.8324 162.534 86.5527 164.374 87.7524 165.334C88.9521 166.293 90.2318 166.213 89.7519 167.013C84.3133 168.373 78.9546 169.893 73.596 171.652C76.0038 173.276 78.7821 174.266 81.674 174.531C70.9566 175.491 59.8394 176.531 50.0819 181.17C48.5623 181.97 46.8027 183.089 46.7227 184.769C46.6428 186.448 48.7222 188.208 50.6418 189.008C60.7192 193.247 70.7167 193.887 81.434 195.166C92.1513 196.446 104.308 197.566 115.745 198.525C110.307 198.685 105.108 198.605 99.5894 198.605L76.6352 198.285C57.2001 198.045 37.845 197.806 18.5698 196.366C13.771 195.966 8.81225 195.566 4.6533 193.167C2.84357 192.269 1.40178 190.771 0.574323 188.928C-0.465415 186.049 1.0542 182.689 3.4536 180.77C5.853 178.85 8.81225 177.891 11.7715 177.011L59.2796 162.934C55.5205 158.056 47.3626 159.735 41.9239 159.255C36.4853 158.775 29.927 158.215 23.9285 157.656C17.93 157.096 12.0914 157.256 6.6528 154.936C6.09294 154.696 5.53308 154.376 5.4531 153.737C5.37312 153.097 5.93298 152.937 6.33288 152.617C12.1714 148.618 20.0894 147.738 26.8877 146.538C35.1256 145.099 43.3636 144.059 51.6815 143.179C53.1017 143.079 54.5013 142.783 55.8404 142.299C57.3601 141.58 57.9999 140.14 59.1196 138.94C60.5775 137.414 62.2158 136.071 63.9984 134.941C76.3153 126.543 89.0321 118.625 101.989 111.267C107.667 107.988 112.706 104.069 118.545 100.95C124.383 97.8307 132.061 94.4715 138.14 90.3925L194.446 60.1601C204.523 54.7215 214.441 48.803 224.758 43.7642C235.075 38.7255 246.513 32.807 257.39 35.6063C258.19 35.7663 259.149 36.2461 259.149 37.0459C259.149 37.8457 258.829 38.0057 258.51 38.4056C258.19 38.8055 255.95 41.3648 254.59 42.8045C259.467 41.6339 264.534 41.4977 269.467 42.4046C271.063 42.6089 272.564 43.2762 273.786 44.3241C276.425 47.2034 274.346 51.6023 273.946 55.4413C273.226 62.9594 279.464 69.1979 285.623 73.5168C296.66 81.2748 309.217 87.0334 322.493 89.2728C344.648 93.0319 363.123 84.1541 382.798 75.4363C384.318 74.7964 389.117 72.1571 390.556 73.9167C391.996 75.6762 388.317 80.475 386.877 81.9946C388.187 81.4032 389.6 81.077 391.036 81.0349C392.476 81.1149 393.995 81.9946 394.315 83.3543C394.424 84.3847 394.287 85.4263 393.915 86.3935C392.636 92.0721 397.195 97.7507 402.633 99.8302C408.072 101.91 414.07 101.19 419.909 100.47C426.947 99.6702 433.906 98.4705 441.024 97.9106C442.703 97.7507 447.102 96.631 448.222 98.2306C449.342 99.8302 447.422 103.989 445.503 104.949C457.02 104.869 463.818 118.465 474.775 122.145C484.053 125.264 496.13 121.265 502.768 128.463C498.209 128.703 493.73 128.863 489.172 128.863Z" fill="#DDDB94"/>
</g>
<path d="M88.3925 54.4815C86.393 54.8014 84.9534 56.561 83.6737 58.1606C84.0161 57.3538 84.0592 56.4512 83.7953 55.6155C83.5314 54.7797 82.9777 54.0656 82.2341 53.6017C81.4683 53.1752 80.5776 53.0297 79.716 53.1904C78.8543 53.351 78.0759 53.8077 77.5153 54.4815C78.7949 50.8824 77.7552 46.2436 74.476 44.2441C71.1969 42.2446 65.9182 44.0041 65.1984 47.7632C64.0786 43.6042 59.5998 41.1249 55.2808 40.645C51.5149 40.2033 47.7029 40.8964 44.3335 42.6353C40.9641 44.3743 38.1907 47.0799 36.369 50.4054C34.5474 53.7308 33.7603 57.5245 34.1088 61.3002C34.4573 65.0759 35.9255 68.6614 38.3251 71.5972C34.646 69.5977 29.7673 70.6375 26.5681 73.4368C23.3689 76.2361 21.6893 80.395 21.2094 84.6339C20.6495 90.0726 22.0092 95.9911 25.8482 99.9101C29.6873 103.829 36.1657 105.429 41.0444 102.709C39.2849 105.109 41.3643 108.708 44.1636 109.508C46.9629 110.308 50.0022 109.348 52.7215 108.388C53.3613 112.467 57.6802 115.266 61.7592 115.106C65.8382 114.946 69.5973 112.147 71.8367 108.708C73.0364 111.107 75.9956 112.307 78.715 111.907C81.4343 111.507 83.6737 109.748 85.3533 107.668C89.4323 102.789 90.3121 95.9911 90.472 89.5927C90.632 83.1943 90.1521 76.7159 91.9916 70.5575C92.9514 67.3583 94.551 64.2391 94.471 60.9599C94.391 57.6807 91.6717 53.9217 88.3925 54.4815Z" fill="#8EA565"/>
<g style="mix-blend-mode:multiply" opacity="0.31">
<path d="M93.8302 69.0376C94.1848 67.8994 94.347 66.7101 94.3101 65.5185C94.2301 63.1191 92.9504 60.7197 90.711 59.9999C88.4716 59.2801 85.6723 60.9597 85.9122 63.2791C86.1522 61.9994 84.3926 61.0396 83.1929 61.5995C81.9932 62.1594 81.3534 63.3591 80.8735 64.6387C80.3205 66.269 79.9712 67.9615 79.8338 69.6775C79.0282 68.79 78.4516 67.7193 78.1542 66.5583C77.8565 65.4101 77.1442 64.4129 76.1547 63.759C75.1149 63.1991 73.4354 63.679 73.3554 64.8787C74.0875 63.4438 74.5997 61.907 74.875 60.3198C75.0185 59.5251 74.9778 58.7081 74.7559 57.9316C74.5341 57.1551 74.137 56.4399 73.5953 55.8409C72.3956 54.7212 70.3961 54.4013 69.1964 55.521C69.8363 54.3213 68.4766 52.7217 67.1169 52.8017C65.7573 52.8817 64.5576 53.8415 63.7578 54.9612C62.8385 56.2717 62.2005 57.7583 61.8839 59.3275C61.5673 60.8967 61.579 62.5144 61.9183 64.0789C57.9193 60.2398 56.7196 54.4013 55.6798 48.9627C55.6924 48.6274 55.6266 48.2938 55.4878 47.9884C55.3489 47.683 55.1409 47.4141 54.88 47.2031C54.5673 47.0907 54.234 47.0468 53.9029 47.0744C53.5717 47.102 53.2503 47.2005 52.9605 47.3631C50.9142 47.9848 49.0299 49.0498 47.4419 50.4823C45.9223 52.0019 44.9625 54.2414 45.6024 56.3208C44.9594 56.1376 44.2739 56.1716 43.6522 56.4174C43.0304 56.6632 42.5071 57.1071 42.1632 57.6805C41.4827 58.842 41.1496 60.1744 41.2035 61.5195C41.1742 64.9571 42.0725 68.339 43.8038 71.3089C45.5351 74.2788 48.0353 76.7269 51.041 78.3953C48.1617 80.3948 44.0827 79.675 40.9635 77.9154C40.0837 77.4355 39.204 76.7957 38.1642 76.9556C37.1245 77.1156 36.4047 78.5552 37.2844 79.1151C36.4846 77.7554 34.1652 78.0754 33.2854 79.355C32.4057 80.6347 32.7256 82.4743 33.3654 83.9939C34.0053 85.5135 34.965 86.7132 35.4449 88.2328C33.5613 87.5038 31.8858 86.3227 30.5661 84.7937C29.6064 83.7539 28.8066 82.1543 27.5269 81.5945C26.2472 81.0346 25.1275 81.9944 24.4077 83.0341C20.4087 88.3928 21.3684 95.271 25.8473 99.9099C30.3262 104.549 36.1647 105.429 41.0435 102.709C39.2839 105.109 41.3634 108.708 44.1627 109.507C46.962 110.307 50.0012 109.348 52.7206 108.388C53.3604 112.467 57.6793 115.266 61.7583 115.106C65.8373 114.946 69.5963 112.147 71.8358 108.708C73.0355 111.107 75.9947 112.307 78.714 111.907C81.4333 111.507 83.6728 109.747 85.3524 107.668C89.4313 102.789 90.3111 95.9909 90.4711 89.5925C90.631 83.1941 90.4711 78.0754 92.7105 72.2368C93.167 71.2014 93.5414 70.1317 93.8302 69.0376Z" fill="#8EA565"/>
</g>
<g style="mix-blend-mode:multiply" opacity="0.31">
<path d="M88.8721 76.156C88.278 76.1527 87.6953 76.3192 87.1925 76.6359C86.433 77.2081 85.7828 77.9125 85.273 78.7153C84.4732 77.4357 82.3937 77.8356 81.354 78.8753C80.3143 79.915 79.5944 81.4347 78.4747 82.3944C78.3272 82.5753 78.1451 82.725 77.9392 82.8349C77.7332 82.9447 77.5074 83.0125 77.275 83.0343C76.8547 82.9623 76.4651 82.7675 76.1553 82.4744C74.5557 80.7948 74.2358 77.7556 72.0763 77.1157C69.9169 76.4759 68.3973 78.1555 67.0376 79.6751C66.4777 77.9955 65.6779 76.3159 64.2383 75.3562C62.7987 74.3964 59.9994 74.3964 57.9999 75.0363C50.8017 77.5156 46.2428 85.8335 48.0824 93.1917C46.1628 91.5121 43.8434 89.6726 41.2841 90.1525C40.3833 90.3012 39.5436 90.7037 38.8636 91.3129C38.1836 91.922 37.6915 92.7125 37.445 93.5916C37.1855 94.4591 37.1154 95.3723 37.2396 96.2692C37.3638 97.1662 37.6794 98.0259 38.1648 98.7903C35.9278 98.1523 33.6128 97.8293 31.2866 97.8305C30.9875 97.7911 30.6832 97.8292 30.4031 97.9413C30.123 98.0533 29.8764 98.2355 29.687 98.4704C29.5947 98.6406 29.5398 98.8285 29.526 99.0216C29.5122 99.2147 29.5398 99.4085 29.607 99.5901C29.906 100.598 30.461 101.51 31.218 102.239C31.9749 102.968 32.9079 103.488 33.9259 103.749C35.5255 104.149 39.9244 104.149 41.0441 102.629C39.2846 104.949 41.364 108.548 44.1633 109.428C46.9626 110.307 50.0019 109.268 52.7212 108.308C53.361 112.307 57.6799 115.186 61.7589 114.946C65.8379 114.706 69.597 112.067 71.8364 108.628C73.0361 111.027 75.9953 112.147 78.7147 111.747C81.3643 111.226 83.7283 109.745 85.353 107.588C91.1115 100.63 91.5914 87.993 91.0316 79.3552C90.9516 78.3154 90.7916 77.1157 89.9118 76.4759C89.5968 76.2854 89.2397 76.1755 88.8721 76.156Z" fill="#8EA565"/>
</g>
<path d="M84.1543 110.228C81.1951 110.548 77.436 113.747 77.9159 114.067C74.8767 111.987 70.4778 112.787 67.7584 115.346C65.0391 117.906 63.9994 121.745 64.1594 125.344C62.9597 123.104 59.2006 123.744 57.681 125.824C56.1614 127.903 56.3213 130.783 56.4813 133.422C55.1216 130.703 54.4018 127.663 53.0421 124.864C51.6825 122.065 49.603 119.505 46.6438 118.866C43.6845 118.226 40.0054 120.385 40.1654 123.424C40.3253 120.705 37.1261 118.546 34.4868 119.105C31.8475 119.665 29.928 122.385 29.5281 125.104C29.1282 127.823 30.1679 130.623 31.4476 133.022C30.4078 131.902 28.6483 131.102 27.2086 131.662C25.769 132.222 25.3691 134.702 26.8087 135.341C25.658 134.897 24.3879 134.87 23.219 135.264C22.0502 135.659 21.0565 136.45 20.4103 137.501C19.8099 138.561 19.6011 139.799 19.8204 140.998C20.0397 142.196 20.6731 143.28 21.61 144.059C20.0904 142.86 17.0512 144.459 17.2911 146.459C17.5311 148.458 23.2896 147.658 25.0492 147.578L46.0039 146.539C60.3203 145.979 74.6367 145.659 89.0331 145.659C88.6332 136.141 89.8329 126.304 89.1131 116.866C88.9531 114.227 88.7132 111.987 85.9939 110.548C85.4219 110.273 84.7853 110.163 84.1543 110.228Z" fill="#608C53"/>
<g style="mix-blend-mode:multiply" opacity="0.48">
<path d="M83.6725 115.826H83.3525C82.6096 115.897 81.9012 116.174 81.3076 116.626C80.7139 117.079 80.2587 117.688 79.9934 118.386C79.5236 119.802 79.3334 121.296 79.4335 122.784C79.3617 121.075 78.8964 119.406 78.0739 117.906C77.8339 117.426 77.434 116.946 76.8742 117.026C76.3143 117.106 76.3143 117.346 76.1543 117.586C75.2857 118.669 74.8574 120.04 74.9546 121.425L73.0351 118.306C72.7952 117.986 72.5552 117.506 72.1553 117.346C71.7554 117.186 70.3158 117.986 69.9159 118.865C69.161 120.428 68.7358 122.129 68.667 123.863C68.5982 125.596 68.8872 127.326 69.516 128.943C67.8364 128.783 66.7167 126.463 64.9572 126.783C63.1976 127.103 63.1976 128.223 62.7977 129.343C62.3704 130.905 62.1817 132.523 62.2378 134.142C60.7982 133.582 60.2383 131.342 58.7187 131.502C57.1991 131.662 57.1991 132.782 57.0391 133.822C56.6933 135.912 56.6663 138.042 56.9592 140.14C55.9194 139.74 55.2796 138.7 54.6397 137.741C54.1235 136.727 53.2349 135.953 52.1604 135.581C51.1206 135.341 49.761 136.381 50.1609 137.501C50.3026 134.023 49.7871 130.55 48.6413 127.263C48.204 127.457 47.8298 127.77 47.5612 128.166C47.2926 128.562 47.1403 129.025 47.1216 129.503C47.1974 127.6 46.6651 125.723 45.602 124.144C44.8822 123.264 43.9224 122.385 42.8027 122.624C42.4323 122.747 42.0916 122.945 41.8024 123.207C41.5131 123.469 41.2818 123.788 41.1231 124.144C40.0034 126.384 40.7232 129.103 41.4431 131.502C40.8832 130.622 40.3233 129.743 39.6835 128.863L39.2836 128.383C39.0289 128.306 38.7543 128.329 38.5162 128.448C38.2781 128.567 38.0948 128.773 38.0039 129.023C37.8997 129.56 37.9553 130.116 38.1639 130.622C37.8362 129.038 37.2982 127.505 36.5643 126.064C36.0044 124.944 35.0447 123.744 33.765 123.984C32.4853 124.224 32.0854 125.264 31.8455 126.304C30.8057 130.303 32.4053 134.461 33.925 138.221L31.6055 136.781C31.3175 136.581 30.9904 136.445 30.6458 136.381C30.3642 136.454 30.1158 136.62 29.9413 136.852C29.7669 137.085 29.6768 137.37 29.686 137.661C29.7935 138.244 30.0404 138.793 30.4058 139.26C28.7263 137.741 26.0869 136.461 24.3274 137.901C23.7545 138.372 23.3455 139.013 23.1588 139.731C22.9721 140.45 23.0171 141.209 23.2876 141.9C23.782 143.297 24.6374 144.539 25.767 145.499C24.301 145.405 22.8298 145.432 21.3681 145.579C21.0195 145.629 20.6892 145.766 20.4083 145.979C20.3393 146.093 20.2947 146.22 20.2775 146.352C20.2604 146.484 20.2709 146.619 20.3085 146.747C20.3462 146.875 20.41 146.993 20.4961 147.095C20.5821 147.197 20.6884 147.28 20.8082 147.338C22.0879 148.218 23.6875 147.658 25.0472 147.578C27.6865 147.418 30.4058 146.219 32.8852 146.299C32.0054 145.979 31.0457 145.659 30.7258 144.779C30.6661 144.379 30.7346 143.97 30.9213 143.611C31.108 143.251 31.4035 142.96 31.7655 142.779C32.5225 142.522 33.3474 142.551 34.0849 142.859C33.685 142.3 34.2449 141.42 34.9647 141.26C35.6663 141.189 36.3711 141.358 36.9642 141.74C34.9647 136.941 43.3626 135.501 43.6825 140.3C43.5761 139.577 43.6307 138.84 43.8425 138.141C43.9481 137.804 44.1622 137.511 44.4516 137.308C44.741 137.106 45.0892 137.005 45.4421 137.021C45.7674 137.102 46.0683 137.261 46.319 137.484C46.5697 137.707 46.7627 137.987 46.8817 138.301C47.6012 139.482 47.9881 140.836 48.0014 142.22C48.1614 141.18 49.761 140.86 50.6408 141.5C51.3875 142.249 51.9133 143.19 52.1604 144.219C52.3203 144.539 52.4003 144.859 52.7202 144.939C53.0401 145.019 53.9199 144.459 54.5598 143.979C56.7192 142.379 60.0784 146.618 62.1579 144.859C62.9577 144.219 63.3576 142.779 64.3973 142.939C65.437 143.099 65.437 144.219 65.3571 145.019C65.757 144.299 66.9566 144.539 67.7564 144.779C70.7157 145.819 73.8349 145.579 76.8742 145.739C79.9134 145.899 84.9521 145.659 89.0311 145.659C89.271 145.659 89.0311 119.905 88.7112 117.346C88.7183 117.035 88.6349 116.73 88.4712 116.466C88.0714 115.826 87.0316 115.986 86.5517 116.626C86.1381 117.241 85.9155 117.964 85.9119 118.705C86.2318 117.426 85.0321 115.986 83.6725 115.826Z" fill="#608C53"/>
</g>
<path d="M242.433 194.926L256.59 191.727C252.911 192.607 247.792 192.127 244.033 191.807C240.274 191.487 235.875 191.567 231.796 191.567C222.998 191.487 214.2 191.407 205.403 191.167C196.605 190.927 187.007 190.607 177.81 190.367C168.612 190.127 160.534 190.047 152.056 188.528C151.265 188.456 150.513 188.149 149.897 187.648C146.617 184.609 161.014 179.09 162.933 178.05C163.647 177.751 164.258 177.251 164.693 176.611C167.812 170.932 141.979 169.573 138.619 169.413C128.382 169.093 117.825 169.413 107.747 167.333C105.988 167.013 103.828 166.053 103.908 164.294C104.011 163.76 104.229 163.254 104.547 162.812C104.864 162.37 105.274 162.003 105.748 161.735C110.866 157.896 118.145 156.456 124.143 154.296L134.86 150.377C137.66 149.338 141.419 147.098 144.378 146.858C142.218 147.018 140.059 147.098 137.82 147.098C128.302 147.178 117.985 145.978 108.627 148.378C98.6166 150.955 88.7627 154.106 79.1143 157.816C77.0511 158.493 75.1076 159.491 73.3558 160.775C71.6762 162.214 70.3965 164.214 70.5565 166.373C70.6533 167.755 71.1852 169.071 72.0761 170.132C74.2356 172.692 77.5947 173.812 80.8739 174.611C90.6314 177.091 100.709 177.97 110.706 178.29L126.063 178.53C130.381 178.61 134.46 178.29 138.779 178.93C139.659 179.01 140.699 179.49 140.539 180.29C140.419 180.641 140.196 180.948 139.899 181.17C137.904 182.578 135.79 183.809 133.581 184.849L127.422 188.128C126.398 188.544 125.531 189.272 124.943 190.207C122.064 196.446 145.978 197.646 149.017 197.885C165.413 199.485 181.889 199.325 198.364 199.725C219.239 200.285 240.114 200.125 260.909 197.965C266.107 197.406 271.306 196.766 276.425 195.966L242.433 194.926Z" fill="#EAEAD0"/>
<path d="M435.105 110.947C437.025 110.627 439.264 110.947 440.384 112.547C440.656 113.158 440.977 113.747 441.344 114.306C443.343 116.706 447.742 113.986 450.222 115.906C448.302 117.585 445.503 117.665 442.943 117.585L387.038 116.706C386.31 116.795 385.573 116.625 384.958 116.226C384.318 115.746 384.158 114.706 384.798 114.386C363.363 113.906 341.769 119.585 320.494 116.786C319.304 116.73 318.16 116.311 317.215 115.586C316.335 114.866 316.015 113.266 316.815 112.467C302.739 113.426 288.582 113.986 274.426 114.386C269.227 114.546 261.629 116.386 257.55 112.627C253.471 108.868 252.751 104.149 252.751 99.19C252.831 89.5924 257.63 79.5949 267.627 76.9556C274.666 75.0361 283.543 79.6749 283.783 87.0331C286.289 84.4619 289.436 82.6069 292.9 81.6596C296.363 80.7124 300.016 80.7074 303.481 81.6452C306.947 82.5829 310.099 84.4294 312.612 86.9936C315.125 89.5579 316.907 92.7469 317.775 96.2308C320.014 93.1915 325.853 94.7111 326.253 98.4702C329.372 95.7509 334.651 96.6307 337.45 99.6699C340.249 102.709 340.889 107.348 339.849 111.347C342.089 109.188 346.488 110.147 347.607 113.107C349.447 110.547 351.526 108.068 354.326 106.788C357.125 105.508 360.804 105.508 363.044 107.748C365.763 103.109 368.882 98.6302 373.121 95.351C377.36 92.0718 383.039 90.3922 388.237 91.7519C391.916 92.7916 399.434 97.5904 397.675 102.549C398.084 101.509 398.843 100.644 399.821 100.104C400.799 99.5639 401.935 99.382 403.034 99.5899C404.125 99.8654 405.087 100.51 405.757 101.413C406.428 102.317 406.765 103.425 406.713 104.549C406.795 104.224 406.943 103.92 407.146 103.655C407.35 103.389 407.605 103.167 407.897 103.003C408.188 102.839 408.51 102.735 408.842 102.698C409.175 102.661 409.511 102.692 409.832 102.789C410.463 103.008 410.984 103.465 411.283 104.063C411.582 104.661 411.635 105.352 411.431 105.988C414.231 104.309 417.43 103.109 420.549 103.509C423.668 103.909 426.788 106.548 426.868 109.827C426.868 110.627 426.788 111.667 427.427 112.227C427.887 112.493 428.419 112.605 428.947 112.547C431.026 112.307 432.866 111.427 434.866 111.027L435.105 110.947Z" fill="#327770"/>
<g style="mix-blend-mode:multiply" opacity="0.34">
<path d="M421.669 117.265L410.232 117.105L387.037 116.705C386.309 116.795 385.573 116.625 384.958 116.225C384.318 115.746 384.158 114.706 384.798 114.386C363.363 113.906 341.769 119.585 320.494 116.785C319.304 116.729 318.16 116.311 317.215 115.586C316.335 114.866 316.015 113.266 316.815 112.466C302.739 113.426 288.582 113.986 274.426 114.386C269.227 114.546 261.629 116.385 257.55 112.626C253.471 108.867 252.751 104.148 252.751 99.1897C252.751 94.2309 254.511 87.4326 258.19 82.9538C261.869 78.4749 267.867 74.5559 272.106 79.2747C274.186 81.5941 274.586 84.9533 274.346 88.0725C274.106 91.1917 273.306 94.2309 273.466 97.3501C273.995 96.515 274.777 95.8705 275.697 95.5109C276.618 95.1512 277.63 95.095 278.585 95.3506C279.537 95.6367 280.374 96.216 280.977 97.0059C281.58 97.7958 281.919 98.756 281.944 99.7495C283.304 95.5906 285.783 91.5116 289.622 89.5921C293.461 87.6726 299.06 88.5524 301.219 92.3114C303.379 96.0705 302.339 98.1499 301.939 101.189C302.714 100.061 303.86 99.2414 305.178 98.8727C306.496 98.5039 307.901 98.6097 309.149 99.1717C310.397 99.7336 311.407 100.716 312.004 101.947C312.602 103.178 312.747 104.58 312.416 105.908C313.776 105.108 314.576 103.749 315.535 102.469C316.495 101.189 317.695 100.069 319.215 100.069C320.734 100.069 322.254 101.829 321.454 103.109L324.093 101.749C324.459 102.041 324.76 102.404 324.98 102.817C325.2 103.229 325.334 103.683 325.373 104.148C326.573 102.709 328.332 101.429 330.172 101.589C332.011 101.749 333.531 104.468 332.091 105.748C334.091 105.508 334.971 109.027 333.131 109.747C334.891 108.227 338.25 110.547 337.37 112.706C337.53 111.587 339.209 111.267 340.169 111.827C341.129 112.386 341.929 113.426 342.969 113.906C344.008 114.386 347.767 113.826 349.527 112.146C351.286 110.467 352.966 108.467 355.285 107.748C357.605 107.028 360.804 108.707 360.324 111.107C360.695 110.594 361.166 110.161 361.708 109.833C362.25 109.506 362.853 109.291 363.48 109.202C364.107 109.112 364.745 109.15 365.357 109.312C365.969 109.474 366.542 109.758 367.042 110.147C368.082 107.508 369.122 104.788 371.201 102.869C373.281 100.949 376.64 100.069 378.88 101.749C379.759 98.5498 382.799 95.7505 386.078 96.2304C389.357 96.7103 391.436 101.349 388.957 103.589C389.277 102.149 391.676 102.389 392.396 103.669C393.116 104.948 392.636 106.548 392.156 107.987C392.636 105.828 396.475 105.908 396.875 108.067C397.275 106.708 397.995 105.188 399.274 104.708C400.554 104.228 402.554 105.268 402.154 106.628C401.834 105.428 403.833 104.708 404.793 105.588C405.753 106.468 405.753 107.907 405.753 109.107C404.953 107.748 407.352 106.228 408.632 107.188C409.912 108.147 409.912 110.147 409.192 111.587C410.712 109.667 412.471 107.588 414.95 107.348C417.43 107.108 419.749 110.547 417.83 112.146C418.949 111.267 420.309 110.467 421.669 110.867C423.028 111.267 422.868 113.506 421.909 114.546C422.21 114.222 422.587 113.98 423.006 113.84C423.426 113.7 423.873 113.668 424.308 113.746C424.735 113.833 425.134 114.025 425.469 114.304C425.804 114.583 426.065 114.941 426.228 115.346C426.629 114.838 427.116 114.405 427.667 114.066C427.939 113.926 428.241 113.852 428.547 113.852C428.853 113.852 429.155 113.926 429.427 114.066C429.667 114.226 429.827 114.386 430.067 114.386C430.307 114.386 430.786 114.066 431.026 113.746C431.456 113.227 431.993 112.809 432.601 112.519C433.209 112.228 433.872 112.074 434.546 112.066C435.905 112.226 437.185 113.506 436.865 114.866C437.232 114.615 437.637 114.426 438.065 114.306C438.296 114.279 438.529 114.338 438.72 114.47C438.911 114.603 439.048 114.8 439.104 115.026C439.104 115.346 438.944 115.746 439.184 115.985C439.216 116.041 439.263 116.086 439.32 116.114C439.377 116.143 439.441 116.154 439.504 116.145L442.464 116.785C442.384 117.345 441.744 117.425 441.184 117.425C434.705 117.265 428.227 117.345 421.669 117.265Z" fill="#34585B"/>
</g>
<path d="M85.033 135.901H50.2417V140.22H52.3212V146.698H85.033V135.901Z" fill="#48678C"/>
<g style="mix-blend-mode:multiply" opacity="0.67">
<path d="M84.9525 140.22H52.3207V143.963H84.9525V140.22Z" fill="#38485E"/>
</g>
<path d="M50.2417 135.901L85.033 125.343V135.901H50.2417Z" fill="#5D90BA"/>
<path d="M85.0324 92.952H51.7607V88.713H49.7612V85.7538H85.0324V92.952Z" fill="#48678C"/>
<g style="mix-blend-mode:multiply" opacity="0.67">
<path d="M85.0312 88.7131H51.7595V92.9361H85.0312V88.7131Z" fill="#38485E"/>
</g>
<path d="M49.7612 85.754L85.0324 76.3164V85.754H49.7612Z" fill="#C6C5B5"/>
<path d="M58.9587 92.9514H55.1196V135.885H58.9587V92.9514Z" fill="white"/>
<path d="M73.6754 92.9514H69.7563V135.885H73.6754V92.9514Z" fill="white"/>
<path d="M60.6385 92.9514H53.5203V94.8709H60.6385V92.9514Z" fill="#38485E"/>
<path d="M75.1946 92.9514H68.0764V94.8709H75.1946V92.9514Z" fill="#38485E"/>
<path d="M84.0734 149.178V86.4739H77.675L119.105 9.05332L178.21 5.85413L219.319 65.919H264.348V114.867L229.477 147.579L164.213 147.658L164.133 149.178H84.0734Z" fill="white"/>
<path d="M119.106 9.05332L171.013 85.7541L219.32 65.919L178.211 5.85413L119.106 9.05332Z" fill="#38485E"/>
<g style="mix-blend-mode:multiply" opacity="0.17">
<path d="M216.279 62.3189C216.521 62.8951 216.844 63.4338 217.239 63.9185C218.678 65.6781 219.478 65.5181 217.639 66.6378C215.799 67.7575 215.639 67.4376 214.759 67.8375L205.882 71.4366L171.01 85.753L119.343 9.37219C119.583 9.69211 128.381 9.45217 129.581 9.53215C133.235 9.5821 136.866 10.1201 140.378 11.1318C147.327 13.039 153.682 16.6704 158.853 21.6891C159.123 21.9507 159.453 22.1429 159.813 22.249C160.135 22.3009 160.464 22.2734 160.773 22.169C165.205 21.0457 169.845 21.0348 174.283 22.1371C178.72 23.2394 182.816 25.4208 186.207 28.4874C189.726 31.6866 192.285 35.7656 194.764 39.6846C195.349 39.2607 196.039 39.0065 196.759 38.9501C197.479 38.8936 198.2 39.0371 198.843 39.3647C200.07 40.0971 201.154 41.0454 202.043 42.164C204.981 45.5443 207.68 49.1255 210.121 52.8813C211.24 54.6408 212.2 56.6403 213.48 58.3999C214.759 60.1594 215.559 60.7193 216.279 62.3189Z" fill="#38485E"/>
</g>
<path d="M171.012 85.7538H229.318L264.349 65.9188H219.32L171.012 85.7538Z" fill="#C6C5B5"/>
<path d="M229.316 85.7538V147.578L264.348 114.867V65.9188L229.316 85.7538Z" fill="#C6C5B5"/>
<path opacity="0.38" d="M264.348 65.9188V70.3977L229.316 91.1925V85.7538L264.348 65.9188Z" fill="#5D90BA"/>
<path d="M151.256 32.4871V35.2064L181.008 82.4745L182.128 81.9946L182.208 31.1274L209.161 70.9574L210.601 70.3176L182.688 29.8477L183.727 26.7285L151.256 32.4871Z" fill="#48678C"/>
<path d="M151.256 32.4871V35.2064L182.688 29.8477L183.727 26.7285L151.256 32.4871Z" fill="#5D90BA"/>
<g style="mix-blend-mode:multiply" opacity="0.67">
<path d="M207.561 70.7969L182.128 70.9568L182.208 81.1943L207.561 70.7969Z" fill="#38485E"/>
</g>
<g style="mix-blend-mode:multiply" opacity="0.34">
<path d="M182.208 79.3551H185.327" stroke="#38485E" stroke-width="0.501377" stroke-miterlimit="10"/>
</g>
<g style="mix-blend-mode:multiply" opacity="0.34">
<path d="M182.128 77.516H190.366" stroke="#38485E" stroke-width="0.501377" stroke-miterlimit="10"/>
</g>
<g style="mix-blend-mode:multiply" opacity="0.34">
<path d="M182.208 75.8357H193.965" stroke="#38485E" stroke-width="0.501377" stroke-miterlimit="10"/>
</g>
<g style="mix-blend-mode:multiply" opacity="0.34">
<path d="M182.208 74.157H197.644" stroke="#38485E" stroke-width="0.501377" stroke-miterlimit="10"/>
</g>
<path d="M182.208 72.3168H205.722" stroke="black" stroke-width="0.501377" stroke-miterlimit="10"/>
<g style="mix-blend-mode:multiply" opacity="0.32">
<path d="M182.208 31.127L182.128 70.9569H209.161L182.208 31.127Z" fill="#48678C"/>
</g>
<g style="mix-blend-mode:multiply" opacity="0.34">
<path d="M183.727 70.9569V33.2864" stroke="#38485E" stroke-width="0.501377" stroke-miterlimit="10"/>
</g>
<g style="mix-blend-mode:multiply" opacity="0.34">
<path d="M185.887 70.9573V36.5659" stroke="#38485E" stroke-width="0.501377" stroke-miterlimit="10"/>
</g>
<g style="mix-blend-mode:multiply" opacity="0.34">
<path d="M188.447 70.9577V40.4054" stroke="#38485E" stroke-width="0.501377" stroke-miterlimit="10"/>
</g>
<g style="mix-blend-mode:multiply" opacity="0.34">
<path d="M191.007 70.9569V44.0836" stroke="#38485E" stroke-width="0.501377" stroke-miterlimit="10"/>
</g>
<g style="mix-blend-mode:multiply" opacity="0.34">
<path d="M193.965 70.9575V48.4832" stroke="#38485E" stroke-width="0.501377" stroke-miterlimit="10"/>
</g>
<g style="mix-blend-mode:multiply" opacity="0.34">
<path d="M197.164 70.9576V53.202" stroke="#38485E" stroke-width="0.501377" stroke-miterlimit="10"/>
</g>
<g style="mix-blend-mode:multiply" opacity="0.34">
<path d="M200.204 70.9575V57.5209" stroke="#38485E" stroke-width="0.501377" stroke-miterlimit="10"/>
</g>
<g style="mix-blend-mode:multiply" opacity="0.34">
<path d="M203.403 70.9576V62.3998" stroke="#38485E" stroke-width="0.501377" stroke-miterlimit="10"/>
</g>
<g style="mix-blend-mode:multiply" opacity="0.34">
<path d="M206.522 70.9577V66.7188" stroke="#38485E" stroke-width="0.501377" stroke-miterlimit="10"/>
</g>
<path d="M181.009 82.4744V30.0876L182.688 29.8477L210.601 70.3175L209.162 70.9573L182.208 31.1273L182.128 81.9946L181.009 82.4744Z" fill="#5D90BA"/>
<g style="mix-blend-mode:multiply" opacity="0.45">
<path d="M151.256 32.4873V35.2067L181.008 82.4748V30.0879L182.128 27.0487L178.369 27.6885L151.256 32.4873Z" fill="#48678C"/>
</g>
<path d="M234.914 97.7507V110.068L258.109 93.1918V82.4745L234.914 97.7507Z" fill="#5D90BA"/>
<path d="M236.355 98.7905V107.268L256.67 92.5521V85.7538L236.355 98.7905Z" fill="#38485E"/>
<path d="M245.553 92.8714V100.549L249.632 97.6702V90.2321L245.553 92.8714Z" fill="#5D90BA"/>
<path d="M247.873 89.2731V100.55" stroke="#EAEAD0" stroke-width="0.501377" stroke-miterlimit="10"/>
<path d="M216.28 55.6807H215.16V67.7496H216.28V55.6807Z" fill="#C6C5B5"/>
<path d="M238.435 55.6807H237.395V65.9261H238.435V55.6807Z" fill="#C6C5B5"/>
<path opacity="0.43" d="M236.275 56.7209H217.4V66.7264H236.275V56.7209Z" fill="#5D90BA"/>
<path opacity="0.43" d="M239.794 56.7209V66.7184H262.349V56.7209H239.794Z" fill="#5D90BA"/>
<path d="M264.347 52.8021H203.962L201.323 53.5219H262.828L264.347 52.8021Z" fill="#EAEAD0"/>
<path d="M262.828 53.5211H201.323V55.7126H262.828V53.5211Z" fill="#C6C5B5"/>
<path d="M229.316 68.7981L264.348 52.8021H262.348L229.316 67.7584V68.7981Z" fill="white"/>
<path d="M264.348 52.8021V55.6814L229.316 72.3972V68.7981L264.348 52.8021Z" fill="#EAEAD0"/>
<path d="M229.316 85.2735V72.3967L230.276 71.9169V84.7137L229.316 85.2735Z" fill="#EAEAD0"/>
<path d="M248.353 63.279V74.4762L249.632 73.7563V62.7191L248.353 63.279Z" fill="#EAEAD0"/>
<path opacity="0.43" d="M231.157 72.397V83.5142L247.233 74.4765V64.799L231.157 72.397Z" fill="#5D90BA"/>
<path opacity="0.43" d="M250.592 63.2789L262.349 57.6003V65.9183L250.592 72.7965V63.2789Z" fill="#5D90BA"/>
<path d="M263.307 56.2405V66.5579L264.346 65.9181V55.6807L263.307 56.2405Z" fill="#EAEAD0"/>
<path opacity="0.42" d="M119.105 9.05286L171.811 86.4734H77.675L119.105 9.05286Z" fill="#5D90BA"/>
<path opacity="0.42" d="M164.213 86.4731H84.0728V149.193H164.213V86.4731Z" fill="#5D90BA"/>
<path d="M164.133 86.4736V91.1924H229.316V85.7538H171.331L171.811 86.4736H164.133Z" fill="#5D90BA"/>
<path d="M220.679 102.47H169.251V147.642H220.679V102.47Z" fill="#C6C5B5"/>
<path opacity="0.43" d="M217.64 104.789H171.891V147.65H217.64V104.789Z" fill="#5D90BA"/>
<path d="M171.812 106.389H217.72" stroke="#48678C" stroke-width="0.501377" stroke-miterlimit="10"/>
<path d="M171.891 108.867H217.72" stroke="#48678C" stroke-width="0.501377" stroke-miterlimit="10"/>
<path d="M171.891 111.587H217.72" stroke="#48678C" stroke-width="0.501377" stroke-miterlimit="10"/>
<path d="M171.891 114.466H217.72" stroke="#48678C" stroke-width="0.501377" stroke-miterlimit="10"/>
<path d="M217.72 117.346H171.891" stroke="#48678C" stroke-width="0.501377" stroke-miterlimit="10"/>
<path d="M171.891 119.985H217.72" stroke="#48678C" stroke-width="0.501377" stroke-miterlimit="10"/>
<path d="M171.891 122.384H217.72" stroke="#48678C" stroke-width="0.501377" stroke-miterlimit="10"/>
<path d="M171.891 125.024H217.72" stroke="#48678C" stroke-width="0.501377" stroke-miterlimit="10"/>
<path d="M171.811 127.823H217.719" stroke="#48678C" stroke-width="0.501377" stroke-miterlimit="10"/>
<path d="M171.891 130.382H217.72" stroke="#48678C" stroke-width="0.501377" stroke-miterlimit="10"/>
<path d="M171.891 132.862H217.72" stroke="#48678C" stroke-width="0.501377" stroke-miterlimit="10"/>
<path d="M171.891 135.501H217.72" stroke="#48678C" stroke-width="0.501377" stroke-miterlimit="10"/>
<path d="M171.891 137.9H217.72" stroke="#48678C" stroke-width="0.501377" stroke-miterlimit="10"/>
<path d="M171.891 140.459H217.72" stroke="#48678C" stroke-width="0.501377" stroke-miterlimit="10"/>
<path d="M171.891 142.86H217.72" stroke="#48678C" stroke-width="0.501377" stroke-miterlimit="10"/>
<path d="M171.891 145.499H217.72" stroke="#48678C" stroke-width="0.501377" stroke-miterlimit="10"/>
<g style="mix-blend-mode:multiply" opacity="0.49">
<path d="M81.7533 84.3932L119.104 15.4506L166.692 84.3932H81.7533Z" fill="#38485E"/>
</g>
<path d="M119.104 19.0504L163.493 83.2743H86.0723L119.104 19.0504Z" fill="#5D90BA"/>
<g style="mix-blend-mode:multiply" opacity="0.4">
<path d="M119.266 17.3701L165.494 84.3932H166.694L119.106 15.4506L119.266 17.3701Z" fill="#48678C"/>
</g>
<path d="M119.504 21.8496L89.5914 81.9945H160.614L119.504 21.8496Z" fill="#48678C"/>
<path opacity="0.15" d="M89.5914 81.9945L96.9496 79.995L121.663 28.9678L119.504 21.8496L89.5914 81.9945Z" fill="#5D90BA"/>
<g style="mix-blend-mode:multiply" opacity="0.31">
<path d="M96.9496 79.9948H156.935L160.614 81.9942H89.5914L96.9496 79.9948Z" fill="#38485E"/>
</g>
<g style="mix-blend-mode:multiply" opacity="0.23">
<path d="M119.505 21.8496L121.664 28.9678L156.935 79.995L160.614 81.9945L119.505 21.8496Z" fill="#38485E"/>
</g>
<path d="M99.2676 78.5554L121.662 31.6072L154.054 78.5554H99.2676Z" fill="#5D90BA"/>
<g style="mix-blend-mode:multiply">
<path d="M97.0285 80.1549H96.4686C97.2988 79.025 98.0217 77.8201 98.6281 76.5558C106.466 60.9598 113.984 45.2837 121.662 29.6876C121.342 30.4074 126.941 37.1258 127.421 37.8456L145.816 64.159L153.654 75.2762C154.294 76.2359 155.654 77.5156 155.974 78.6353C157.013 81.9145 152.375 80.7148 150.295 79.3551C148.562 78.1307 147.001 76.6779 145.656 75.0362C140.777 69.5176 135.659 64.2389 130.38 59.2002C124.622 62.7993 118.863 66.3984 113.184 70.0775L104.547 75.5161C102.467 76.8758 99.5079 79.5951 97.0285 80.1549Z" fill="#5D90BA"/>
</g>
<path d="M121.664 79.9946V29.2073C121.664 29.1274 121.584 29.1274 121.584 29.2073L96.95 79.9946H156.935L121.664 28.9674" stroke="#C6C5B5" stroke-width="1.00275" stroke-miterlimit="10"/>
<path d="M111.586 49.9225H136.14" stroke="#C6C5B5" stroke-width="1.00275" stroke-miterlimit="10"/>
<path d="M101.03 71.7567H151.178" stroke="#C6C5B5" stroke-width="1.00275" stroke-miterlimit="10"/>
<path d="M155.094 98.7106H91.3499V149.178H155.094V98.7106Z" fill="#5D90BA"/>
<path d="M142.139 99.8297V149.177" stroke="white" stroke-width="0.501377" stroke-miterlimit="10"/>
<path d="M102.869 99.8297V149.177" stroke="white" stroke-width="0.501377" stroke-miterlimit="10"/>
<path d="M92.2312 109.427H154.216" stroke="white" stroke-width="0.501377" stroke-miterlimit="10"/>
<path d="M92.2312 119.985H154.216" stroke="white" stroke-width="0.501377" stroke-miterlimit="10"/>
<path d="M92.2312 131.822H154.616" stroke="white" stroke-width="0.501377" stroke-miterlimit="10"/>
<path d="M91.9111 142.86H154.615" stroke="white" stroke-width="0.501377" stroke-miterlimit="10"/>
<path d="M136.78 98.7106H108.628V149.17H136.78V98.7106Z" fill="#EAEAD0"/>
<path d="M133.661 104.789H112.227V149.234H133.661V104.789Z" fill="white"/>
<path d="M132.06 106.949H113.344V149.178H132.06V106.949Z" fill="#C6C5B5"/>
<g style="mix-blend-mode:multiply">
<path d="M115.104 106.949H113.344V149.178H115.104V106.949Z" fill="#C6C5B5"/>
</g>
<path d="M115.105 122.784H119.584V145.418H132.061V149.177H115.105V122.784Z" fill="white"/>
<path d="M116.143 124.224H118.463V129.503H116.623V125.344" stroke="#38485E" stroke-width="0.501377" stroke-miterlimit="10"/>
<path d="M116.143 131.182H118.783" stroke="#38485E" stroke-width="0.501377" stroke-miterlimit="10"/>
<path d="M156.855 95.6709H89.5914V99.7659H156.855V95.6709Z" fill="white"/>
<path d="M92.2312 99.7502H90.4717V149.186H92.2312V99.7502Z" fill="white"/>
<path d="M109.506 99.8297H107.746V149.265H109.506V99.8297Z" fill="white"/>
<path d="M137.66 99.7502H135.901V149.186H137.66V99.7502Z" fill="white"/>
<path d="M155.976 99.7502H154.217V149.186H155.976V99.7502Z" fill="white"/>
<path d="M229.317 68.7975H166.692V72.3326H229.317V68.7975Z" fill="#EAEAD0"/>
<path d="M166.692 68.7978L171.011 67.7581H229.317V68.7978H166.692Z" fill="white"/>
<path d="M174.53 72.3168H173.25V85.2175H174.53V72.3168Z" fill="white"/>
<path d="M202.764 72.4769H201.484V85.3777H202.764V72.4769Z" fill="white"/>
<path d="M229.316 72.3975H228.036V85.2982H229.316V72.3975Z" fill="white"/>
<path opacity="0.43" d="M200.203 73.197H175.649V84.7221H200.203V73.197Z" fill="#5D90BA"/>
<path opacity="0.18" d="M181.648 73.197L175.649 84.7141H200.203V73.197H199.403L194.285 84.7141H190.366L196.684 73.197H194.924L187.406 84.7141H185.327L193.165 73.197H186.607L178.848 84.7141H177.729L184.047 73.197H181.648Z" fill="white"/>
<path opacity="0.37" d="M209.561 73.197L203.963 84.7141H226.917V73.197H226.197L221.319 84.7141H217.639L223.638 73.197H221.958L214.92 84.7141H212.921L220.359 73.197H214.2L206.922 84.7141H205.882L211.801 73.197H209.561Z" fill="white"/>
<path opacity="0.43" d="M226.917 73.197H203.963V84.7221H226.917V73.197Z" fill="#5D90BA"/>
<g style="mix-blend-mode:multiply" opacity="0.43">
<path d="M119.104 15.4506L81.7533 84.3932L96.4696 80.2343L121.663 47.7624L155.095 79.3545L166.692 84.3932L119.104 15.4506Z" fill="#7C2C1D"/>
</g>
<g style="mix-blend-mode:multiply" opacity="0.65">
<path d="M90.4717 99.7502H156.055L156.135 108.868L90.4717 129.503V99.7502Z" fill="#5D90BA"/>
</g>
<g style="mix-blend-mode:multiply" opacity="0.65">
<path d="M171.891 104.789H217.72V114.467L171.891 147.578V104.789Z" fill="#5D90BA"/>
</g>
<path d="M328.732 95.7515C322.414 103.909 314.016 108.068 303.699 108.468C297.46 108.788 290.982 107.509 285.623 104.149C281.741 101.603 278.757 97.9016 277.092 93.5675C275.427 89.2335 275.166 84.4859 276.346 79.9954C276.909 77.8129 278.008 75.8059 279.545 74.1569C280.327 73.3541 281.279 72.7364 282.331 72.3489C283.382 71.9614 284.507 71.814 285.623 71.9174C284.903 68.8782 285.143 65.4391 287.063 62.9597C288.982 60.4803 292.742 59.3606 295.301 61.1202C295.825 57.9645 297.58 55.1456 300.18 53.2821C302.133 51.88 304.424 51.0241 306.818 50.8028C309.417 50.4899 312.052 50.7503 314.54 51.5655C317.027 52.3808 319.305 53.7311 321.214 55.5216C323.077 57.3407 324.527 59.5392 325.465 61.968C326.404 64.3967 326.809 66.9989 326.653 69.598C328.573 68.7982 330.492 70.7177 331.532 72.5573C335.371 79.8355 333.771 89.1931 328.732 95.7515Z" fill="#608C53"/>
<g style="mix-blend-mode:multiply" opacity="0.44">
<path d="M324.892 95.9111C324.921 96.3354 324.808 96.7573 324.572 97.1107C322.652 100.39 319.773 103.829 316.414 105.669C307.696 110.387 293.859 109.268 285.622 104.149C281.748 101.688 278.774 98.041 277.144 93.7516C275.624 89.9925 274.584 84.314 277.464 80.8748C278.263 79.995 279.543 79.2752 280.583 79.8351C281.02 80.0355 281.404 80.3371 281.702 80.7149C282.747 81.9895 283.633 83.386 284.342 84.8738C284.242 83.3382 284.517 81.8013 285.142 80.3949C285.263 79.9152 285.545 79.4917 285.941 79.1953C286.901 78.4754 288.181 78.7954 289.301 79.1953C288.579 76.9492 288.254 74.5945 288.341 72.237C288.414 69.878 289.353 67.6286 290.98 65.9186C291.451 65.4058 292.038 65.0144 292.693 64.7777C293.347 64.5409 294.049 64.4659 294.739 64.5589C296.659 64.9588 297.619 67.1983 299.298 68.158C298.738 64.399 301.058 60.7199 304.097 58.4805C304.853 57.8362 305.762 57.3958 306.736 57.2008C307.225 57.1293 307.724 57.1963 308.176 57.3943C308.629 57.5922 309.016 57.9131 309.296 58.3205C309.456 58.6404 309.695 59.0403 310.015 59.1203C310.262 59.1001 310.491 58.9855 310.655 58.8004C311.695 57.9206 312.975 57.1208 314.334 57.3607C315.694 57.6007 317.214 60.0801 317.374 62.1595C317.437 64.3721 317.056 66.575 316.254 68.6379C316.814 69.0378 317.534 68.398 318.093 68.158C318.653 67.9181 320.493 68.5579 320.893 69.5977C321.228 70.724 321.2 71.9272 320.813 73.0368C319.985 75.9989 318.915 78.888 317.613 81.6746C318.98 79.4132 320.983 77.6049 323.372 76.4759C323.919 76.1471 324.528 75.9347 325.162 75.8522C325.795 75.7696 326.438 75.8186 327.051 75.9961C328.811 76.6359 329.45 78.8753 329.051 80.6349C328.514 82.3884 327.553 83.982 326.251 85.2737C327.051 84.4739 328.331 83.5941 329.211 84.314C330.09 85.0338 329.69 85.9935 329.371 86.7933C327.817 90.6026 325.065 93.8029 321.532 95.9111C322.053 95.4379 322.686 95.1073 323.372 94.9513C323.699 94.899 324.033 94.9676 324.313 95.1443C324.593 95.321 324.799 95.5936 324.892 95.9111Z" fill="#327770"/>
</g>
<path d="M303.058 95.0312C306.275 91.4475 308.58 87.1398 309.776 82.4744L311.056 82.7143C311.935 82.8743 310.016 88.073 309.856 88.7128C309.16 90.2905 308.303 91.7915 307.297 93.1917C306.497 94.2314 304.977 95.5111 304.577 96.7908C304.433 97.3116 304.406 97.8578 304.497 98.3904C304.897 106.228 305.297 114.066 305.457 121.904C305.457 122.704 305.537 135.341 305.937 135.341C304.732 135.262 303.522 135.343 302.338 135.581C302.498 127.103 302.258 118.625 301.938 110.147C301.858 107.428 301.618 104.949 299.459 103.109C297.303 101.357 295.533 99.179 294.26 96.7108C293.941 96.1503 293.776 95.5159 293.78 94.8713C293.775 94.5486 293.885 94.2347 294.09 93.9856C294.295 93.7365 294.582 93.5685 294.9 93.5116C295.293 95.2092 296.056 96.7992 297.134 98.1679C298.212 99.5366 299.58 100.65 301.138 101.43C300.338 94.3114 299.698 87.1132 299.139 79.915L301.138 79.5151C301.618 84.7938 302.178 90.1525 302.658 95.4311L303.058 95.0312Z" fill="#845F46"/>
<path d="M325.853 136.301C324.14 136.641 322.4 136.828 320.654 136.861C314.736 136.941 308.817 137.181 302.979 136.941C301.859 136.861 300.499 136.781 299.859 135.821C299.631 135.452 299.469 135.046 299.38 134.621C299.234 133.61 299.325 132.578 299.644 131.607C299.963 130.636 300.502 129.751 301.219 129.023C301.699 128.543 305.618 126.224 305.698 128.063C305.659 126.562 306.015 125.077 306.731 123.758C307.447 122.438 308.497 121.33 309.777 120.545C311.066 119.801 312.528 119.409 314.016 119.409C315.504 119.409 316.966 119.801 318.255 120.545C319.059 119.533 320.222 118.869 321.502 118.691C322.782 118.512 324.082 118.832 325.133 119.585C326.137 120.401 326.783 121.577 326.933 122.862C327.082 124.147 326.723 125.439 325.933 126.463C327.533 126.144 328.972 127.743 329.052 129.343C329.035 130.147 328.839 130.937 328.479 131.656C328.12 132.375 327.605 133.005 326.973 133.502C327.141 133.549 327.295 133.635 327.424 133.753C327.553 133.871 327.653 134.017 327.715 134.181C327.777 134.344 327.8 134.519 327.782 134.693C327.765 134.867 327.706 135.034 327.613 135.181C327.418 135.485 327.16 135.742 326.856 135.935C326.552 136.129 326.21 136.253 325.853 136.301Z" fill="#8EA565"/>
<g style="mix-blend-mode:multiply" opacity="0.45">
<path d="M325.532 135.981L325.292 136.141C324.913 136.304 324.505 136.386 324.092 136.381L321.373 136.621C321.613 135.342 321.773 134.142 322.013 132.942C322.253 131.742 322.093 131.902 321.693 131.662C321.293 131.423 320.493 132.222 319.774 132.462C319.892 132.058 319.917 131.632 319.848 131.217C319.779 130.801 319.616 130.407 319.374 130.063C319.255 129.898 319.099 129.763 318.918 129.67C318.737 129.578 318.537 129.529 318.334 129.529C318.131 129.529 317.93 129.578 317.75 129.67C317.569 129.763 317.413 129.898 317.294 130.063C317.214 130.143 317.134 130.383 316.974 130.463C316.814 130.543 316.494 130.303 316.654 130.223C316.451 130.491 316.347 130.821 316.362 131.157C316.376 131.493 316.508 131.813 316.734 132.062C317.134 132.462 317.774 132.542 318.254 132.942C318.539 133.308 318.694 133.758 318.694 134.222C318.694 134.686 318.539 135.136 318.254 135.502C316.734 137.501 313.695 136.941 311.456 137.021H302.978C301.858 136.941 300.498 136.781 299.859 135.821C299.618 135.488 299.454 135.106 299.379 134.702C298.899 131.583 301.458 127.024 305.057 129.263C305.198 129.044 305.389 128.863 305.615 128.734C305.842 128.606 306.096 128.535 306.356 128.527C306.616 128.519 306.874 128.575 307.107 128.689C307.341 128.803 307.543 128.973 307.697 129.183C307.724 127.92 308.015 126.677 308.552 125.533C309.09 124.39 309.861 123.372 310.816 122.545C311.235 122.127 311.735 121.799 312.285 121.579C312.835 121.359 313.423 121.252 314.015 121.265C314.602 121.326 315.143 121.607 315.53 122.053C315.916 122.499 316.118 123.075 316.094 123.664C316.494 122.625 318.094 122.945 318.574 123.904C319.054 124.864 318.654 125.984 318.334 127.024C318.823 125.593 319.614 124.283 320.653 123.185C321.043 122.656 321.612 122.287 322.253 122.145C323.533 121.985 324.492 123.345 324.332 124.624C324.114 125.821 323.559 126.931 322.733 127.823C322.973 127.104 324.332 127.424 324.572 128.223C324.607 128.627 324.546 129.034 324.393 129.409C324.24 129.785 324 130.118 323.693 130.383C324.332 129.743 325.132 129.023 325.932 129.343C326.732 129.663 326.812 130.783 326.332 131.503C325.817 132.199 325.086 132.705 324.252 132.942C324.652 132.542 325.372 132.942 325.372 133.502C325.377 133.755 325.33 134.006 325.234 134.24C325.138 134.474 324.994 134.686 324.812 134.862C324.894 134.79 324.993 134.741 325.1 134.718C325.206 134.695 325.317 134.7 325.421 134.732C325.525 134.764 325.62 134.822 325.695 134.901C325.77 134.98 325.824 135.076 325.852 135.182C325.865 135.331 325.842 135.481 325.787 135.619C325.731 135.758 325.644 135.882 325.532 135.981Z" fill="#8EA565"/>
</g>
<path d="M270.025 141.1C266.986 139.5 266.266 135.341 267.306 132.142C267.801 131.087 268.203 129.989 268.506 128.863C268.745 127.743 268.665 126.464 268.825 125.264C268.893 122.872 269.899 120.603 271.625 118.946C272.492 118.116 273.589 117.566 274.772 117.367C275.955 117.167 277.171 117.327 278.263 117.826C278.774 116.361 279.76 115.108 281.064 114.268C282.368 113.427 283.916 113.047 285.461 113.187C287.012 113.425 288.433 114.192 289.482 115.359C290.532 116.525 291.146 118.018 291.22 119.585C292.579 118.226 295.059 118.866 296.179 120.385C297.298 121.905 297.538 123.904 297.538 125.824C297.538 127.743 297.618 129.743 298.498 131.422C300.258 130.623 302.257 129.823 304.177 130.303C306.096 130.783 307.616 133.182 306.496 134.782C307.696 133.582 309.135 132.302 310.895 132.142C312.654 131.982 314.654 133.582 314.254 135.261C315.343 134.564 316.612 134.201 317.905 134.215C319.198 134.229 320.459 134.621 321.532 135.341C321.855 135.56 322.128 135.844 322.335 136.174C322.541 136.505 322.677 136.875 322.732 137.261C322.812 138.861 320.892 139.58 319.293 139.9C304.419 142.616 289.25 143.342 274.184 142.06C272.741 142.073 271.316 141.744 270.025 141.1Z" fill="#327770"/>
<g style="mix-blend-mode:multiply" opacity="0.36">
<path d="M270.025 141.019C266.986 139.42 266.266 135.261 267.306 132.062C267.776 130.996 268.176 129.9 268.506 128.783C268.745 127.583 268.665 126.383 268.825 125.183C268.985 121.904 271.305 116.466 275.464 118.705C276.094 119.03 276.622 119.524 276.989 120.131C277.357 120.738 277.548 121.435 277.543 122.144C277.547 121.124 277.765 120.116 278.183 119.185C278.43 118.746 278.813 118.399 279.275 118.197C279.737 117.995 280.252 117.948 280.742 118.065C280.761 117.675 280.86 117.293 281.035 116.944C281.21 116.594 281.456 116.285 281.757 116.037C282.059 115.788 282.409 115.605 282.785 115.5C283.161 115.395 283.555 115.37 283.942 115.426C284.32 115.519 284.677 115.687 284.991 115.919C285.304 116.15 285.569 116.442 285.77 116.776C285.971 117.111 286.103 117.482 286.16 117.868C286.217 118.253 286.197 118.647 286.101 119.025C286.519 118.995 286.935 119.116 287.272 119.365C287.609 119.614 287.846 119.976 287.941 120.385C288.115 121.232 288.088 122.109 287.861 122.944C287.527 124.211 287.072 125.443 286.501 126.623L288.181 124.784C288.697 124.17 289.32 123.655 290.02 123.264C290.377 123.085 290.778 123.012 291.175 123.054C291.572 123.097 291.949 123.253 292.26 123.504C293.059 124.224 292.819 125.503 292.499 126.543C292.979 125.903 294.019 126.223 294.419 126.863C294.57 127.223 294.635 127.613 294.607 128.002C294.579 128.391 294.46 128.768 294.259 129.102C293.939 129.822 293.459 130.462 293.139 131.182C293.539 130.542 294.659 130.782 294.979 131.422C295.27 132.132 295.326 132.917 295.139 133.661C295.03 134.023 295.002 134.404 295.057 134.777C295.112 135.15 295.249 135.507 295.459 135.821C295.859 134.861 296.259 133.821 297.138 133.341C298.018 132.862 299.458 133.181 299.538 134.221C300.003 133.497 300.633 132.894 301.377 132.462C301.758 132.256 302.2 132.191 302.624 132.279C303.049 132.366 303.428 132.601 303.697 132.941C303.9 133.306 303.984 133.726 303.937 134.141C303.881 134.833 303.691 135.506 303.375 136.124C303.059 136.741 302.625 137.291 302.097 137.74C303.611 137.569 305.077 137.108 306.416 136.381C306.755 136.166 307.138 136.03 307.536 135.981C307.936 136.061 308.335 136.541 308.096 136.861C308.217 136.445 308.469 136.08 308.815 135.821C309.161 135.561 309.582 135.421 310.015 135.421C310.815 135.501 311.455 136.701 310.895 137.34C311.615 136.701 312.734 136.141 313.454 136.781C314.174 137.42 313.854 137.58 314.254 137.58L314.734 137.42L316.014 136.541C316.242 136.399 316.505 136.324 316.773 136.324C317.042 136.324 317.305 136.399 317.533 136.541C317.637 136.609 317.724 136.7 317.787 136.808C317.85 136.915 317.886 137.036 317.894 137.16C317.902 137.285 317.881 137.409 317.832 137.524C317.783 137.638 317.708 137.74 317.613 137.82C317.909 137.615 318.244 137.473 318.597 137.402C318.95 137.331 319.313 137.333 319.665 137.408C320.018 137.483 320.351 137.629 320.644 137.838C320.938 138.046 321.185 138.312 321.372 138.62C321.772 139.26 319.613 139.74 319.293 139.82C304.414 142.496 289.25 143.222 274.184 141.979C272.751 141.916 271.341 141.59 270.025 141.019Z" fill="#327770"/>
</g>
<path d="M273.785 126.144C275.145 124.944 277.704 126.224 277.624 128.063C279.064 125.824 282.743 126.224 284.342 128.303C285.942 130.382 285.382 133.582 283.862 135.741C284.524 134.963 285.428 134.43 286.428 134.227C287.429 134.024 288.469 134.163 289.381 134.621C290.264 135.14 290.933 135.956 291.27 136.923C291.607 137.89 291.589 138.945 291.221 139.9C291.857 139.264 292.72 138.906 293.62 138.906C294.52 138.906 295.383 139.264 296.019 139.9C296.656 140.536 297.013 141.4 297.013 142.299C297.013 143.199 296.656 144.063 296.019 144.699C296.178 144.513 296.379 144.368 296.606 144.276C296.833 144.185 297.078 144.149 297.322 144.173C297.565 144.196 297.799 144.278 298.004 144.412C298.209 144.545 298.379 144.726 298.499 144.939C298.711 145.392 298.772 145.901 298.671 146.392C298.57 146.882 298.313 147.326 297.939 147.658C297.225 148.351 296.343 148.847 295.38 149.098C291.9 150.06 288.339 150.703 284.742 151.017C275.625 151.977 266.507 152.537 257.389 153.017C257.059 153.089 256.717 153.091 256.387 153.022C256.056 152.953 255.743 152.815 255.47 152.617C254.99 152.217 254.99 151.177 255.63 151.017L244.592 150.297C241.793 150.138 238.914 149.898 236.674 148.298C234.435 146.698 232.995 143.259 232.755 140.22C232.515 137.181 233.395 133.582 235.715 131.262C238.034 128.943 241.953 128.303 244.512 130.223C243.991 127.669 244.006 125.035 244.556 122.488C245.107 119.941 246.182 117.536 247.712 115.426C249.388 112.983 251.796 111.135 254.59 110.148C255.986 109.636 257.479 109.442 258.959 109.581C260.44 109.719 261.87 110.186 263.148 110.947C266.667 113.187 268.106 117.666 268.106 121.905C268.506 119.505 271.866 118.306 273.785 119.825C275.705 121.345 275.625 124.544 273.785 126.144Z" fill="#8EA565"/>
<g style="mix-blend-mode:multiply" opacity="0.34">
<path d="M268.826 128.943C269.148 129.521 269.39 130.139 269.546 130.782C270.177 133.403 270.526 136.085 270.586 138.78C271.066 136.781 271.626 134.701 273.065 133.261C274.505 131.822 277.224 131.422 278.504 133.021C279.784 134.621 278.744 137.58 277.464 139.5C278.504 138.54 280.184 137.66 281.223 138.62C282.263 139.58 281.303 141.499 280.263 142.619C281.463 141.899 282.903 141.179 284.262 141.499C285.622 141.819 286.662 143.659 285.702 144.619C286.007 143.955 286.475 143.38 287.062 142.946C287.65 142.512 288.337 142.235 289.061 142.139C289.46 142.042 289.879 142.07 290.261 142.219C290.481 142.357 290.671 142.538 290.819 142.751C290.967 142.964 291.07 143.205 291.123 143.459C291.175 143.713 291.175 143.975 291.123 144.23C291.071 144.484 290.969 144.725 290.821 144.939C290.229 145.802 289.394 146.47 288.421 146.858C289.267 146.822 290.103 146.66 290.901 146.378C291.701 146.298 292.82 146.938 292.58 147.738C292.34 148.538 291.621 148.937 292.101 149.417C288.347 150.057 284.52 150.137 280.743 149.657C280.366 149.625 280.005 149.487 279.704 149.257C278.984 148.618 279.704 147.338 279.544 146.378C279.384 145.418 277.704 144.779 276.664 145.338C275.617 145.933 274.8 146.862 274.345 147.978C274.025 146.138 273.225 144.219 271.626 143.419C270.026 142.619 267.467 143.659 267.467 145.498C266.931 144.834 266.168 144.393 265.326 144.26C264.484 144.127 263.622 144.312 262.908 144.779C262.232 145.263 261.759 145.981 261.582 146.793C261.405 147.606 261.535 148.455 261.948 149.177C260.507 148.696 259.115 148.08 257.789 147.338C256.452 146.592 254.896 146.337 253.39 146.618C252.996 146.706 252.623 146.871 252.294 147.105C251.964 147.338 251.684 147.635 251.471 147.978C250.991 148.698 251.391 149.897 251.071 150.377C250.751 150.857 249.551 151.017 248.112 150.777C244.433 149.977 239.954 150.537 236.674 148.218C233.395 145.898 231.476 140.46 234.115 138.22C234.329 138.044 234.576 137.912 234.842 137.832C235.107 137.753 235.386 137.727 235.662 137.757C235.938 137.786 236.205 137.871 236.447 138.006C236.69 138.14 236.903 138.322 237.074 138.54C236.643 137.709 236.51 136.754 236.7 135.836C236.889 134.919 237.388 134.094 238.114 133.501C238.863 132.939 239.753 132.596 240.685 132.511C241.618 132.426 242.555 132.603 243.393 133.021C245.232 133.981 246.592 135.901 248.591 136.461C244.912 129.342 245.072 119.905 250.591 114.226C251.498 113.22 252.658 112.474 253.95 112.067C254.59 111.847 255.28 111.821 255.934 111.992C256.589 112.163 257.178 112.523 257.629 113.027C258.137 113.616 258.47 114.337 258.589 115.106C259.479 118.551 259.696 122.136 259.229 125.663C259.416 124.941 259.742 124.262 260.189 123.664C260.442 123.4 260.774 123.226 261.135 123.169C261.495 123.111 261.865 123.172 262.188 123.344C262.417 123.589 262.593 123.879 262.703 124.196C262.813 124.513 262.856 124.849 262.828 125.183C263.001 127.528 262.975 129.882 262.748 132.222C263.333 130.742 264.266 129.426 265.467 128.383C265.827 128.039 266.267 127.791 266.747 127.663C267.182 127.641 267.614 127.752 267.985 127.981C268.356 128.209 268.649 128.544 268.826 128.943Z" fill="#8EA565"/>
</g>
<path d="M289.381 162.054L283.382 161.814C282.662 161.734 281.703 161.574 281.303 160.855C281.169 160.472 281.185 160.052 281.348 159.681C281.512 159.31 281.81 159.015 282.183 158.855C284.4 158.15 286.675 157.641 288.981 157.335C288.821 155.336 289.381 152.936 291.22 151.897C292.175 151.363 293.291 151.19 294.363 151.41C295.435 151.631 296.392 152.229 297.059 153.096C296.339 151.177 297.939 148.698 299.698 147.818C300.574 147.412 301.571 147.351 302.49 147.648C303.409 147.944 304.183 148.576 304.657 149.417C304.627 148.999 304.748 148.584 304.997 148.247C305.246 147.909 305.608 147.672 306.017 147.578C306.264 147.806 306.441 148.101 306.526 148.427C306.611 148.753 306.601 149.097 306.496 149.417C306.702 149.106 306.991 148.859 307.331 148.703C307.67 148.548 308.046 148.491 308.416 148.538C308.613 148.84 308.689 149.204 308.629 149.56C308.57 149.915 308.38 150.235 308.096 150.457C309.163 149.996 310.368 149.967 311.455 150.377C311.723 150.519 311.959 150.714 312.15 150.949C312.34 151.185 312.481 151.457 312.563 151.748C312.645 152.04 312.667 152.345 312.628 152.646C312.589 152.946 312.489 153.236 312.335 153.496C313.014 153.182 313.783 153.122 314.503 153.328C315.222 153.533 315.844 153.99 316.254 154.616C316.574 155.176 317.134 158.535 315.694 158.295L318.893 158.855C319.853 159.015 321.133 159.575 320.893 160.455C320.768 160.757 320.558 161.017 320.288 161.201C320.018 161.386 319.7 161.488 319.373 161.494C315.037 162.583 310.539 162.881 306.097 162.374C306.084 162.187 306.131 162.001 306.232 161.842C306.333 161.684 306.481 161.562 306.656 161.494C300.915 162.04 295.145 162.227 289.381 162.054Z" fill="#608C53"/>
<g style="mix-blend-mode:multiply" opacity="0.41">
<path d="M289.382 162.054L283.383 161.814C282.823 161.734 281.863 161.734 281.703 161.095C281.63 160.808 281.673 160.505 281.823 160.25C281.973 159.995 282.218 159.81 282.503 159.735C283.185 159.722 283.855 159.918 284.423 160.295C284.573 159.939 284.831 159.639 285.162 159.438C285.492 159.237 285.877 159.145 286.262 159.175L288.502 159.575C289.368 159.675 290.242 159.478 290.981 159.015C290.901 157.735 290.421 156.456 290.821 155.336C290.974 154.996 291.202 154.695 291.487 154.455C291.772 154.215 292.108 154.042 292.469 153.95C292.831 153.858 293.208 153.848 293.573 153.922C293.939 153.996 294.283 154.151 294.58 154.376C294.631 154.22 294.715 154.076 294.827 153.956C294.94 153.836 295.077 153.742 295.23 153.681C295.383 153.62 295.547 153.593 295.711 153.603C295.875 153.612 296.035 153.658 296.18 153.736C296.727 154.107 297.146 154.638 297.38 155.256L298.099 156.696C298.368 155.788 298.476 154.841 298.419 153.896C298.499 153.017 299.219 151.897 300.099 152.057C299.951 151.835 299.861 151.579 299.838 151.313C299.814 151.047 299.857 150.779 299.963 150.534C300.07 150.289 300.236 150.075 300.446 149.911C300.656 149.746 300.905 149.637 301.168 149.593C301.431 149.549 301.701 149.572 301.954 149.659C302.206 149.747 302.432 149.896 302.612 150.093C302.792 150.29 302.92 150.529 302.984 150.788C303.048 151.048 303.046 151.319 302.978 151.577C303.083 151.458 303.212 151.362 303.357 151.297C303.502 151.232 303.659 151.198 303.818 151.198C303.977 151.198 304.134 151.232 304.279 151.297C304.423 151.362 304.553 151.458 304.658 151.577C305.069 152.098 305.269 152.755 305.218 153.416C305.286 153.007 305.394 152.606 305.537 152.217C305.638 152.015 305.802 151.85 306.004 151.749C306.206 151.648 306.435 151.616 306.657 151.657C307.217 151.817 307.377 152.537 307.377 153.177C307.486 152.902 307.672 152.664 307.914 152.494C308.155 152.324 308.441 152.227 308.737 152.217C309.033 152.223 309.322 152.308 309.575 152.463C309.828 152.617 310.035 152.836 310.176 153.097C310.656 154.216 309.856 155.336 309.057 156.216C309.576 155.851 310.183 155.63 310.816 155.576C311.131 155.551 311.444 155.643 311.695 155.835C311.946 156.027 312.118 156.305 312.176 156.616C312.202 156.478 312.258 156.348 312.339 156.235C312.421 156.121 312.526 156.027 312.648 155.958C312.77 155.89 312.906 155.848 313.045 155.838C313.184 155.827 313.325 155.847 313.455 155.896C313.722 156.017 313.939 156.226 314.07 156.488C314.201 156.75 314.238 157.049 314.175 157.336C314.08 157.601 313.931 157.844 313.739 158.05C313.546 158.257 313.314 158.422 313.056 158.535C313.256 158.376 313.498 158.276 313.752 158.248C314.007 158.219 314.265 158.264 314.495 158.375C314.895 158.695 314.815 159.495 314.335 159.575C313.855 159.655 314.895 159.335 315.215 159.415C315.535 159.495 315.695 159.895 315.455 160.055C315.927 159.949 316.414 159.922 316.895 159.975L317.295 160.135C317.694 160.535 317.135 161.095 316.655 161.255C315.203 161.911 313.67 162.368 312.096 162.614C311.616 162.614 306.097 162.614 306.097 162.374C306.085 162.187 306.132 162.001 306.233 161.842C306.334 161.684 306.482 161.562 306.657 161.494C300.916 162.041 295.146 162.227 289.382 162.054Z" fill="#608C53"/>
</g>
<path d="M275.785 162.374L276.745 162.534C278.425 162.694 280.264 161.495 281.784 162.134C283.303 162.774 283.223 163.974 282.424 164.534H285.543C285.747 164.511 285.955 164.536 286.149 164.605C286.343 164.674 286.518 164.787 286.662 164.934C286.982 165.574 286.183 166.133 285.543 166.293C283.655 166.725 281.72 166.913 279.784 166.853C272.986 166.933 266.028 166.293 259.149 166.533C260.749 166.533 263.228 169.173 261.069 170.212C260.526 170.396 259.961 170.503 259.389 170.532C248.832 170.932 238.914 170.932 228.517 168.613C227.743 168.474 227.008 168.175 226.358 167.733C225.078 166.453 226.438 162.454 228.117 164.054C227.708 163.629 227.386 163.127 227.17 162.577C226.954 162.027 226.849 161.44 226.86 160.85C226.871 160.259 226.999 159.677 227.235 159.136C227.471 158.595 227.812 158.105 228.237 157.696C228.663 157.286 229.164 156.964 229.714 156.748C230.264 156.533 230.851 156.427 231.441 156.439C232.032 156.45 232.614 156.577 233.155 156.813C233.696 157.05 234.186 157.39 234.596 157.815C232.436 155.416 232.196 151.337 234.436 148.938C236.675 146.538 240.994 146.538 242.913 149.178C242.685 148.342 242.691 147.46 242.931 146.627C243.171 145.795 243.635 145.045 244.273 144.459C245.579 143.293 247.187 142.517 248.912 142.219C250.837 141.814 252.839 141.981 254.67 142.699C255.588 143.042 256.39 143.636 256.984 144.415C257.578 145.193 257.941 146.123 258.03 147.098C259.709 145.978 262.269 146.858 263.148 148.618C264.028 150.377 263.628 152.697 262.429 154.296C263.948 154.136 265.948 154.056 267.147 155.016C268.347 155.976 269.067 157.656 268.427 158.535C269.307 157.336 271.306 157.736 272.426 158.695C273.546 159.655 274.186 161.734 275.785 162.374Z" fill="#608C53"/>
<g style="mix-blend-mode:multiply" opacity="0.31">
<path d="M276.025 164.854C278.505 164.854 281.384 165.013 283.303 165.973C281.784 166.053 280.344 166.773 278.904 166.773C277.465 166.773 274.506 166.693 272.346 166.693C267.947 166.533 263.548 166.373 259.149 166.453C260.749 166.453 263.228 169.092 261.069 170.132C258.909 171.172 257.31 170.292 255.71 170.292C255.95 169.732 255.39 169.012 254.75 168.853C254.114 168.838 253.484 168.975 252.911 169.252C253.055 169.143 253.171 169 253.248 168.836C253.325 168.673 253.361 168.493 253.353 168.312C253.345 168.131 253.293 167.955 253.203 167.798C253.112 167.642 252.984 167.509 252.831 167.413C252.505 167.254 252.138 167.199 251.781 167.256C251.423 167.314 251.091 167.48 250.831 167.733C251.551 167.013 252.351 166.133 252.351 165.093C252.351 164.054 250.991 163.174 250.272 163.894C250.787 162.969 251.037 161.919 250.995 160.861C250.953 159.802 250.619 158.776 250.032 157.895C249.789 157.487 249.452 157.143 249.048 156.892C248.644 156.641 248.186 156.492 247.712 156.456C246.433 156.376 245.393 157.495 245.073 158.775C244.847 160.024 244.901 161.308 245.233 162.534C244.353 160.935 241.714 161.254 240.594 162.694C239.474 164.134 239.474 166.213 239.554 168.053L237.555 166.773C237.235 166.613 236.995 166.373 236.675 166.373C236.363 166.392 236.069 166.525 235.848 166.746C235.627 166.967 235.494 167.261 235.475 167.573C235.456 168.158 235.594 168.738 235.875 169.252L230.037 168.533C226.758 168.133 228.517 165.653 231.156 166.053C230.428 165.143 229.86 164.115 229.477 163.014C229.32 162.432 229.327 161.818 229.496 161.24C229.665 160.661 229.991 160.14 230.437 159.735C230.955 159.381 231.568 159.191 232.196 159.191C232.824 159.191 233.437 159.381 233.956 159.735C235.007 160.425 235.905 161.323 236.595 162.374C236.308 161.925 236.191 161.389 236.264 160.861C236.338 160.333 236.597 159.849 236.995 159.495C237.427 159.206 237.942 159.065 238.461 159.094C238.981 159.123 239.476 159.32 239.874 159.655C238.994 158.055 237.315 157.255 236.515 155.496C235.715 153.736 235.795 152.217 236.995 151.257C237.46 150.929 238.013 150.746 238.582 150.732C239.152 150.717 239.713 150.872 240.194 151.177C241.17 151.807 242.012 152.622 242.673 153.576C242.349 151.575 242.598 149.523 243.393 147.658C243.803 146.731 244.46 145.934 245.292 145.356C246.125 144.777 247.1 144.439 248.112 144.379C250.112 144.379 252.111 146.058 251.951 148.058C251.951 146.778 253.951 146.138 254.99 147.018C256.03 147.898 255.87 149.577 255.15 150.697C255.63 149.497 257.63 149.817 258.19 150.937C258.749 152.057 258.27 153.416 257.55 154.456C256.83 155.496 255.79 156.376 255.15 157.495C255.69 156.788 256.408 156.236 257.23 155.896C257.429 155.822 257.641 155.79 257.853 155.803C258.065 155.817 258.272 155.874 258.46 155.972C258.649 156.07 258.814 156.206 258.947 156.372C259.079 156.538 259.176 156.73 259.229 156.936C259.389 157.895 258.35 158.695 258.51 159.655C258.929 158.765 259.497 157.954 260.189 157.255C260.526 156.888 260.965 156.63 261.45 156.516C261.935 156.402 262.443 156.437 262.908 156.616C263.134 156.714 263.336 156.861 263.498 157.046C263.661 157.231 263.781 157.45 263.849 157.687C263.918 157.923 263.934 158.172 263.896 158.415C263.857 158.659 263.766 158.891 263.628 159.095C263.855 158.878 264.126 158.712 264.423 158.61C264.72 158.509 265.035 158.473 265.347 158.505C265.659 158.538 265.961 158.638 266.23 158.799C266.5 158.96 266.731 159.177 266.908 159.437C267.084 159.696 267.203 159.991 267.254 160.3C267.305 160.61 267.288 160.927 267.205 161.229C267.121 161.532 266.972 161.812 266.769 162.052C266.566 162.291 266.313 162.483 266.028 162.614C266.859 162.062 267.829 161.757 268.827 161.734C269.867 161.894 270.746 162.934 270.347 163.814C270.376 163.555 270.465 163.306 270.607 163.087C270.75 162.868 270.941 162.686 271.166 162.554C271.391 162.422 271.644 162.344 271.904 162.327C272.165 162.309 272.425 162.353 272.666 162.454C272.901 162.554 273.111 162.703 273.282 162.892C273.453 163.081 273.582 163.305 273.658 163.549C273.734 163.792 273.756 164.049 273.723 164.302C273.69 164.555 273.602 164.798 273.466 165.013L276.025 164.854Z" fill="#608C53"/>
</g>
<path d="M385.836 125.504C386.751 125.146 387.745 125.039 388.715 125.194C389.685 125.348 390.597 125.759 391.355 126.384C389.755 127.344 387.916 127.423 386.076 127.503L352.325 128.703C352.442 127.905 352.85 127.178 353.47 126.662C354.089 126.145 354.878 125.876 355.684 125.904C355.556 124.657 355.721 123.397 356.164 122.225C356.804 121.105 358.243 120.385 359.283 121.025C359.981 117.98 361.503 115.186 363.682 112.947C364.77 111.843 366.11 111.019 367.587 110.545C369.063 110.071 370.632 109.963 372.16 110.228C375.199 110.948 377.758 113.747 377.598 116.866C378.14 116.681 378.732 116.711 379.253 116.949C379.773 117.187 380.183 117.615 380.398 118.146C380.742 119.208 380.77 120.347 380.478 121.425C382.957 120.305 386.236 122.785 385.836 125.504Z" fill="#327770"/>
<g style="mix-blend-mode:multiply" opacity="0.39">
<path d="M385.676 126.463C386.445 126.591 387.196 126.806 387.916 127.103C382.237 127.903 376.319 127.903 370.48 128.063L352.325 128.702C352.442 127.904 352.85 127.178 353.47 126.661C354.089 126.145 354.878 125.875 355.684 125.903C355.556 124.656 355.721 123.397 356.164 122.224C356.382 121.812 356.703 121.464 357.095 121.211C357.488 120.959 357.938 120.812 358.403 120.784C359.363 120.864 360.003 122.064 360.483 122.864C360.56 121.741 360.803 120.636 361.203 119.585C361.303 119.007 361.583 118.475 362.002 118.065C362.19 117.858 362.433 117.71 362.703 117.639C362.973 117.569 363.257 117.577 363.522 117.665C363.793 116.177 364.526 114.811 365.617 113.763C366.709 112.715 368.102 112.038 369.6 111.827C370.276 111.705 370.972 111.789 371.6 112.067C371.971 112.255 372.293 112.526 372.543 112.859C372.793 113.192 372.962 113.577 373.04 113.986C373.199 114.805 373.199 115.647 373.04 116.465C372.897 117.978 372.629 119.476 372.24 120.944C372.744 120.281 373.336 119.689 373.999 119.185L374.719 118.785C375.119 118.785 375.439 119.185 375.599 119.585C375.652 119.986 375.625 120.394 375.519 120.784C376.079 120.704 376.399 120.145 376.879 119.985C377.359 119.825 378.638 120.624 378.638 121.504C378.492 122.448 378.043 123.318 377.359 123.984C377.812 123.566 378.324 123.215 378.878 122.944C379.162 122.85 379.466 122.83 379.759 122.886C380.053 122.942 380.328 123.072 380.558 123.264C380.761 123.536 380.908 123.846 380.991 124.175C381.073 124.505 381.089 124.847 381.038 125.183C381.234 124.94 381.501 124.764 381.802 124.678C382.102 124.592 382.422 124.601 382.717 124.703C382.855 124.765 382.977 124.859 383.072 124.977C383.167 125.095 383.233 125.233 383.264 125.382C383.296 125.53 383.291 125.683 383.252 125.83C383.212 125.976 383.139 126.111 383.037 126.223L385.676 126.463Z" fill="#327770"/>
</g>
<path d="M411.27 117.426C412.186 116.92 413.234 116.704 414.276 116.804C415.317 116.903 416.305 117.315 417.108 117.985C417.828 118.625 418.388 119.665 417.828 120.465C417.612 120.692 417.351 120.873 417.062 120.997C416.774 121.121 416.463 121.185 416.149 121.185C406.697 122.438 397.12 122.411 387.676 121.105C388.156 120.705 387.996 119.825 387.916 119.185C387.771 118.582 387.76 117.954 387.884 117.346C388.009 116.738 388.265 116.164 388.636 115.666C389.029 115.177 389.589 114.85 390.208 114.746C390.828 114.643 391.464 114.771 391.995 115.106C392.075 112.787 394.074 110.867 396.154 109.748C397.399 109.05 398.805 108.692 400.233 108.708C400.957 108.727 401.662 108.946 402.269 109.341C402.876 109.737 403.362 110.293 403.672 110.947C405.191 109.188 408.151 109.428 409.83 111.027C410.59 111.886 411.121 112.923 411.373 114.041C411.624 115.16 411.589 116.324 411.27 117.426Z" fill="#8EA565"/>
<g style="mix-blend-mode:multiply" opacity="0.47">
<path d="M411.19 118.705C411.339 118.698 411.487 118.723 411.625 118.778C411.763 118.833 411.887 118.917 411.99 119.025C412.71 118.705 413.75 118.465 414.15 119.185C414.549 119.904 414.31 119.584 414.469 119.744C414.629 119.904 416.149 119.744 416.309 120.464C416.469 121.184 404.232 122.064 402.872 122.064C400.284 122.143 397.693 122.062 395.114 121.824L391.355 121.504C390.795 121.504 388.076 120.784 387.676 121.104C387.276 121.424 387.996 119.824 387.916 119.185C387.719 118.312 387.862 117.396 388.316 116.625C388.479 116.387 388.722 116.215 389.001 116.142C389.28 116.068 389.577 116.098 389.836 116.225C390.033 116.376 390.197 116.567 390.316 116.785C390.655 117.263 390.95 117.772 391.195 118.305C391.216 117.836 391.325 117.374 391.515 116.945C391.6 116.721 391.755 116.53 391.957 116.401C392.158 116.271 392.396 116.21 392.635 116.225C393.275 116.305 393.755 117.025 394.395 116.945C394.15 115.738 394.317 114.484 394.867 113.383C395.418 112.281 396.322 111.395 397.434 110.867C397.81 110.683 398.225 110.594 398.643 110.608C399.062 110.622 399.47 110.738 399.833 110.947C400.553 111.507 400.553 112.546 400.633 113.426C401.113 112.786 401.993 112.066 402.632 112.626C402.778 112.754 402.891 112.916 402.96 113.097C403.03 113.278 403.055 113.473 403.032 113.666C403.192 114.466 403.272 115.346 403.352 116.145C403.977 115.214 404.762 114.402 405.672 113.746C406.392 113.186 407.351 112.786 408.071 113.186C408.368 113.402 408.599 113.695 408.74 114.034C408.881 114.372 408.926 114.743 408.871 115.106C408.81 116.15 408.386 117.141 407.671 117.905C408.151 117.425 408.951 116.945 409.511 117.345C410.071 117.745 409.751 118.865 409.271 119.504C409.647 119.165 410.08 118.894 410.55 118.705C410.762 118.666 410.979 118.666 411.19 118.705Z" fill="#8EA565"/>
</g>
<path d="M198.282 175.731C198.736 172.33 200.12 169.119 202.281 166.454C204.521 163.894 207.88 162.135 211.319 162.455C214.758 162.775 217.957 165.414 218.357 168.773C219.235 167.936 220.393 167.456 221.606 167.426C222.818 167.397 223.998 167.82 224.916 168.613C225.776 169.458 226.28 170.6 226.324 171.805C226.369 173.009 225.951 174.185 225.156 175.091C225.792 174.55 226.6 174.253 227.435 174.253C228.27 174.253 229.078 174.55 229.715 175.091C230.322 175.681 230.683 176.479 230.728 177.324C230.772 178.169 230.496 179 229.954 179.65C231.554 179.09 233.394 178.771 234.913 179.41C236.433 180.05 237.553 181.97 236.913 183.489C237.191 183.31 237.504 183.191 237.831 183.142C238.158 183.094 238.492 183.115 238.81 183.206C239.128 183.297 239.424 183.455 239.676 183.669C239.928 183.884 240.131 184.15 240.272 184.449C226.515 184.449 212.759 184.049 199.002 183.329C198.046 183.348 197.104 183.099 196.283 182.61C195.727 182.162 195.332 181.544 195.159 180.851C194.985 180.158 195.043 179.428 195.323 178.771C195.935 177.45 196.979 176.378 198.282 175.731Z" fill="#608C53"/>
<path d="M200.523 170.932C202.51 169.627 204.87 169.009 207.242 169.172L205.642 170.772C207.024 170.398 208.474 170.343 209.881 170.612L207.561 172.452C209.46 172.048 211.436 172.215 213.24 172.931L211.72 173.171C213.037 173.361 214.264 173.947 215.24 174.851L214.12 175.251C215.502 175.661 216.801 176.311 217.959 177.17C217.319 177.57 217.719 178.53 218.199 179.01C221.318 182.609 225.317 183.409 229.796 184.209C228.471 185.089 226.906 185.536 225.317 185.488L227.876 186.608C225.427 187.403 222.849 187.729 220.278 187.568L221.318 188.368H216.439C217.466 188.85 218.369 189.562 219.079 190.447C215.225 188.778 211.033 188.038 206.842 188.288L207.561 188.767C200.401 189.994 193.101 190.182 185.887 189.327C185.86 189.138 185.901 188.945 186.004 188.784C186.106 188.622 186.264 188.503 186.447 188.447C180.288 187.728 173.65 189.487 168.131 186.848C168.931 187.248 171.491 186.048 172.29 185.728L176.049 184.129C178.675 182.991 181.043 181.331 183.008 179.25C184.127 178.05 185.087 176.69 186.207 175.571C187.701 174.118 189.506 173.024 191.485 172.372C190.779 173.149 190.211 174.042 189.806 175.011C190.668 174.054 191.633 173.195 192.685 172.452L192.445 173.411C193.676 172.223 195.078 171.225 196.604 170.452L196.124 171.892C197.666 170.6 199.509 169.72 201.483 169.332L200.523 170.932Z" fill="#8EA565"/>
<path d="M195.404 176.451C193.945 177.736 192.703 179.249 191.725 180.93C192.602 180.047 193.765 179.508 195.005 179.41C193.534 180.849 192.578 182.732 192.285 184.769C193.213 183.346 194.441 182.145 195.884 181.25C195.406 181.98 195.004 182.757 194.685 183.569C195.707 182.3 196.988 181.264 198.444 180.53L198.044 181.25C199.118 180.604 200.318 180.195 201.563 180.05C200.427 180.88 199.451 181.91 198.684 183.089C199.807 182.307 201.092 181.788 202.443 181.57C201.158 182.629 200.003 183.837 199.004 185.169C199.51 184.783 200.078 184.486 200.683 184.289L199.883 186.528C200.361 185.797 200.955 185.148 201.643 184.609C201.626 184.984 201.653 185.36 201.723 185.729C202.47 184.489 203.385 183.358 204.442 182.369C204.282 183.249 204.042 184.209 203.802 185.089C204.725 183.697 205.993 182.567 207.481 181.81L205.802 185.569C206.663 184.636 207.773 183.97 209.001 183.649C208.601 184.209 208.121 184.689 207.641 185.249L209.641 184.449L209.401 186.049C210.842 184.438 212.788 183.366 214.92 183.009L213.24 185.409C213.576 185.001 213.989 184.664 214.456 184.417C214.922 184.17 215.433 184.018 215.959 183.969C215.724 184.465 215.456 184.946 215.16 185.409C215.719 184.449 217.559 183.889 218.599 183.969C217.959 185.729 219.398 185.809 220.678 185.969C221.958 186.128 224.757 186.688 226.917 186.368C225.893 186.033 224.981 185.425 224.277 184.609C224.517 184.929 226.517 184.689 226.917 184.609C227.836 184.534 228.746 184.373 229.636 184.129C228.756 185.249 226.677 185.489 225.317 185.489L227.876 186.608C225.427 187.403 222.849 187.729 220.278 187.568L221.318 188.368H216.439C217.466 188.851 218.369 189.562 219.079 190.447C215.225 188.779 211.033 188.039 206.842 188.288L207.561 188.768C200.401 189.994 193.101 190.183 185.887 189.328C185.86 189.138 185.901 188.945 186.004 188.784C186.106 188.623 186.264 188.503 186.447 188.448C180.288 187.728 173.65 189.488 168.131 186.848C168.931 187.248 171.491 186.049 172.29 185.729L176.049 184.129C178.767 183.036 181.201 181.34 183.168 179.17C183.168 179.17 182.688 181.81 182.688 182.05C183.925 179.637 186.001 177.76 188.526 176.771L187.247 179.01C187.981 178.267 188.887 177.718 189.886 177.411C188.922 178.567 188.336 179.99 188.206 181.49C189.326 179.569 190.924 177.971 192.845 176.851C192.335 177.533 191.881 178.256 191.485 179.01C192.507 177.785 193.872 176.894 195.404 176.451Z" fill="#608C53"/>
<path d="M204.682 126.143H201.083V177.194H204.682V126.143Z" fill="#38485E"/>
<path d="M203.882 178.37H204.282C205.195 178.132 206.141 178.05 207.081 178.13H208.601C208.921 178.21 209.801 178.05 210.041 178.21C209.55 177.865 209.011 177.595 208.441 177.41C208.765 177.104 209.194 176.932 209.641 176.93C209.276 176.695 208.861 176.551 208.43 176.509C207.999 176.468 207.564 176.53 207.161 176.69L208.361 175.57C207.522 175.667 206.736 176.031 206.122 176.61C206.201 176.29 206.601 175.65 207.001 175.57C206.443 175.629 205.9 175.791 205.402 176.05C205.892 175.427 206.427 174.839 207.001 174.291C206.555 174.291 206.115 174.391 205.713 174.585C205.312 174.779 204.959 175.061 204.682 175.41C204.746 175.259 204.774 175.095 204.762 174.931C204.241 175.251 203.803 175.69 203.482 176.21V175.17C203.017 175.323 202.621 175.634 202.362 176.05C202.536 175.262 202.833 174.506 203.242 173.811C202.931 173.871 202.636 173.995 202.375 174.173C202.113 174.352 201.892 174.583 201.723 174.851L202.442 172.851C201.758 173.112 201.138 173.519 200.627 174.044C200.116 174.569 199.726 175.199 199.483 175.89C199.496 175.196 199.47 174.502 199.403 173.811C199.243 174.291 198.843 174.691 198.683 175.17C198.523 175.65 198.203 176.85 198.603 176.85C197.484 176.77 197.244 175.65 197.484 174.691C197.071 175.568 197.014 176.571 197.324 177.49C197.007 177.161 196.58 176.961 196.124 176.93C196.624 177.627 197.365 178.111 198.203 178.29C200.068 178.728 202.006 178.755 203.882 178.37Z" fill="#8EA565"/>
<path d="M225.216 127.956H181.227V152.773H225.216V127.956Z" fill="#BC3C19"/>
<path d="M223.317 130.303H183.167V150.697H223.317V130.303Z" stroke="white" stroke-width="0.621499" stroke-miterlimit="10"/>
<path d="M198.587 138.641H196.654V138.048C196.654 137.771 196.629 137.594 196.58 137.519C196.53 137.443 196.448 137.405 196.332 137.405C196.207 137.405 196.111 137.456 196.046 137.558C195.983 137.66 195.952 137.815 195.952 138.023C195.952 138.29 195.988 138.491 196.06 138.626C196.13 138.761 196.326 138.924 196.649 139.116C197.575 139.666 198.158 140.118 198.399 140.47C198.64 140.823 198.76 141.392 198.76 142.176C198.76 142.746 198.692 143.166 198.557 143.437C198.425 143.707 198.168 143.934 197.786 144.119C197.404 144.3 196.959 144.391 196.451 144.391C195.894 144.391 195.418 144.286 195.022 144.075C194.63 143.864 194.373 143.595 194.251 143.269C194.129 142.942 194.068 142.479 194.068 141.879V141.355H196.001V142.329C196.001 142.629 196.027 142.822 196.08 142.908C196.136 142.993 196.233 143.036 196.372 143.036C196.51 143.036 196.613 142.982 196.678 142.873C196.748 142.764 196.782 142.603 196.782 142.389C196.782 141.917 196.718 141.609 196.589 141.464C196.458 141.319 196.133 141.077 195.615 140.737C195.098 140.394 194.755 140.146 194.587 139.991C194.419 139.836 194.279 139.622 194.167 139.348C194.058 139.074 194.004 138.725 194.004 138.3C194.004 137.687 194.081 137.238 194.236 136.955C194.394 136.671 194.648 136.451 194.997 136.292C195.347 136.131 195.769 136.05 196.263 136.05C196.804 136.05 197.263 136.138 197.643 136.312C198.025 136.487 198.277 136.708 198.399 136.975C198.524 137.238 198.587 137.688 198.587 138.324V138.641ZM203.012 136.218L204.203 144.223H202.073L201.969 142.784H201.222L201.099 144.223H198.943L200.001 136.218H203.012ZM201.909 141.365C201.804 140.459 201.698 139.34 201.593 138.008C201.382 139.537 201.25 140.656 201.197 141.365H201.909ZM206.641 136.218V142.621H207.907V144.223H204.559V136.218H206.641ZM208.416 136.218H211.887V137.82H210.497V139.338H211.798V140.861H210.497V142.621H212.025V144.223H208.416V136.218Z" fill="white"/>
</svg>
