<svg width="547" height="198" viewBox="0 0 547 198" fill="none" xmlns="http://www.w3.org/2000/svg">
<path d="M280.603 71.6438C279.969 70.3763 278.543 69.8218 277.196 69.3464C273.394 67.9205 269.512 66.5737 265.472 66.1776C261.432 65.7815 257.074 66.6529 253.826 69.0295C253.534 69.1928 253.282 69.4201 253.09 69.6945C252.898 69.9689 252.771 70.2833 252.717 70.6139C252.717 71.3269 253.589 71.9607 254.064 71.4854C245.588 71.0101 237.507 74.9711 229.902 78.7736C229.347 79.0905 228.714 79.4866 228.793 80.1203C228.872 80.7541 229.744 80.9918 230.457 81.071C245.667 82.1009 261.432 83.1307 275.77 77.9814C277.23 77.5791 278.565 76.8163 279.652 75.7632C280.21 75.254 280.599 74.5873 280.769 73.8516C280.939 73.1158 280.881 72.3459 280.603 71.6438Z" fill="white"/>
<path d="M137.041 40.1328C131.203 37.5451 124.64 37.0964 118.504 38.8653C115.652 39.7367 113.038 41.0043 110.186 41.7172C107.334 42.4302 103.135 42.8263 99.5703 43.2224C90.0669 44.2834 80.9195 47.4497 72.7939 52.4911C76.8342 55.1846 81.9835 55.6599 86.8951 56.1353C108.549 58.0365 130.202 59.1984 151.856 59.6209C161.283 59.7794 170.868 59.7794 179.741 56.6898C174.519 54.5488 168.977 53.2905 163.342 52.9665C167.25 51.2636 170.946 49.11 174.354 46.5496C169.24 43.2846 163.219 41.7309 157.163 42.1133C152.252 36.5679 142.904 35.6173 137.041 40.1328Z" fill="white"/>
<path d="M475.166 4.62391C473.863 4.71889 472.554 4.61201 471.284 4.30703C470.343 3.90394 469.463 3.37059 468.67 2.72263C464.947 0.18759 459.797 -1.15915 456.074 1.29667C455.361 1.85121 454.727 3.03951 455.44 3.51483C451.688 3.14212 447.914 3.97457 444.666 5.89143C443.946 6.25159 443.363 6.83527 443.003 7.55504C442.822 7.90578 442.779 8.31127 442.881 8.6922C442.984 9.07313 443.225 9.4021 443.557 9.61477L444.27 9.77321C456.181 11.0276 468.197 10.8946 480.078 9.37711C482.058 9.06023 484.435 8.50569 484.989 6.60441C481.875 5.31116 478.538 4.63841 475.166 4.62391Z" fill="white"/>
<path d="M507.804 37.1034C512.636 32.0333 521.271 31.1619 526.975 35.1229C530.065 37.2618 532.441 40.5891 536.006 41.6189C539.571 42.6488 544.007 41.4605 546.305 44.2332C544.245 47.0059 540.443 47.4812 537.036 47.7188C519.714 48.9487 502.315 48.5508 485.068 46.5305C484.513 44.0747 485.86 41.5397 487.682 39.8761C489.504 38.2124 491.881 37.2618 494.178 36.3904C496.475 35.519 498.773 34.4891 501.308 34.4099C503.843 34.3307 506.378 35.1229 507.804 37.1034Z" fill="white"/>
<path d="M511.767 137.555C521.035 141.912 530.066 148.171 535.533 156.964C537.751 160.608 539.81 165.282 537.275 169.085C534.74 172.887 531.572 175.105 527.452 176.848C504.954 186.276 480.475 182.711 456.788 182.711C414.115 182.711 371.389 182.341 328.61 181.602L336.136 183.74C337.245 184.057 338.433 184.374 339.067 185.325C343.345 191.425 326.629 193.326 324.094 193.643C300.724 196.574 277.513 197.604 253.905 198C241.943 198 229.981 197.049 218.098 197.208C206.215 197.366 193.936 197.366 181.894 197.049C140.553 195.864 99.3545 191.654 58.6281 184.453C42.2295 181.522 25.6725 178.987 9.67008 173.996C7.68958 173.363 -0.232424 170.431 0.005236 167.342C0.084456 166.708 0.876656 166.471 1.58964 166.312C6.39565 165.573 11.2281 165.018 16.0869 164.648C17.6713 164.49 19.3349 164.411 20.6817 163.619C21.802 162.987 22.8175 162.185 23.692 161.242C30.6359 154.791 39.8033 151.272 49.2801 151.419C52.3697 151.419 55.4593 151.894 58.4696 151.498C60.8644 151.08 63.2034 150.389 65.441 149.438C75.3435 145.477 85.8798 140.645 94.1979 133.911C102.516 127.177 110.834 117.909 119.548 110.303C130.243 100.797 143.393 92.7167 157.653 93.1128C171.913 93.5089 183.479 101.51 194.807 109.194C200.036 103.253 207.324 101.51 215.008 103.015C222.693 104.52 230.773 108.798 238.774 111.571C262.857 95.8062 286.227 78.6947 311.023 64.1975C316.41 61.0286 321.797 57.9391 327.659 55.7209C337.007 52.2352 345.246 52.7105 354.436 56.117C367.349 60.8702 379.232 70.9311 391.115 77.8233C402.998 84.7154 417.019 92.2413 430.249 98.975C456.788 112.442 483.802 124.801 510.895 137.159L511.767 137.555Z" fill="#CBC86D"/>
<g style="mix-blend-mode:multiply" opacity="0.3">
<path d="M354.436 55.9581C367.349 60.7113 379.232 70.7723 391.115 77.6644C402.998 84.5566 417.019 92.0825 430.249 98.8162C456.788 112.363 483.802 124.721 510.895 137L511.767 137.396C521.035 141.753 530.066 148.012 535.533 156.884C537.751 160.449 539.81 165.123 537.275 168.926C534.74 172.728 531.572 175.026 527.452 176.769C504.954 186.196 480.475 182.631 456.788 182.631C414.088 182.552 371.31 182.235 328.61 181.443L336.136 183.582C337.245 183.898 338.433 184.295 339.067 185.245C343.345 191.266 326.629 193.167 324.094 193.484C300.724 196.415 277.513 197.445 253.905 197.92C241.943 197.92 229.981 196.891 218.098 197.128C206.215 197.366 193.936 197.207 181.894 196.891C140.553 195.705 99.3545 191.495 58.6281 184.295C42.2295 181.363 25.6725 178.828 9.67008 173.838C7.68958 173.204 -0.232424 170.273 0.005236 167.262C0.084456 166.549 0.876656 166.312 1.58964 166.232C6.42206 165.44 11.2545 164.886 16.0869 164.49C17.6713 164.331 19.3349 164.252 20.6817 163.539C21.7666 162.856 22.7758 162.059 23.692 161.162C30.6236 154.683 39.7923 151.134 49.2801 151.26C52.3697 151.339 55.4593 151.735 58.4696 151.339C60.8644 150.921 63.2034 150.23 65.441 149.279C75.3435 145.398 85.8798 140.486 94.1979 133.752C102.516 127.019 110.834 117.75 119.548 110.145C125.648 104.758 132.778 98.8954 141.334 98.7369C140.806 100.533 140.33 102.355 139.908 104.203C139.79 104.644 139.79 105.109 139.908 105.55C140.304 106.501 141.651 106.501 142.681 106.263C148.939 105.075 155.593 104.441 161.456 106.897C167.318 109.352 171.12 114.026 175.478 118.384C186.331 129.237 200.749 137.872 216.038 137.079C207.719 131.399 200.963 123.716 196.392 114.739C193.54 108.956 198.055 106.897 202.729 104.282C203.601 103.807 204.472 103.332 205.423 103.569C206.129 103.828 206.737 104.298 207.166 104.916C210.731 109.273 213.186 114.343 216.593 118.78C221.931 125.464 229.347 130.175 237.665 132.168L229.664 132.802C242.656 140.724 258.025 144.13 273.235 144.368C288.445 144.605 303.576 141.753 318.232 137.792C294.625 150.072 263.887 159.34 238.22 148.329C234.972 146.903 231.724 145.16 228.159 144.685C224.594 144.209 220.554 145.318 218.811 148.487C218.485 149.247 218.029 149.944 217.464 150.547C216.615 151.08 215.608 151.304 214.612 151.181C208.512 151.339 203.838 153.003 198.372 154.983C191.48 157.518 182.687 156.092 175.478 155.458C166.793 154.649 158.185 153.166 149.731 151.022C139.908 148.487 129.53 144.685 122.4 137.079C119.311 133.831 117.409 128.444 114.082 125.593C110.755 122.741 106.319 125.672 102.991 127.731C87.6226 136.842 76.8487 154.746 58.3904 158.152C53.0034 159.103 46.9035 158.865 43.1009 162.747C42.1503 160.291 41.2789 157.835 40.4074 155.379C31.717 157.967 24.1005 163.305 18.7012 170.59C18.1648 171.207 17.8571 171.99 17.8297 172.808C17.909 174.313 19.8102 174.947 21.3154 175.105C53.0034 179.383 84.6914 170.748 116.221 165.599C143.552 161.083 171.279 159.261 198.927 158.469C219.128 157.914 239.408 159.261 259.688 158.152C270.542 157.518 281.395 156.092 292.248 155.062C301.358 154.27 314.35 151.735 323.223 154.349C324.649 154.746 325.837 156.171 325.441 157.518C325.045 158.865 323.223 159.657 321.718 159.974C306.915 162.926 291.889 164.622 276.8 165.044C269.908 165.203 263.016 164.648 256.203 165.282C254.222 165.519 235.526 166.866 235.368 168.134C235.209 169.401 237.269 171.223 239.091 171.857L258.421 178.908C245.587 183.423 232.833 188.414 220.395 193.959C229.189 197.287 238.854 197.683 248.281 197.683C271.656 197.674 294.967 195.232 317.836 190.395C315.692 188.975 313.197 188.18 310.627 188.097L317.994 185.404L307.22 182.156C312.845 180.334 318.311 178.512 324.015 176.927L315.935 174.551C319.341 173.441 322.748 172.332 325.837 170.431L292.089 168.53L311.736 166.074C318.311 165.282 325.045 164.49 331.383 162.509C327.976 161.242 324.174 161.4 320.529 161.638L294.149 163.301C302.23 162.588 310.231 160.608 318.153 158.707C322.906 157.518 327.738 156.33 331.541 153.24L323.54 152.686C322.595 152.692 321.665 152.446 320.846 151.973C319.262 150.864 319.42 148.329 320.688 146.824C321.955 145.318 323.936 144.685 325.758 144.051C330.274 142.546 333.284 140.961 333.918 135.97C334.71 129.157 334.235 122.265 333.997 115.452C333.576 100.653 334.345 85.8445 336.294 71.1684C336.611 68.7918 336.373 65.3853 333.918 64.9892C333.254 64.8828 332.575 64.9372 331.937 65.1477L318.311 68.4749C319.749 65.6023 321.71 63.0231 324.094 60.8698L313.717 63.2464C326.471 54.7698 339.463 50.492 354.436 55.9581Z" fill="#327770"/>
</g>
<path d="M523.492 159.579V159.182C523.557 158.546 523.835 157.949 524.281 157.489C524.726 157.03 525.313 156.733 525.948 156.647C523.413 155.538 522.858 151.577 524.918 149.755C523.254 149.835 520.957 148.409 520.957 148.409V115.77C520.957 115.77 523.65 115.215 525.076 115.691C530.146 116.641 534.583 121.236 534.504 126.385C534.69 125.597 535.151 124.901 535.804 124.421C536.458 123.942 537.26 123.712 538.069 123.771C538.867 123.867 539.632 124.145 540.306 124.585C540.979 125.025 541.542 125.614 541.95 126.306C542.698 127.74 543.181 129.296 543.376 130.901C544.414 137.42 543.926 144.091 541.95 150.389C543.03 151.208 543.871 152.301 544.386 153.555C544.901 154.809 545.072 156.177 544.881 157.519C544.644 160.212 543.139 162.668 541.317 164.649C542.505 163.777 544.248 164.728 544.644 166.154C545.04 167.58 544.485 169.006 543.772 170.194C541.792 173.204 538.702 175.264 535.533 176.928C524.284 182.711 510.421 183.503 497.983 183.028C503.529 181.76 509.074 180.334 514.619 178.829C520.165 177.324 525.552 176.373 528.483 170.273C528.698 169.915 528.808 169.503 528.8 169.085C528.668 168.529 528.363 168.03 527.928 167.659C526.566 166.203 525.394 164.579 524.443 162.827C523.9 161.823 523.576 160.716 523.492 159.579Z" fill="#327770"/>
<path d="M136.501 140.803C136.39 140.545 136.337 140.265 136.346 139.984C136.356 139.703 136.427 139.427 136.556 139.177C136.685 138.927 136.868 138.708 137.091 138.538C137.314 138.367 137.573 138.247 137.848 138.189C138.135 138.182 138.419 138.241 138.68 138.36C138.941 138.479 139.172 138.656 139.355 138.877C139.538 139.098 139.668 139.358 139.736 139.636C139.805 139.915 139.809 140.205 139.749 140.486C140.145 136.921 141.651 133.356 144.582 131.217C147.513 129.078 151.949 129.157 154.484 131.692C155.356 125.593 161.456 120.839 167.556 121.315C173.656 121.79 178.884 127.573 178.805 133.673C180.468 131.613 183.954 131.455 186.172 133.039C188.39 134.624 189.579 137.317 189.816 140.011C189.866 142.731 189.437 145.44 188.549 148.012C189.658 147.061 191.242 148.804 191.242 150.23C191.163 153.32 188.311 155.458 185.776 157.122C186.727 156.33 187.994 155.458 189.262 155.775C190.529 156.092 190.926 158.31 189.658 158.548C191.639 157.281 194.57 158.944 194.966 161.242C195.362 163.539 193.857 165.916 191.718 166.866C192.062 166.683 192.448 166.594 192.837 166.608C193.227 166.622 193.606 166.739 193.936 166.945C194.49 168.054 193.777 169.48 192.827 170.193C191.739 170.82 190.516 171.173 189.262 171.223C171.913 173.362 154.405 173.204 136.897 173.125C135.551 173.125 133.966 172.966 133.253 171.778C132.885 170.959 132.748 170.055 132.857 169.164C132.936 165.361 131.511 161.796 129.926 158.39C128.342 154.983 126.599 151.656 126.044 147.933C125.49 144.209 126.361 140.09 129.292 137.713C130.639 136.683 132.699 136.05 134.125 137.079C135.551 138.109 135.63 139.535 136.501 140.803Z" fill="#34585B"/>
<g style="mix-blend-mode:multiply" opacity="0.37">
<path d="M136.501 140.803C136.39 140.544 136.337 140.265 136.346 139.983C136.356 139.702 136.427 139.427 136.556 139.177C136.685 138.927 136.868 138.708 137.091 138.537C137.314 138.366 137.573 138.247 137.848 138.188C138.135 138.182 138.419 138.241 138.68 138.36C138.941 138.479 139.172 138.656 139.355 138.877C139.538 139.098 139.668 139.357 139.736 139.636C139.805 139.915 139.809 140.205 139.749 140.486C140.066 137.238 141.017 133.356 144.265 131.93C144.562 131.758 144.89 131.649 145.231 131.608C145.571 131.567 145.916 131.596 146.245 131.692C147.355 132.009 147.909 133.356 147.909 134.465C147.802 135.638 147.616 136.802 147.355 137.951C148.067 137.238 149.969 135.732 150.919 136.762C151.189 137.074 151.356 137.461 151.395 137.871C151.805 139.674 151.778 141.548 151.316 143.338C151.325 143.018 151.4 142.705 151.534 142.415C151.667 142.125 151.858 141.865 152.095 141.65C152.332 141.436 152.609 141.271 152.911 141.167C153.212 141.062 153.532 141.019 153.851 141.04C153.966 141.091 154.092 141.111 154.218 141.097C154.343 141.083 154.462 141.036 154.564 140.961C154.801 140.803 154.722 140.486 154.643 140.169C154.098 137.659 154.405 135.039 155.514 132.722C156.069 131.613 157.099 130.425 158.366 130.583C158.049 127.335 161.773 124.166 164.704 123.77C165.172 123.691 165.652 123.706 166.114 123.815C166.577 123.924 167.013 124.124 167.397 124.404C167.76 124.687 168.008 125.091 168.096 125.543C168.183 125.994 168.104 126.462 167.872 126.86C168.174 126.694 168.51 126.6 168.853 126.587C169.197 126.573 169.539 126.639 169.853 126.781C170.566 127.414 170.17 128.603 169.695 129.395L168.665 131.058C169.615 130.9 170.804 130.821 171.437 131.534C172.071 132.247 171.675 133.831 171.121 134.94L168.902 138.901C169.333 138.484 169.846 138.161 170.408 137.951C170.684 137.855 170.985 137.858 171.259 137.959C171.533 138.061 171.764 138.253 171.913 138.505C172.23 138.901 172.071 139.535 171.913 140.01L170.566 144.684C171.358 143.021 172.15 141.199 173.735 140.09C175.319 138.98 175.398 140.09 175.953 140.961C176.191 139.852 176.27 138.743 176.983 137.871C177.696 137 179.122 136.604 179.914 137.317C180.188 136.435 180.8 135.698 181.617 135.267C182.434 134.836 183.389 134.747 184.271 135.019C185.142 135.348 185.91 135.903 186.495 136.627C187.08 137.351 187.461 138.218 187.598 139.139C187.782 140.98 187.482 142.837 186.727 144.526C185.798 146.632 184.511 148.562 182.924 150.23C183.162 149.2 184.905 149.121 185.459 149.992C185.697 150.47 185.747 151.019 185.601 151.532C185.454 152.045 185.121 152.485 184.667 152.765C185.301 152.686 186.172 152.844 186.252 153.478C186.331 154.111 185.935 154.27 185.618 154.508C184.39 155.489 183.062 156.338 181.657 157.043C182.687 156.726 183.479 157.914 183.479 158.944C183.479 159.974 183.004 160.924 183.162 161.954C183.875 160.924 184.588 159.895 185.776 159.498C186.965 159.102 188.47 160.053 188.311 161.241C188.153 162.43 187.361 162.667 187.598 163.38C188.371 162.974 189.198 162.68 190.054 162.509C190.45 162.43 190.846 162.35 191.084 162.588C191.322 162.826 191.163 163.856 190.767 164.331L188.549 167.104C188.7 167.055 188.859 167.037 189.017 167.05C189.175 167.064 189.328 167.109 189.468 167.183C189.609 167.256 189.733 167.357 189.833 167.48C189.934 167.602 190.009 167.744 190.054 167.896C190.065 168.052 190.045 168.209 189.995 168.357C189.945 168.505 189.866 168.642 189.763 168.76C189.66 168.878 189.535 168.974 189.394 169.043C189.254 169.112 189.101 169.153 188.945 169.163L189.737 169.401C189.975 169.48 188.311 170.748 188.153 170.827L186.648 171.461C184.821 171.832 182.966 172.044 181.102 172.094C177.062 172.411 173.022 172.649 168.902 172.807C160.822 173.124 152.662 173.204 144.503 173.124H136.897C135.551 173.124 133.966 172.966 133.253 171.778C132.885 170.959 132.748 170.055 132.857 169.163C132.936 165.361 131.51 161.796 129.926 158.389C128.342 154.983 126.599 151.656 126.044 147.932C125.49 144.209 126.361 140.09 129.292 137.713C130.639 136.683 132.699 136.049 134.125 137.079C135.551 138.109 135.63 139.535 136.501 140.803Z" fill="#34585B"/>
</g>
<path d="M129.53 144.843C131.352 144.447 133.174 146.031 133.57 147.774C133.706 148.696 133.634 149.637 133.36 150.528C133.086 151.419 132.617 152.237 131.986 152.924C135.313 153.795 136.422 158.865 133.808 161.083C134.362 159.103 137.61 159.261 138.719 160.925C139.828 162.588 139.512 164.886 139.195 166.946C140.533 166.509 141.945 166.347 143.347 166.47C144.749 166.592 146.112 166.997 147.354 167.659C146.884 166.804 146.745 165.807 146.964 164.857C147.183 163.907 147.745 163.071 148.543 162.509C149.366 161.982 150.317 161.689 151.293 161.661C152.27 161.633 153.236 161.872 154.088 162.351C153.021 161.229 152.363 159.781 152.219 158.239C152.076 156.697 152.456 155.152 153.297 153.853C154.139 152.554 155.394 151.575 156.86 151.076C158.325 150.577 159.916 150.586 161.376 151.102C161.693 148.883 164.704 148.012 166.605 149.042C168.506 150.072 169.536 152.369 169.853 154.508C172.15 153.24 175.319 155.221 175.953 157.835C176.587 160.449 175.557 163.143 174.051 165.361C175.319 164.173 177.696 164.965 178.567 166.47C179.438 167.975 179.359 170.035 178.963 171.778C179.676 169.639 181.34 167.659 183.558 167.421C185.776 167.183 188.073 169.639 187.044 171.62C187.214 171.393 187.431 171.205 187.68 171.069C187.929 170.933 188.205 170.852 188.488 170.832C188.771 170.812 189.055 170.853 189.321 170.952C189.586 171.052 189.828 171.207 190.028 171.407C190.229 171.608 190.384 171.849 190.483 172.115C190.583 172.381 190.624 172.665 190.603 172.948C190.583 173.231 190.503 173.507 190.367 173.756C190.231 174.005 190.043 174.222 189.816 174.392C191.718 173.283 194.411 175.66 193.54 177.64C194.094 176.452 199.006 179.383 194.728 181.839C193.484 182.406 192.134 182.703 190.767 182.71C180.548 183.503 170.249 183.661 159.95 183.899L75.8979 185.483C73.3628 185.562 69.1642 185.8 67.5006 183.423C65.8369 181.047 66.7084 177.719 69.5603 177.64C69.0921 176.376 69.0393 174.995 69.4098 173.698C69.7802 172.402 70.5544 171.257 71.62 170.431C72.7253 169.636 74.0624 169.228 75.4233 169.271C76.7843 169.314 78.0929 169.806 79.1459 170.669C78.0368 167.896 77.0862 164.965 77.3238 161.955C77.5615 158.944 78.9082 155.855 81.4433 154.35C83.9783 152.844 87.7809 153.161 89.6029 155.617C89.3261 152.775 89.8763 149.914 91.1873 147.378C91.5378 146.591 92.1177 145.929 92.851 145.477C93.22 145.294 93.6402 145.241 94.043 145.327C94.4459 145.414 94.8076 145.634 95.0691 145.952C95.0059 144.677 95.2983 143.409 95.9138 142.289C96.5293 141.17 97.4436 140.244 98.5548 139.615C99.6729 138.999 100.942 138.709 102.216 138.779C103.491 138.849 104.72 139.276 105.764 140.011C105.685 137.951 107.824 136.287 109.883 136.367C110.907 136.497 111.879 136.895 112.699 137.521C113.52 138.147 114.161 138.978 114.557 139.932C115.508 141.754 115.587 143.893 115.587 145.952C115.638 144.207 116.328 142.542 117.525 141.272C118.723 140.001 120.344 139.215 122.083 139.06C123.808 138.986 125.504 139.526 126.868 140.585C128.231 141.644 129.175 143.153 129.53 144.843Z" fill="#327770"/>
<g style="mix-blend-mode:multiply" opacity="0.38">
<path d="M159.949 183.898L75.8966 185.483C73.8368 185.562 71.6187 185.721 69.7174 185.008C67.8161 184.295 65.7564 181.997 68.133 180.571C69.1629 179.937 70.5096 180.096 71.7771 180.254C71.2226 178.828 70.5888 177.323 70.9849 175.818C71.381 174.313 73.1239 173.204 74.3914 173.996C73.9161 173.204 74.8667 172.174 75.8173 172.253C76.768 172.332 77.481 172.887 78.2732 173.283C79.0654 173.679 80.2537 173.917 80.8874 173.283C81.1117 172.98 81.258 172.626 81.3132 172.253C81.3685 171.88 81.3311 171.499 81.2043 171.144C80.6498 169.164 79.5407 167.341 79.5407 165.282C79.5407 163.222 81.5212 161.004 83.3432 161.954C81.7588 161.004 81.5212 158.31 83.0264 157.201C83.4033 156.929 83.8396 156.75 84.2993 156.68C84.759 156.609 85.2288 156.649 85.67 156.796C86.1111 156.943 86.511 157.193 86.8365 157.525C87.162 157.858 87.4038 158.262 87.5419 158.706C87.7796 157.043 90.3146 156.488 91.6613 157.677C91.186 156.33 90.7899 154.904 91.2652 153.557C91.7406 152.21 93.325 151.181 94.5133 151.894C93.325 151.101 94.1172 148.883 95.6223 148.566C97.1275 148.249 98.4743 148.962 99.7418 149.675C98.9496 147.457 98.2366 144.605 100.059 143.021C101.881 141.437 103.703 142.149 105.129 143.338C106.555 144.526 107.347 146.269 108.139 147.933C107.791 146.726 107.703 145.46 107.88 144.218C108.058 142.975 108.497 141.784 109.169 140.724C110.749 142.494 111.848 144.64 112.361 146.956C112.874 149.272 112.784 151.682 112.1 153.953C112.261 153.715 112.481 153.522 112.739 153.394C112.997 153.266 113.284 153.207 113.571 153.223C113.858 153.239 114.137 153.33 114.379 153.485C114.621 153.641 114.818 153.857 114.952 154.112C114.962 151.835 115.744 149.628 117.17 147.853L118.517 149.992C117.725 147.933 118.121 145.16 120.022 143.972C121.923 142.783 125.013 144.685 124.379 146.823C125.488 145.794 127.627 146.269 128.499 147.536C128.9 148.219 129.117 148.993 129.131 149.784C129.145 150.575 128.955 151.356 128.578 152.052C127.859 153.476 126.862 154.742 125.647 155.775C126.914 154.904 128.736 156.013 129.053 157.439C129.37 158.865 128.657 160.37 127.706 161.558C126.756 162.747 125.726 163.777 125.092 165.123C125.805 163.935 126.677 162.509 128.023 162.271C129.37 162.034 130.954 163.856 129.925 164.806C130.4 163.618 131.192 162.43 132.46 162.192C133.727 161.954 134.836 163.935 133.806 164.569L136.104 164.41C136.223 165.045 136.207 165.697 136.056 166.325C135.906 166.953 135.625 167.542 135.232 168.054C135.349 167.939 135.488 167.85 135.641 167.791C135.794 167.732 135.957 167.706 136.121 167.713C136.285 167.72 136.445 167.762 136.592 167.834C136.739 167.906 136.87 168.008 136.975 168.134C137.389 168.644 137.686 169.239 137.847 169.876C139.352 172.728 143.392 172.808 146.64 172.491C147.136 172.516 147.632 172.438 148.096 172.26C148.559 172.083 148.981 171.811 149.334 171.461C150.601 169.797 148.462 167.5 148.858 165.44C149.003 164.861 149.341 164.349 149.816 163.989C150.292 163.629 150.876 163.442 151.472 163.46C152.064 163.513 152.618 163.772 153.038 164.192C153.457 164.612 153.717 165.166 153.77 165.757C154.008 163.38 157.493 162.192 159.157 163.856C158.523 162.509 157.414 161.479 156.543 160.291C155.671 159.103 155.196 157.439 155.909 156.171C156.622 154.904 159.949 154.904 161.375 156.409C161.058 155.062 161.296 153.399 162.405 152.607C163.514 151.814 165.574 152.607 165.415 154.032C166.445 153.32 168.029 154.191 168.426 155.379C168.603 156 168.653 156.65 168.571 157.29C168.489 157.93 168.278 158.547 167.95 159.103C168.176 158.874 168.448 158.696 168.748 158.579C169.047 158.463 169.368 158.41 169.689 158.425C170.01 158.44 170.324 158.522 170.611 158.666C170.899 158.81 171.153 159.013 171.357 159.261C171.534 159.53 171.651 159.834 171.698 160.153C171.746 160.471 171.724 160.796 171.634 161.105C171.543 161.414 171.387 161.7 171.175 161.942C170.963 162.185 170.7 162.378 170.406 162.509C170.941 162.796 171.356 163.266 171.574 163.833C171.792 164.4 171.799 165.027 171.594 165.599C171.14 166.74 170.37 167.729 169.376 168.451C170.723 167.896 172.228 169.718 171.436 170.906C171.436 169.164 174.367 169.084 175.08 170.589C175.793 172.095 175.001 173.917 173.892 175.105C175.476 173.521 178.724 174.63 179.041 176.848C179.678 174.871 180.701 173.039 182.051 171.461C183.19 172.244 183.984 173.436 184.27 174.788C184.032 173.679 185.854 173.125 186.725 173.917C187.597 174.709 187.518 176.056 187.438 177.244C189.102 177.878 191.637 180.017 190.845 182.156C190.053 184.295 185.933 183.027 184.586 183.106L176.427 183.423C170.961 183.661 165.494 183.74 159.949 183.898Z" fill="#327770"/>
</g>
<path d="M117.884 169.005C118.474 168.341 119.257 167.878 120.123 167.679C120.989 167.48 121.895 167.556 122.716 167.896C123.532 168.249 124.213 168.856 124.655 169.627C125.098 170.398 125.279 171.291 125.172 172.174C126.281 169.084 129.529 166.787 132.777 167.262C136.025 167.738 138.481 171.302 137.61 174.392C138.085 173.045 140.382 173.125 141.095 174.392C141.808 175.66 141.095 177.244 139.986 178.115C141.729 177.878 143.947 178.908 145.215 180.096C144.658 179.03 144.283 177.879 144.106 176.689C144.035 176.101 144.122 175.505 144.359 174.962C144.596 174.418 144.973 173.948 145.452 173.6C145.691 173.43 145.963 173.314 146.251 173.258C146.538 173.202 146.834 173.208 147.119 173.276C147.404 173.343 147.671 173.47 147.903 173.649C148.134 173.828 148.325 174.054 148.463 174.313C148.225 171.619 149.017 168.767 151.077 167.025C153.137 165.282 156.464 164.886 158.445 166.787C158.563 165.601 159.083 164.491 159.919 163.641C160.754 162.791 161.855 162.252 163.039 162.113C164.236 162.02 165.431 162.307 166.455 162.933C167.479 163.559 168.28 164.491 168.743 165.599C169.156 166.723 169.234 167.942 168.967 169.11C168.7 170.277 168.099 171.342 167.238 172.174C167.951 171.857 168.743 172.649 168.664 173.441C168.483 174.165 168.065 174.806 167.476 175.263C169.456 175.343 170.724 178.195 169.377 179.7C170.356 179.385 171.409 179.385 172.387 179.7C173.259 180.175 173.813 181.522 173.1 182.235C173.972 181.839 174.764 183.265 174.13 184.057C173.496 184.849 172.466 184.928 171.516 184.928C157.494 185.324 143.472 185.087 129.371 185.404C115.27 185.721 99.6632 186.037 84.8491 185.008C82.5517 184.849 79.779 184.374 79.066 182.156C78.353 179.937 79.4621 178.828 80.8881 178.036C82.3671 177.314 84.0632 177.173 85.6413 177.64C84.9815 176.871 84.6413 175.879 84.6907 174.867C84.8491 173.917 86.1958 173.204 86.8296 173.917C86.6245 173.72 86.4662 173.479 86.3665 173.213C86.2668 172.946 86.2281 172.661 86.2533 172.377C86.2785 172.094 86.367 171.82 86.5123 171.575C86.6575 171.331 86.8558 171.122 87.0925 170.964C87.3292 170.806 87.5983 170.704 87.8799 170.664C88.1616 170.624 88.4486 170.647 88.7199 170.733C88.9911 170.819 89.2397 170.964 89.4473 171.159C89.6548 171.353 89.8161 171.592 89.9192 171.857C89.1025 170.129 88.7567 168.216 88.9166 166.312C89.0765 164.407 89.7364 162.579 90.8297 161.011C91.923 159.443 93.4109 158.192 95.1428 157.384C96.8748 156.576 98.7894 156.24 100.693 156.409C102.198 156.568 108.298 158.073 106.714 161.004C107.664 159.261 110.279 159.023 111.784 160.212C113.289 161.4 113.685 163.697 113.131 165.519C113.351 165.146 113.643 164.82 113.99 164.562C114.338 164.303 114.734 164.117 115.155 164.013C115.575 163.91 116.013 163.892 116.441 163.96C116.868 164.028 117.278 164.181 117.646 164.41C117.974 164.69 118.241 165.033 118.431 165.419C118.621 165.806 118.731 166.227 118.753 166.657C118.775 167.087 118.71 167.517 118.56 167.92C118.411 168.324 118.181 168.693 117.884 169.005Z" fill="#608C53"/>
<g style="mix-blend-mode:multiply" opacity="0.19">
<path d="M117.33 170.511C118.281 170.828 118.994 171.778 118.598 172.65C119.311 171.699 120.658 170.59 121.608 171.382C122.559 172.174 120.578 175.502 122.163 176.373C123.766 174.202 125.569 172.186 127.55 170.352C128.5 169.481 129.689 168.53 130.956 168.926C131.454 169.097 131.896 169.401 132.231 169.807C132.567 170.212 132.783 170.703 132.858 171.224C132.953 172.238 132.845 173.262 132.541 174.234C132.937 173.363 134.442 173.68 134.917 174.551C135.393 175.422 135.234 176.452 135.234 177.482C135.198 177.731 135.254 177.985 135.393 178.195C135.789 178.67 136.422 178.353 136.898 178.037C137.682 177.678 138.55 177.548 139.405 177.66C140.259 177.772 141.065 178.122 141.73 178.67C142.129 179.215 142.68 179.628 143.315 179.859C144.344 180.176 145.295 179.225 146.087 178.433C146.879 177.641 147.989 176.769 148.939 177.324C148.569 175.435 148.762 173.479 149.494 171.699C149.699 171.042 150.047 170.439 150.513 169.932C150.978 169.426 151.55 169.028 152.187 168.768C153.455 168.293 155.198 169.006 155.435 170.352C155.366 170.05 155.359 169.737 155.413 169.432C155.468 169.127 155.584 168.836 155.755 168.577C155.925 168.318 156.146 168.096 156.404 167.925C156.662 167.753 156.952 167.636 157.257 167.58C157.561 167.561 157.865 167.613 158.145 167.731C158.425 167.849 158.675 168.03 158.874 168.259C159.073 168.489 159.217 168.762 159.294 169.056C159.37 169.35 159.378 169.658 159.317 169.956C159.566 168.875 160.024 167.852 160.664 166.946C161.006 166.494 161.476 166.155 162.012 165.972C162.548 165.789 163.127 165.769 163.674 165.916C164.862 166.391 165.259 167.976 165.021 169.164C164.612 170.358 163.935 171.442 163.04 172.333C164.149 172.016 165.179 173.442 165.021 174.63C164.862 175.818 163.912 176.69 162.961 177.561C163.701 177.41 164.468 177.465 165.179 177.72C165.813 178.116 166.209 179.066 165.655 179.621C166.276 179.408 166.955 179.436 167.556 179.7C168.11 180.096 168.11 181.126 167.477 181.205C168.172 181.084 168.887 181.166 169.536 181.443L168.903 183.027C169.176 182.983 169.457 183.019 169.71 183.132C169.963 183.245 170.178 183.428 170.329 183.661C170.962 184.453 167.556 185.008 167.318 185.008H151.237L129.372 185.246C114.558 185.642 99.6643 185.879 84.8502 184.85C83.345 184.77 77.0074 183.424 79.5425 180.572C80.0232 180.069 80.6712 179.759 81.3645 179.7C83.1396 179.295 84.9974 179.461 86.6723 180.176C86.392 179.823 86.2141 179.4 86.1582 178.952C86.1023 178.505 86.1705 178.051 86.3554 177.641C86.4651 177.446 86.6167 177.279 86.7991 177.15C86.9815 177.022 87.1902 176.936 87.4101 176.898C87.63 176.86 87.8556 176.871 88.0705 176.931C88.2854 176.991 88.4843 177.098 88.6528 177.244C88.4382 177.074 88.265 176.857 88.1459 176.61C88.0268 176.363 87.965 176.093 87.965 175.818C87.965 175.544 88.0268 175.274 88.1459 175.027C88.265 174.78 88.4382 174.563 88.6528 174.392C89.1017 174.074 89.6353 173.897 90.1855 173.882C90.7357 173.868 91.2776 174.018 91.7423 174.313C91.0278 172.915 90.6097 171.384 90.5142 169.816C90.4188 168.248 90.6481 166.678 91.1878 165.203C92.4553 162.272 95.5449 160.133 98.6345 160.529C101.724 160.925 104.259 164.411 103.308 167.342C103.63 166.504 104.262 165.821 105.074 165.438C105.885 165.054 106.814 164.998 107.666 165.282C109.329 165.916 109.963 168.451 108.695 169.639C109.155 169.188 109.765 168.923 110.408 168.893C111.051 168.864 111.683 169.073 112.181 169.481C112.65 169.917 112.999 170.467 113.193 171.078C113.387 171.689 113.421 172.339 113.29 172.967C114.082 171.857 114.954 170.59 116.221 170.273C116.607 170.226 116.998 170.31 117.33 170.511Z" fill="#608C53"/>
</g>
<path d="M140.383 167.817C142.351 166.53 144.696 165.944 147.038 166.153L145.533 167.658C146.876 167.276 148.295 167.249 149.652 167.579L147.355 169.322C149.262 168.925 151.243 169.09 153.059 169.797L151.553 170.035C152.846 170.258 154.052 170.834 155.039 171.699L153.93 172.174C155.264 172.57 156.522 173.186 157.653 173.996C157.099 174.392 157.495 175.343 157.97 175.897C161.06 179.383 165.021 180.175 169.378 180.967C168.075 181.859 166.519 182.304 164.942 182.235L167.477 183.344C165.078 184.135 162.55 184.457 160.03 184.295L161.06 185.087H156.227C157.203 185.662 158.085 186.383 158.842 187.226C155.036 185.537 150.875 184.803 146.721 185.087L147.434 185.483C140.315 186.684 133.064 186.897 125.886 186.117C125.874 185.931 125.921 185.747 126.02 185.59C126.12 185.433 126.267 185.312 126.441 185.245C120.42 184.532 113.845 186.196 108.299 183.582C109.092 183.978 111.706 182.789 112.498 182.552C113.29 182.314 114.954 181.443 116.221 180.888C118.799 179.759 121.117 178.115 123.034 176.056C124.143 174.867 125.094 173.521 126.282 172.412C127.768 171.02 129.519 169.942 131.432 169.243C130.766 170.053 130.232 170.961 129.847 171.936C130.62 170.91 131.589 170.048 132.699 169.401C132.63 169.729 132.523 170.048 132.382 170.352C133.609 169.148 135.028 168.157 136.581 167.421C136.349 167.849 136.163 168.3 136.026 168.767C137.592 167.501 139.44 166.632 141.413 166.232L140.383 167.817Z" fill="#8EA565"/>
<path d="M135.313 173.283C133.888 174.606 132.661 176.126 131.669 177.799C132.572 176.917 133.743 176.36 134.996 176.214C133.515 177.631 132.541 179.496 132.224 181.522C133.194 180.129 134.433 178.944 135.868 178.036C135.399 178.775 134.975 179.542 134.6 180.334C135.667 179.12 136.958 178.125 138.403 177.402C138.243 177.595 138.11 177.808 138.007 178.036C139.071 177.396 140.259 176.991 141.493 176.848C140.386 177.691 139.423 178.708 138.641 179.858C139.749 179.13 140.986 178.619 142.285 178.353C141.095 179.463 139.983 180.655 138.957 181.918C139.439 181.506 140.008 181.208 140.621 181.047C140.304 181.76 140.067 182.552 139.829 183.265C140.26 182.53 140.857 181.906 141.572 181.443V182.552C142.292 181.264 143.23 180.112 144.344 179.145C144.107 180.017 143.948 180.967 143.711 181.839C144.604 180.442 145.865 179.318 147.355 178.591C146.721 179.858 146.166 181.047 145.612 182.314C146.499 181.41 147.626 180.778 148.86 180.492L147.513 181.997C148.141 181.677 148.806 181.438 149.494 181.284L149.256 182.789C150.695 181.209 152.617 180.15 154.722 179.779L153.059 182.156C153.391 181.752 153.8 181.418 154.263 181.173C154.725 180.928 155.231 180.778 155.752 180.73L154.96 182.235C155.435 181.205 157.337 180.65 158.366 180.73C157.733 182.552 159.159 182.631 160.347 182.71C161.535 182.789 164.466 183.502 166.605 183.185C165.589 182.775 164.671 182.154 163.912 181.363C164.229 181.76 166.13 181.443 166.526 181.443C167.465 181.342 168.393 181.156 169.299 180.888C168.427 181.997 166.288 182.314 164.942 182.235L167.477 183.344C165.078 184.135 162.55 184.457 160.03 184.295L161.06 185.087H156.227C157.203 185.662 158.085 186.383 158.842 187.226C155.036 185.537 150.875 184.803 146.721 185.087L147.434 185.483C140.315 186.684 133.064 186.897 125.886 186.117C125.874 185.931 125.921 185.747 126.02 185.59C126.12 185.433 126.267 185.312 126.441 185.245C120.42 184.532 113.845 186.196 108.299 183.582C109.092 183.978 111.706 182.789 112.498 182.552C113.29 182.314 114.954 181.443 116.221 180.888C118.901 179.784 121.308 178.108 123.272 175.976C123.272 175.976 122.797 178.67 122.717 178.828C123.974 176.433 126.057 174.575 128.58 173.6L127.312 175.897C127.965 175.11 128.854 174.555 129.847 174.313C128.897 175.46 128.317 176.869 128.184 178.353C129.3 176.429 130.914 174.841 132.858 173.758C132.293 174.407 131.813 175.126 131.432 175.897C132.446 174.669 133.794 173.761 135.313 173.283Z" fill="#608C53"/>
<path d="M144.502 123.533H140.937V174.099H144.502V123.533Z" fill="white"/>
<path d="M143.711 175.185H144.186C145.09 174.949 146.028 174.869 146.959 174.947L148.464 175.106C148.94 175.05 149.422 175.077 149.89 175.185C149.389 174.802 148.826 174.507 148.226 174.313C148.393 174.155 148.594 174.037 148.814 173.968C149.034 173.899 149.266 173.882 149.494 173.917C149.133 173.685 148.722 173.542 148.295 173.501C147.867 173.459 147.437 173.521 147.038 173.68L148.147 172.491C147.339 172.586 146.586 172.949 146.008 173.521C146.087 173.204 146.483 172.571 146.879 172.571C146.328 172.581 145.786 172.716 145.295 172.967C145.761 172.356 146.293 171.799 146.879 171.303C145.982 171.32 145.128 171.69 144.503 172.333C144.565 172.272 144.611 172.197 144.639 172.114C144.666 172.032 144.674 171.944 144.661 171.858C144.104 172.158 143.66 172.63 143.394 173.204V172.095C142.971 172.345 142.596 172.667 142.285 173.046C142.456 172.24 142.75 171.465 143.156 170.749C142.566 170.941 142.044 171.298 141.651 171.778L142.443 169.798C141.773 170.07 141.166 170.477 140.662 170.996C140.157 171.514 139.766 172.131 139.512 172.808C139.524 172.121 139.497 171.433 139.433 170.749C139.198 171.214 138.934 171.664 138.641 172.095C138.561 172.254 138.244 173.759 138.641 173.838C137.531 173.68 137.215 172.65 137.531 171.699C137.307 172.123 137.176 172.59 137.149 173.068C137.122 173.547 137.198 174.026 137.373 174.472C137.221 174.279 137.029 174.123 136.81 174.013C136.591 173.904 136.35 173.844 136.105 173.838C136.615 174.512 137.343 174.988 138.165 175.185C139.983 175.661 141.893 175.661 143.711 175.185Z" fill="#608C53"/>
<path d="M164.7 125.206H121.129V149.788H164.7V125.206Z" fill="#BC3C19"/>
<path d="M163.041 127.574H123.272V147.775H163.041V127.574Z" stroke="white" stroke-width="0.693" stroke-miterlimit="10"/>
<path d="M132.637 133.489H134.209C135.257 133.489 135.965 133.53 136.335 133.611C136.707 133.692 137.01 133.899 137.242 134.233C137.478 134.564 137.595 135.093 137.595 135.821C137.595 136.485 137.513 136.932 137.347 137.161C137.182 137.389 136.857 137.526 136.372 137.572C136.811 137.681 137.107 137.827 137.258 138.01C137.409 138.193 137.502 138.362 137.537 138.516C137.576 138.667 137.595 139.088 137.595 139.777V142.029H135.533V139.191C135.533 138.734 135.496 138.451 135.422 138.342C135.352 138.233 135.164 138.179 134.858 138.179V142.029H132.637V133.489ZM134.858 134.95V136.849C135.107 136.849 135.282 136.816 135.38 136.749C135.482 136.679 135.533 136.456 135.533 136.079V135.61C135.533 135.339 135.484 135.161 135.385 135.077C135.29 134.993 135.114 134.95 134.858 134.95ZM138.46 133.489H142.163V135.198H140.681V136.818H142.068V138.442H140.681V140.32H142.311V142.029H138.46V133.489ZM147.913 133.489V142.029H145.967L144.811 138.147V142.029H142.955V133.489H144.811L146.056 137.335V133.489H147.913ZM153.283 133.489V135.198H151.964V142.029H149.743V135.198H148.43V133.489H153.283Z" fill="white"/>
<path d="M315.619 162.747H313.876C289.714 163.381 265.71 163.539 241.627 163.935C233.943 164.094 226.258 164.252 218.574 164.648C210.89 165.044 203.285 164.965 196.234 166.946C195.125 167.183 193.461 167.817 194.491 169.322C195.023 169.885 195.714 170.272 196.472 170.431C203.205 172.57 210.256 173.442 217.227 174.234C221.03 174.63 224.753 175.184 228.477 175.818C230.378 176.135 232.358 176.452 234.26 176.927C234.735 177.007 237.587 178.116 237.904 178.036C231.012 180.096 223.407 180.175 216.277 180.492C209.147 180.809 201.066 180.968 193.382 181.205C178.33 181.76 163.199 182.156 148.148 182.552C133.096 182.948 116.539 183.186 100.695 183.344C84.8507 183.503 66.6301 181.76 50.0731 183.582C73.9976 187.86 98.0805 190.791 122.163 193.564C162.566 198.158 203.681 199.663 244.083 194.514C251.785 193.629 259.393 192.064 266.819 189.84C269.433 188.969 276.722 186.83 276.88 183.265C277.039 179.7 272.84 178.433 270.859 177.64C260.561 173.442 249.312 172.016 238.221 170.669C253.273 170.431 268.483 170.669 283.535 169.798C292.407 169.243 301.359 169.164 310.311 168.847L323.937 168.134C329.403 167.659 335.265 168.134 340.89 168.055L323.699 163.777C322.29 163.41 320.862 163.12 319.421 162.905C318.158 162.773 316.888 162.721 315.619 162.747Z" fill="#EAEAD0"/>
<path d="M353.96 156.884C355.624 156.884 355.861 125.751 356.02 122.424C356.178 120.522 349.445 119.493 349.603 121.156C349.534 120.467 349.24 119.819 348.767 119.312C348.294 118.805 347.668 118.468 346.985 118.351C346.301 118.234 345.599 118.344 344.984 118.665C344.37 118.986 343.877 119.499 343.582 120.126C341.681 118.463 338.037 119.889 337.799 122.503C337.72 120.76 335.581 119.73 333.918 120.285C332.254 120.839 331.224 122.345 330.511 123.85C329.798 125.355 329.244 127.89 330.115 129.712C329.817 129.411 329.419 129.228 328.996 129.199C328.573 129.17 328.154 129.296 327.818 129.554C327.506 129.84 327.304 130.226 327.246 130.645C327.189 131.065 327.279 131.491 327.501 131.851C327.422 130.663 325.599 130.346 324.728 131.217C324.011 132.171 323.673 133.356 323.777 134.544C323.725 133.374 323.832 132.201 324.094 131.059C324.173 129.87 324.015 128.524 323.144 127.731C322.272 126.939 320.45 127.177 320.212 128.286C320.688 127.256 321.163 125.989 320.767 124.88C320.371 123.77 318.47 123.454 318.074 124.563C318.549 122.978 318.549 121.077 317.361 119.968C316.172 118.859 313.637 119.651 313.796 121.235C313.954 119.572 311.894 118.304 310.31 118.7C309.496 118.96 308.752 119.402 308.134 119.992C307.517 120.582 307.042 121.306 306.745 122.107C305.081 125.593 305.24 129.712 305.874 133.515C305.715 132.326 305.874 131.059 305.636 129.87C305.599 129.269 305.404 128.689 305.07 128.188C304.736 127.687 304.275 127.283 303.735 127.019C302.546 126.543 301.041 127.494 301.2 128.682C301.155 127.925 300.87 127.201 300.385 126.617C299.901 126.033 299.242 125.618 298.506 125.434C297.001 125.196 295.337 126.702 295.892 128.128C295.337 127.335 294.783 126.385 293.832 126.068C292.882 125.751 291.614 127.177 291.931 128.444C291.205 127.892 290.321 127.587 289.409 127.573C288.497 127.558 287.604 127.836 286.861 128.365C286.127 128.94 285.611 129.747 285.395 130.653C285.179 131.56 285.277 132.512 285.673 133.356C285.118 132.168 283.375 135.257 283.296 135.574C282.912 136.39 282.706 137.278 282.692 138.18C282.678 139.082 282.857 139.976 283.217 140.803C281.87 137.396 277.196 135.97 273.869 137.713C270.542 139.456 269.116 143.655 270.145 147.22C270.015 146.986 269.838 146.782 269.626 146.619C269.413 146.456 269.171 146.337 268.911 146.271C268.652 146.204 268.382 146.191 268.118 146.231C267.853 146.272 267.6 146.365 267.373 146.507C267.17 146.68 267.005 146.893 266.887 147.133C266.769 147.372 266.701 147.632 266.686 147.899C266.671 148.165 266.71 148.432 266.801 148.683C266.892 148.933 267.032 149.163 267.214 149.359C266.819 149.088 266.342 148.964 265.864 149.007C265.387 149.05 264.94 149.259 264.6 149.596C264.26 149.938 264.056 150.392 264.027 150.873C263.998 151.355 264.145 151.83 264.442 152.21C264.06 152.085 263.646 152.095 263.27 152.239C262.895 152.383 262.581 152.653 262.382 153.003C262.218 153.362 262.176 153.766 262.262 154.152C262.348 154.537 262.557 154.885 262.857 155.142C261.111 154.626 259.243 154.71 257.549 155.379C256.599 155.775 255.727 157.122 256.599 157.597C255.804 157.416 254.975 157.461 254.205 157.727C253.435 157.993 252.755 158.469 252.242 159.103C253.409 159.378 254.613 159.459 255.807 159.34L353.96 156.884Z" fill="#34585B"/>
<g style="mix-blend-mode:multiply" opacity="0.37">
<path d="M354.912 143.576C354.992 141.833 355.625 140.09 355.625 138.347L355.863 131.138C355.942 128.207 355.863 125.355 356.021 122.424C356.18 119.493 349.446 119.413 349.605 121.156C349.509 120.472 349.208 119.833 348.742 119.323C348.275 118.814 347.664 118.458 346.99 118.304C346.302 118.203 345.6 118.326 344.987 118.654C344.374 118.982 343.882 119.498 343.584 120.126C341.683 118.463 338.038 119.889 337.801 122.424C337.722 120.76 335.583 119.73 333.919 120.285C332.255 120.839 331.225 122.265 330.513 123.85C329.8 125.434 329.245 127.89 330.116 129.712C329.818 129.411 329.42 129.228 328.998 129.199C328.575 129.17 328.156 129.296 327.819 129.554C327.508 129.84 327.306 130.226 327.248 130.645C327.19 131.065 327.28 131.491 327.502 131.851C327.423 130.663 325.601 130.346 324.729 131.217C324.013 132.171 323.674 133.356 323.779 134.544C323.726 133.347 323.833 132.149 324.096 130.98C324.193 130.401 324.158 129.809 323.993 129.246C323.828 128.684 323.538 128.166 323.145 127.732C322.274 126.939 320.452 127.098 320.214 128.286C320.689 127.256 321.165 125.989 320.768 124.88C320.372 123.77 318.471 123.454 318.075 124.483C318.55 122.978 318.55 121.077 317.362 119.968C316.174 118.859 312.688 120.206 311.579 121.156C310.47 122.107 308.727 124.8 308.727 126.702C308.727 128.603 310.391 130.742 312.371 130.742C312.054 130.187 311.104 130.663 310.787 131.296C310.338 132.14 310.138 133.094 310.208 134.047C310.278 135 310.616 135.914 311.183 136.683C310.47 136.05 309.678 135.337 308.806 135.574C307.935 135.812 307.539 136.604 307.222 137.396C306.875 138.349 306.609 139.33 306.43 140.327C306.423 138.832 306.128 137.353 305.558 135.97C304.211 133.198 299.141 130.187 296.131 131.534C293.121 132.881 292.725 136.05 292.883 138.902C292.328 137.634 290.348 137.634 289.397 138.664C288.547 139.777 288.1 141.145 288.13 142.546C287.892 144.526 287.654 146.427 287.496 148.408C286.625 148.329 285.991 147.537 285.199 147.22C284.406 146.903 283.139 147.774 283.693 148.408C282.664 146.744 281.475 144.922 279.653 144.051C277.831 143.179 274.266 144.051 272.523 146.031C270.873 148.153 270.03 150.792 270.147 153.478C270.068 154.191 269.988 155.142 269.275 155.379C268.907 155.475 268.517 155.447 268.166 155.3C267.155 154.95 266.047 155.006 265.077 155.459C264.626 155.724 264.284 156.139 264.11 156.632C263.936 157.125 263.942 157.663 264.126 158.152L258.581 158.548C258.264 158.627 258.026 158.627 257.868 158.944C257.709 159.261 258.818 159.182 259.769 159.261C267.453 159.816 275.692 158.865 283.456 158.627L296.21 158.31L302.865 158.152C304.449 158.073 306.509 158.548 308.014 157.914C308.135 157.88 308.248 157.82 308.343 157.738C308.439 157.656 308.516 157.554 308.569 157.439C308.672 157.133 308.699 156.807 308.648 156.488C308.252 154.508 308.093 152.369 309.044 150.626C309.995 148.883 312.213 147.616 314.035 148.487C314.114 145.398 315.619 142.229 318.313 140.803C321.006 139.377 324.967 140.09 326.393 142.783C326.552 141.278 327.027 139.535 328.374 138.981C329.72 138.426 331.542 139.615 332.097 141.12C332.651 142.625 332.651 144.209 332.81 145.794C332.968 147.378 333.602 149.042 335.028 149.675C334.947 148.545 335.109 147.411 335.503 146.348C335.727 145.821 336.124 145.385 336.627 145.112C337.131 144.838 337.712 144.744 338.276 144.843C338.355 143.338 338.514 141.753 339.464 140.644C340.415 139.535 342.554 139.298 343.188 140.644C343.098 139.723 343.37 138.802 343.946 138.078C344.523 137.353 345.359 136.882 346.277 136.763C347.21 136.741 348.113 137.085 348.794 137.722C349.476 138.359 349.88 139.237 349.921 140.169C349.93 139.894 349.996 139.625 350.115 139.377C350.234 139.129 350.403 138.909 350.612 138.73C350.821 138.551 351.064 138.418 351.327 138.338C351.59 138.259 351.867 138.235 352.14 138.268C352.681 138.375 353.185 138.621 353.601 138.982C354.018 139.343 354.334 139.807 354.516 140.327C354.847 141.377 354.981 142.478 354.912 143.576Z" fill="#34585B"/>
</g>
<path d="M309.042 127.415C310.697 128.455 312.566 129.105 314.509 129.317C317.044 129.475 319.103 127.732 321.322 126.623C321.546 127.583 322.063 128.449 322.801 129.102C323.539 129.754 324.461 130.162 325.441 130.267C327.421 130.505 329.323 129.792 331.145 128.921C332.016 131.139 334.868 132.01 337.245 131.772C345.642 130.901 349.603 121.949 349.999 114.582C350.237 109.432 349.603 104.283 349.524 99.0546C349.445 95.4105 351.029 92.717 351.504 89.1521C352.088 85.4211 351.706 81.6028 350.395 78.0613C350.06 77.2298 349.556 76.4768 348.915 75.8496C348.274 75.2224 347.51 74.7347 346.672 74.4172C345.008 73.9419 342.869 74.6548 342.156 76.2392C342.632 74.6548 343.107 72.9912 342.552 71.486C341.998 69.9808 339.938 68.8718 338.671 69.9016C338.357 69.1785 337.849 68.5563 337.204 68.1035C336.558 67.6508 335.8 67.3851 335.014 67.336C334.227 67.2868 333.442 67.456 332.745 67.8249C332.048 68.1937 331.467 68.7479 331.066 69.4263C329.932 69.1126 328.734 69.1167 327.602 69.438C326.47 69.7594 325.449 70.3856 324.649 71.2484C323.865 72.1475 323.358 73.2542 323.189 74.435C323.021 75.6159 323.197 76.8202 323.698 77.9029C322.864 77.1479 321.857 76.6088 320.766 76.3326C319.675 76.0564 318.533 76.0515 317.44 76.3185C315.272 76.8247 313.326 78.0199 311.894 79.7249C309.676 82.1807 308.329 85.5872 309.359 88.756C305.715 87.0132 301.12 88.756 298.585 91.8456C296.05 94.9352 295.337 99.213 295.417 103.253C295.77 111.449 299.36 119.17 305.398 124.722C306.531 125.726 307.75 126.627 309.042 127.415Z" fill="#608C53"/>
<g style="mix-blend-mode:multiply" opacity="0.2">
<path d="M309.042 127.415C310.697 128.455 312.566 129.105 314.509 129.317C317.044 129.475 319.103 127.732 321.322 126.623C321.546 127.583 322.063 128.449 322.801 129.102C323.539 129.754 324.461 130.162 325.441 130.267C327.421 130.505 329.323 129.792 331.145 128.921C332.016 131.139 334.868 132.01 337.245 131.772C345.642 130.901 349.603 121.949 349.999 114.582C350.237 109.432 349.603 104.283 349.524 99.0546C349.445 95.4105 351.029 92.717 351.504 89.1521C352.088 85.4211 351.706 81.6028 350.395 78.0613C350.06 77.2298 349.556 76.4768 348.915 75.8496C348.274 75.2224 347.51 74.7347 346.672 74.4172C345.008 73.9419 342.869 74.6548 342.156 76.2392C342.632 74.6548 343.107 72.9912 342.552 71.486C341.998 69.9808 340.017 69.4263 338.275 70.1393H340.017C340.176 70.5354 339.859 70.9315 339.621 71.2484C339.254 71.4631 338.974 71.7994 338.829 72.199C338.829 72.5951 339.225 73.0704 339.621 72.8328C338.433 73.2289 337.086 73.9418 337.166 75.1301C337.234 75.4788 337.396 75.8025 337.633 76.0673C337.87 76.3321 338.173 76.5283 338.512 76.6353C339.156 76.8937 339.818 77.1055 340.493 77.2691C341.113 77.5072 341.679 77.8686 342.155 78.3316C342.632 78.7946 343.01 79.3494 343.265 79.9626C343.434 80.2491 343.49 80.5876 343.424 80.9132C343.345 81.7054 342.156 81.9431 341.443 81.6262C340.73 81.3093 340.017 80.6756 339.225 80.3587C338.787 80.197 338.313 80.1558 337.853 80.2394C337.393 80.323 336.964 80.5283 336.611 80.834C336.243 81.135 335.961 81.5281 335.794 81.9734C335.627 82.4187 335.581 82.9002 335.66 83.369C335.027 82.5768 334.155 81.7054 333.125 81.7846C332.095 81.8638 330.986 83.7651 331.382 85.1119C331.779 86.4586 332.808 87.6469 333.521 88.9144C334.234 90.1819 333.759 89.3105 333.759 89.5482C333.759 89.7859 333.205 90.4988 332.729 90.7365C331.301 91.3053 329.735 91.428 328.236 91.0886C326.737 90.7492 325.376 89.9635 324.332 88.8352C322.827 87.0131 321.955 84.3989 319.658 83.7651C317.361 83.1314 315.301 85.0326 313.954 86.9339C313.954 84.3197 313.875 81.7846 313.716 79.1704C309.914 79.9626 308.25 85.2703 309.359 88.6768C305.715 86.9339 301.12 88.6768 298.585 91.7664C296.05 94.8559 295.337 99.1338 295.417 103.174C295.77 111.37 299.36 119.091 305.398 124.643C306.527 125.674 307.747 126.602 309.042 127.415Z" fill="#608C53"/>
</g>
<g style="mix-blend-mode:multiply" opacity="0.2">
<path d="M309.042 127.415C310.697 128.454 312.566 129.105 314.508 129.317C317.043 129.475 319.103 127.732 321.321 126.623C321.545 127.583 322.062 128.449 322.8 129.102C323.538 129.754 324.461 130.162 325.441 130.267C327.421 130.505 329.322 129.792 331.144 128.921C332.016 131.139 334.868 132.01 337.244 131.772C345.642 130.901 349.603 121.949 349.999 114.582C350.236 109.432 349.603 104.283 349.523 99.0546C349.523 97.2325 353.96 83.0521 349.048 83.9235C348.596 84.0065 348.181 84.228 347.86 84.5573C345.775 86.2236 344.253 88.4918 343.503 91.0533C343.503 89.9443 341.76 89.865 341.205 90.7365C340.651 91.6079 340.73 92.717 340.492 93.7468C339.779 96.2026 337.007 97.4702 334.472 97.7078C330.373 98.0817 326.287 96.8617 323.064 94.3014C321.876 93.3507 320.846 92.1624 319.499 91.6079C318.152 91.0533 316.251 91.1325 315.459 92.4001C313.478 89.865 309.517 90.1027 306.507 91.0533C301.12 92.717 295.258 96.9948 295.416 103.253C295.769 111.449 299.359 119.17 305.398 124.722C306.53 125.726 307.75 126.627 309.042 127.415Z" fill="#608C53"/>
</g>
<path d="M284.325 111.175C284.246 109.669 284.167 108.164 284.008 106.659C283.85 105.154 282.741 101.985 281.949 99.6876C281.717 98.755 281.154 97.9385 280.364 97.3902C279.572 96.9149 278.225 97.311 278.146 98.2617C275.532 92.3202 269.036 88.5968 262.54 88.5176C258.92 88.5385 255.359 89.4354 252.162 91.1319C249.944 92.2409 245.27 94.6175 244.874 97.4695C244.816 98.0094 244.951 98.5523 245.256 99.0018C245.561 99.4514 246.014 99.7785 246.537 99.9253C244.071 100.719 241.84 102.111 240.042 103.977C238.245 105.843 236.939 108.125 236.239 110.62C235.605 113.076 235.605 115.848 236.952 118.067C238.298 120.285 240.992 121.79 243.448 120.998C243.133 121.769 242.706 122.49 242.18 123.137C241.916 123.452 241.751 123.839 241.709 124.249C241.667 124.658 241.748 125.071 241.943 125.434C242.497 126.068 243.844 125.672 243.606 124.88C241.943 128.524 244.002 133.039 247.329 135.257C250.657 137.476 255.014 137.634 258.975 137.238C263.167 136.837 267.277 135.823 271.175 134.228C277.195 131.772 281.553 125.672 283.295 119.493C283.993 116.775 284.339 113.98 284.325 111.175Z" fill="#327770"/>
<path d="M261.353 131.455C261.351 131.073 261.27 130.695 261.115 130.346C260.841 129.871 260.494 129.443 260.085 129.078C258.803 127.701 257.854 126.048 257.313 124.246C257.222 124.018 257.169 123.778 257.154 123.533C257.195 123.411 257.268 123.303 257.366 123.219C257.463 123.135 257.582 123.08 257.709 123.058C258.422 125.197 260.006 126.939 261.432 128.682C261.115 128.286 261.432 126.543 261.432 125.989C261.432 125.434 261.432 123.691 261.432 122.503C261.432 121.315 261.353 117.988 261.274 115.69H261.986C262.592 120.1 262.883 124.548 262.858 128.999C264.183 125.785 265.036 122.396 265.393 118.938C265.685 118.99 265.986 118.963 266.264 118.859C266.66 119.097 266.027 122.265 265.947 122.741C265.314 126.385 263.333 129.871 263.412 133.594C263.412 136.05 263.333 138.585 263.333 141.041C263.412 146.507 263.65 151.973 264.046 157.36C263.365 157.254 262.674 157.228 261.986 157.281C261.432 157.281 261.274 136.367 261.353 134.465C261.46 133.678 261.486 132.882 261.432 132.089C261.44 131.875 261.413 131.661 261.353 131.455Z" fill="#38485E"/>
<path d="M297.16 124.325C294.002 124.724 290.795 124.481 287.733 123.612C276.484 120.681 269.433 105.709 276.246 95.5686C278.543 92.2413 283.138 90.1024 286.861 91.766C286.724 91.6848 286.604 91.5767 286.51 91.4483C286.415 91.3198 286.347 91.1735 286.31 91.0183C286.273 90.863 286.268 90.7019 286.294 90.5446C286.321 90.3872 286.379 90.2368 286.465 90.1024C286.558 89.9757 286.681 89.8741 286.823 89.8067C286.965 89.7392 287.122 89.708 287.279 89.7159C287.436 89.7237 287.588 89.7704 287.723 89.8516C287.857 89.9329 287.97 90.0463 288.05 90.1816C287.795 89.7231 287.637 89.2167 287.587 88.6943C287.537 88.1719 287.596 87.6449 287.76 87.1464C287.923 86.6478 288.189 86.1885 288.538 85.7974C288.888 85.4063 289.315 85.0919 289.793 84.8738C290.287 84.7191 290.808 84.6692 291.322 84.7272C291.837 84.7852 292.334 84.95 292.781 85.2109C293.229 85.4719 293.617 85.8233 293.92 86.2426C294.224 86.662 294.437 87.1402 294.546 87.6465C294.624 87.0377 294.928 86.4804 295.398 86.0845C295.867 85.6885 296.467 85.4828 297.081 85.5076C297.373 85.564 297.647 85.6912 297.879 85.8779C298.11 86.0647 298.293 86.3053 298.41 86.5789C298.527 86.8524 298.576 87.1505 298.551 87.4471C298.527 87.7437 298.43 88.0298 298.269 88.2803C299.299 86.6959 301.517 86.5375 303.26 87.092C304.638 87.4613 305.844 88.3023 306.666 89.4686C307.083 90.0446 307.369 90.7042 307.506 91.4017C307.643 92.0993 307.627 92.8182 307.459 93.5089C308.243 93.3839 309.047 93.5078 309.757 93.863C310.468 94.2182 311.049 94.7869 311.42 95.4894C311.791 96.1886 311.93 96.9881 311.816 97.7716C311.702 98.5551 311.341 99.2819 310.786 99.8465C312.212 99.3711 313.242 101.748 313.479 102.698C314.345 106.69 313.635 110.862 311.499 114.344C309.978 116.95 307.907 119.193 305.431 120.917C302.954 122.641 300.132 123.804 297.16 124.325Z" fill="#8EA565"/>
<g style="mix-blend-mode:multiply" opacity="0.38">
<path d="M297.159 124.325C294.001 124.723 290.794 124.481 287.732 123.612C278.067 121.156 270.383 109.115 275.611 99.6875C276.486 102.997 278.113 106.061 280.364 108.639C279.808 107.161 279.584 105.579 279.707 104.005C279.83 102.431 280.298 100.903 281.077 99.5291C281.949 98.1824 283.295 96.9149 284.88 96.9941C285.513 97.1218 286.126 97.335 286.702 97.6278L291.772 100.084C291.448 99.168 291.287 98.2028 291.297 97.2317C291.322 96.7495 291.485 96.2845 291.765 95.8916C292.046 95.4986 292.433 95.194 292.881 95.0136C294.149 94.6175 295.416 95.6473 296.684 96.2019C297.554 96.5315 298.504 96.5891 299.408 96.3668C300.312 96.1446 301.127 95.6532 301.745 94.9575C302.364 94.2619 302.756 93.3948 302.871 92.4712C302.985 91.5475 302.817 90.6108 302.388 89.785C303.208 89.8635 303.983 90.1958 304.606 90.7357C304.368 90.498 304.051 88.1214 303.734 87.5669C306.349 87.8838 308.171 90.9734 307.458 93.5084C308.242 93.3835 309.046 93.5073 309.756 93.8625C310.467 94.2177 311.048 94.7865 311.419 95.4889C311.79 96.1882 311.929 96.9876 311.815 97.7712C311.701 98.5547 311.34 99.2815 310.785 99.846C312.211 99.3707 313.241 101.747 313.478 102.698C314.344 106.69 313.634 110.862 311.498 114.343C309.977 116.949 307.906 119.192 305.43 120.916C302.953 122.64 300.131 123.803 297.159 124.325Z" fill="#8EA565"/>
</g>
<path d="M347.86 63.485V155.935L411.949 168.531H520.956V61.7421H527.848V59.1279H525.551L489.189 21.9737H372.973L371.309 20.3893L340.176 63.485H347.86Z" fill="white"/>
<path d="M384.698 120.285V162.985L404.979 167.184V122.187L384.698 120.285Z" fill="#48678C" stroke="#EAEAD0" stroke-width="0.559059" stroke-miterlimit="10"/>
<path d="M353.247 117.83V157.044L367.348 159.816V119.256L353.247 117.83Z" fill="#48678C" stroke="#EAEAD0" stroke-width="0.559059" stroke-miterlimit="10"/>
<path d="M367.348 159.816H374.557V120.84L367.348 120.048V159.816Z" fill="#49372B"/>
<path d="M374.557 159.816L384.698 161.638V162.985L367.348 159.816H374.557Z" fill="#49372B"/>
<path d="M353.247 117.83L358.396 118.384V158.074L353.247 157.044V117.83Z" fill="#5D90BA" stroke="#EAEAD0" stroke-width="0.559059" stroke-miterlimit="10"/>
<path d="M404.978 122.186V167.183L398.719 165.916V121.552L404.978 122.186Z" fill="#5D90BA" stroke="#EAEAD0" stroke-width="0.559059" stroke-miterlimit="10"/>
<path d="M374.557 159.816L384.698 161.638V121.711L374.557 120.839V159.816Z" fill="#5E4838"/>
<path d="M376.934 120.919V160.291L374.557 159.816V120.839L376.934 120.919Z" fill="#EAEAD0"/>
<path d="M378.757 133.119L382.559 133.594V147.774L378.757 147.22V133.119Z" fill="#38485E" stroke="white" stroke-width="0.559059" stroke-miterlimit="10"/>
<path d="M351.345 116.957V118.779L407.512 123.691V121.314L351.345 116.957Z" fill="#845F46"/>
<path d="M521.035 60.4738H411.79V168.554H521.035V60.4738Z" fill="#EAEAD0"/>
<path d="M516.361 69.1091H424.624V98.2859H516.361V69.1091Z" fill="#5E4838"/>
<path d="M513.825 71.4065H427V96.1469H513.825V71.4065Z" fill="white"/>
<path d="M512.638 72.4358H427.952V95.267H512.638V72.4358Z" fill="#48678C"/>
<path d="M433.655 91.1318C433.108 91.2165 432.575 91.3765 432.071 91.6071C431.114 92.0276 430.21 92.5594 429.377 93.1915C429.298 93.2707 427.476 95.0927 428.031 95.172H428.348C429.219 95.5681 431.437 95.172 432.309 95.172H512.638V77.5851C512.638 75.7631 512.875 74.1787 512.479 72.4358C511.587 72.4327 510.707 72.639 509.909 73.038C509.111 73.437 508.417 74.0176 507.884 74.7332C506.379 76.7137 506.3 79.5656 504.636 81.3877C502.973 83.2097 499.566 83.7643 497.031 82.6552C494.496 81.5461 492.833 79.328 490.377 78.2189C486.099 76.2384 481.108 78.0604 477.226 80.6747C473.344 83.289 470.096 86.8539 465.977 88.9136C461.858 90.9733 457.104 91.4486 452.43 91.3694C447.756 91.2902 443.241 90.6564 438.646 90.5772C436.967 90.5655 435.291 90.7516 433.655 91.1318Z" fill="#38485E"/>
<path d="M452.826 71.4065H450.766V96.1469H452.826V71.4065Z" fill="white"/>
<path d="M489.348 71.4065H487.288V96.1469H489.348V71.4065Z" fill="white"/>
<path d="M513.825 82.7351H427V84.8899H513.825V82.7351Z" fill="white"/>
<path d="M467.562 103.49H422.01V158.041H467.562V103.49Z" fill="#5E4838"/>
<path d="M464.868 105.788H424.624V157.035H464.868V105.788Z" fill="white"/>
<path d="M462.491 108.957H427.713V153.74H462.491V108.957Z" fill="#48678C"/>
<path d="M451.242 123.613C452.192 122.108 453.539 120.92 455.203 120.84C455.599 120.84 456.153 120.84 456.391 120.523C456.551 120.321 456.635 120.068 456.629 119.81C456.946 117.592 457.421 115.374 458.688 113.631C459.956 111.888 462.333 108.799 462.333 108.799V153.796H427.713C427.317 153.796 428.189 144.052 428.426 143.101C429.318 140.03 431.324 137.403 434.051 135.734C437.013 133.848 440.595 133.194 444.033 133.912C445.986 134.361 447.876 135.053 449.657 135.971C448.632 132.314 448.941 128.41 450.529 124.96C450.687 124.473 450.928 124.017 451.242 123.613Z" fill="#38485E"/>
<path d="M444.032 107.373V155.38" stroke="white" stroke-width="1.67718" stroke-miterlimit="10"/>
<path d="M426.13 131.455H463.68" stroke="white" stroke-width="1.67718" stroke-miterlimit="10"/>
<path d="M515.49 103.49H471.365V158.041H515.49V103.49Z" fill="#5E4838"/>
<path d="M512.56 105.788H474.217V157.036H512.56V105.788Z" fill="white"/>
<path d="M509.231 108.957H477.543V153.74H509.231V108.957Z" fill="#48678C"/>
<path d="M486.02 121.711C476.039 134.069 477.544 153.716 477.544 153.716H509.232V108.957C509.232 108.957 495.923 109.353 486.02 121.711Z" fill="#38485E"/>
<path d="M493.942 107.373V155.38" stroke="white" stroke-width="1.67718" stroke-miterlimit="10"/>
<path d="M476.038 130.741H511.053" stroke="white" stroke-width="1.67718" stroke-miterlimit="10"/>
<path d="M517.945 157.043H418.524V163.008H517.945V157.043Z" fill="#5E4838"/>
<path d="M519.767 156.014H416.543V159.436H519.767V156.014Z" fill="#845F46"/>
<path d="M372.973 21.9738L410.286 59.9994L527.135 60.4747L489.189 21.9738H372.973Z" fill="#7C2C1D"/>
<g style="mix-blend-mode:multiply" opacity="0.34">
<path d="M372.973 21.9738L410.286 59.9994L527.135 60.4747L520.956 54.1371C520.956 54.1371 518.183 53.9786 516.836 54.0579C506.915 54.3478 497.182 51.3079 489.189 45.4229C485.465 42.571 482.138 39.1645 478.098 36.9463C472.79 34.0944 466.532 33.5399 460.59 34.2529C454.649 34.9658 448.945 37.1048 443.4 39.4814C439.439 41.0658 435.398 42.8878 431.12 43.0463C423.436 43.2047 416.782 38.0554 410.999 33.0646C405.215 28.0737 397.927 21.9738 389.055 21.9738H377.251C376.696 21.9738 373.369 22.4491 372.973 21.9738Z" fill="#7C2C1D"/>
</g>
<g style="mix-blend-mode:multiply" opacity="0.3">
<path d="M411.79 168.531C426.129 79.012 488.317 215.033 520.955 80.5172V168.531H411.79Z" fill="#845F46"/>
</g>
<g style="mix-blend-mode:multiply" opacity="0.42">
<path d="M371.626 22.9235L341.998 63.4841H347.86V74.971L376.934 38.5298L411.791 74.971H520.956V60.4738L410.286 59.9984L374.874 26.2507L371.626 22.9235Z" fill="#845F46"/>
</g>
<path d="M371.467 48.2738L364.021 59.9984V86.3786H387.39V56.275L371.467 48.2738Z" fill="#845F46"/>
<path d="M366.318 83.8439H384.063V56.9091L372.972 51.2052L366.318 59.9986V83.8439Z" fill="#5D90BA"/>
<path d="M366.398 83.9231H366.557C366.953 84.3192 369.726 84.0023 370.28 83.9231H376.222C376.697 83.9231 384.064 83.7646 384.064 83.9231V56.9091L372.974 51.2052C370.835 54.0571 368.696 57.3844 366.082 59.6818C370.809 61.7271 375.342 64.1928 379.628 67.0492C377.568 70.218 375.509 73.3868 373.211 76.3972C372.102 77.9816 370.914 79.4075 369.726 80.8335C369.155 81.5998 368.518 82.3154 367.824 82.9724C367.303 83.2146 366.822 83.5352 366.398 83.9231Z" fill="#48678C"/>
<path d="M372.973 51.2052V83.8439" stroke="white" stroke-width="0.559059" stroke-miterlimit="10"/>
<path d="M366.318 71.0105L384.063 70.5352" stroke="white" stroke-width="0.559059" stroke-miterlimit="10"/>
<path d="M366.318 59.9989L384.063 59.4443" stroke="white" stroke-width="0.559059" stroke-miterlimit="10"/>
<path d="M366.318 59.9986L372.972 51.2052L384.063 56.9091V83.8439H366.318V59.9986Z" stroke="white" stroke-width="0.559059" stroke-miterlimit="10"/>
<path d="M359.744 59.9994H364.022L371.151 49.2255L368.933 46.8489L359.744 59.9994Z" fill="#993A23"/>
<path d="M380.974 59.1271H392.461L379.389 46.0558H369.487L380.974 59.1271Z" fill="#7C2C1D"/>
<path d="M359.744 59.9985H361.328L369.884 47.7986L380.103 59.1271H382.005L370.28 46.0558H369.488L359.744 59.9985Z" fill="#BC3C19"/>
<path d="M379.31 43.2043H369.487V46.0483H379.31V43.2043Z" fill="#7C2C1D"/>
<path d="M370.279 43.2043H369.487V46.0483H370.279V43.2043Z" fill="#BC3C19"/>
<g style="mix-blend-mode:multiply" opacity="0.58">
<path d="M369.884 47.7983L361.328 59.9982H364.022V69.1085L387.392 61.7411V59.1268H380.103L369.884 47.7983Z" fill="#38485E"/>
</g>
<path d="M295.417 156.014V158.945L342.156 169.719V166.709L295.417 156.014Z" fill="#845F46"/>
<path d="M404.899 166.708H342.157V169.75H404.899V166.708Z" fill="#49372B"/>
<path d="M295.417 156.014H347.86L404.978 166.709H342.156L295.417 156.014Z" fill="#5E4838"/>
<g style="mix-blend-mode:multiply" opacity="0.31">
<path d="M318.786 156.25L342.393 166.708L342.156 169.718H404.977V166.708L398.085 165.44V112.204L347.86 113.234V155.934L318.786 156.25Z" fill="#38485E"/>
</g>
<path d="M369.169 114.74H363.861V166.676H369.169V114.74Z" fill="#845F46"/>
<path d="M369.25 114.74H367.348V166.676H369.25V114.74Z" fill="#5E4838"/>
<path d="M393.649 114.74H388.975V166.676H393.649V114.74Z" fill="#5E4838"/>
<path d="M390.718 114.74H388.975V166.676H390.718V114.74Z" fill="#845F46"/>
<path d="M339.542 113.71V166.075L342.157 166.708H345.167V114.502L339.542 113.71Z" fill="#5E4838"/>
<path d="M339.542 113.71L342.394 114.106V166.708L339.542 166.075V113.71Z" fill="#845F46"/>
<path d="M297.635 110.7V156.568L300.804 157.281H303.339V110.7H297.635Z" fill="#5E4838"/>
<path d="M297.635 110.7L300.804 110.779V157.281L297.635 156.568V110.7Z" fill="#845F46"/>
<path d="M321.402 112.204V157.28H324.729V112.679L321.402 112.204Z" fill="#5E4838"/>
<path d="M282.74 110.7V105.788L311.893 94.4596L362.198 95.8063L399.748 110.7V115.849H346.908L282.74 110.7Z" fill="#7C2C1D"/>
<g style="mix-blend-mode:multiply" opacity="0.53">
<path d="M346.909 115.849V110.7H399.749V115.849H346.909Z" fill="#7C2C1D"/>
</g>
<path d="M346.908 110.7L282.74 105.788V110.7L346.908 115.849V110.7Z" fill="#993A23"/>
<g style="mix-blend-mode:multiply" opacity="0.57">
<path d="M282.741 108.561L346.91 113.71V115.849L282.741 110.7V108.561Z" fill="#BC3C19"/>
</g>
<g style="mix-blend-mode:multiply" opacity="0.57">
<path d="M399.828 113.71H346.909V115.849H399.828V113.71Z" fill="#7C2C1D"/>
</g>
<path d="M311.893 94.4596L346.908 110.7L282.74 105.788L311.893 94.4596Z" fill="#BC3C19"/>
<path d="M340.176 63.4845H341.998L371.626 22.9238L409.652 61.7416H527.848V59.1274H410.285L371.468 20.3096L340.176 63.4845Z" fill="#BC3C19"/>
<path d="M341.998 63.4841H347.86L374.874 26.2507L371.626 22.9235L341.998 63.4841Z" fill="#7C2C1D"/>
<path d="M490.694 156.251C493.546 156.331 496.794 158.628 496.239 161.48C498.537 160.292 501.706 160.054 503.528 161.955C505.35 163.857 504.875 167.897 503.845 170.907C504.455 170.359 505.243 170.05 506.063 170.036C506.855 170.194 507.489 171.303 506.934 171.858C507.114 171.552 507.392 171.316 507.722 171.186C508.052 171.057 508.417 171.043 508.756 171.145C509.09 171.284 509.366 171.532 509.538 171.849C509.711 172.166 509.771 172.532 509.707 172.888C509.949 172.488 510.339 172.202 510.792 172.09C511.245 171.979 511.724 172.052 512.123 172.294C512.522 172.535 512.809 172.925 512.921 173.379C513.032 173.832 512.959 174.311 512.717 174.71C513.302 173.603 514.08 172.61 515.015 171.779C515.494 171.357 516.069 171.057 516.69 170.905C517.311 170.753 517.959 170.754 518.58 170.907C518.876 171.006 519.151 171.162 519.387 171.366C519.623 171.571 519.817 171.82 519.957 172.1C520.097 172.38 520.18 172.684 520.202 172.996C520.224 173.308 520.184 173.621 520.085 173.918C520.243 173.125 521.511 173.046 521.986 173.68C522.172 174.028 522.235 174.43 522.163 174.819C522.091 175.207 521.889 175.56 521.59 175.819C520.948 176.328 520.183 176.656 519.372 176.769C514.539 177.879 509.469 177.799 504.478 177.641C493.625 177.324 482.851 177.482 471.998 177.245C471.818 177.277 471.633 177.257 471.465 177.187C471.296 177.116 471.151 176.999 471.048 176.849C470.81 176.532 471.048 176.056 471.364 175.74C471.933 175.098 472.728 174.701 473.583 174.631C471.998 174.947 470.414 173.601 470.097 171.937C469.966 170.328 470.479 168.733 471.523 167.501C473.028 165.599 474.85 164.728 476.91 163.698C477.385 163.54 482.376 161.559 482.059 163.46C482.429 161.439 483.496 159.612 485.073 158.295C486.65 156.978 488.639 156.255 490.694 156.251Z" fill="#8EA565"/>
<g style="mix-blend-mode:multiply" opacity="0.29">
<path d="M489.11 161.4C489.343 161.454 489.563 161.556 489.755 161.7C489.948 161.843 490.108 162.024 490.227 162.233C490.346 162.441 490.421 162.671 490.447 162.91C490.473 163.148 490.449 163.389 490.377 163.618C491.011 162.905 491.962 162.113 492.833 162.509C493.125 162.696 493.366 162.954 493.532 163.258C493.698 163.563 493.785 163.905 493.784 164.252C493.844 165.439 493.57 166.62 492.991 167.658C493.75 166.757 494.734 166.074 495.843 165.678C496.952 165.282 498.378 165.519 498.933 166.549C499.127 167.022 499.206 167.534 499.165 168.043C499.124 168.553 498.963 169.045 498.695 169.48C498.22 170.352 497.507 171.144 497.111 172.015C497.401 171.594 497.832 171.291 498.326 171.16C498.82 171.029 499.344 171.08 499.804 171.302C500.266 171.54 500.629 171.931 500.832 172.409C501.035 172.886 501.064 173.42 500.913 173.917C501.667 173.176 502.554 172.585 503.528 172.174C503.61 172.124 503.702 172.091 503.797 172.077C503.892 172.064 503.989 172.07 504.082 172.095C504.874 172.174 504.874 173.283 504.637 173.996C505.245 173.468 505.984 173.112 506.776 172.966C506.994 173.409 507.103 173.898 507.093 174.392C507.512 174.345 507.917 174.21 508.281 173.996C508.756 173.837 509.311 173.837 509.469 174.234C509.59 174.392 509.646 174.59 509.628 174.788C509.674 174.96 509.753 175.122 509.862 175.263C509.971 175.404 510.106 175.522 510.261 175.611C510.416 175.699 510.586 175.756 510.763 175.778C510.94 175.8 511.12 175.787 511.291 175.739C511.974 175.607 512.59 175.243 513.034 174.709C513.43 174.234 513.826 173.679 514.381 173.6C514.935 173.521 515.648 174.154 515.332 174.63C515.648 173.917 516.124 173.283 516.837 173.283C517.55 173.283 518.183 174.313 517.55 174.709L518.976 174.392C519.116 174.717 519.144 175.079 519.055 175.422C519.055 175.263 521.273 176.056 519.768 177.006C518.263 177.957 516.361 177.323 515.411 177.402C511.776 177.719 508.124 177.798 504.478 177.64C493.625 177.323 482.851 177.482 471.998 177.244C471.818 177.276 471.633 177.256 471.465 177.186C471.296 177.115 471.151 176.998 471.048 176.848C470.81 176.531 471.048 176.056 471.364 175.739C471.933 175.097 472.728 174.7 473.583 174.63C471.998 174.947 470.414 173.6 470.097 171.936C469.966 170.327 470.479 168.732 471.523 167.5C472.711 165.995 475.563 163.618 477.702 164.093C478.415 164.252 478.811 165.282 478.257 165.757C479.125 165.413 480.089 165.401 480.965 165.722C481.842 166.044 482.57 166.676 483.01 167.5C483.247 165.995 484.277 164.648 485.228 163.46C486.179 162.271 486.971 161.479 488.238 161.321L489.11 161.4Z" fill="#8EA565"/>
</g>
<path d="M425.971 180.334C424.941 180.255 423.594 179.7 423.911 178.75C424.015 178.536 424.171 178.351 424.365 178.213C424.559 178.074 424.784 177.987 425.02 177.958C426.276 177.563 427.608 177.482 428.902 177.72C428.006 176.397 427.454 174.871 427.298 173.28C427.142 171.69 427.386 170.085 428.008 168.613C428.63 167.141 429.61 165.848 430.859 164.851C432.108 163.854 433.587 163.185 435.16 162.906C437.775 162.43 440.785 163.302 442.29 165.441C441.754 163.347 441.792 161.148 442.399 159.073C443.005 156.999 444.159 155.126 445.739 153.652C447.319 152.177 449.267 151.155 451.378 150.692C453.49 150.23 455.686 150.344 457.738 151.023C460.273 151.815 462.571 153.637 463.363 156.093C463.838 154.746 464.393 153.32 465.581 152.607C466.769 151.894 468.908 152.686 468.75 154.033C468.805 153.762 468.924 153.508 469.098 153.292C469.271 153.076 469.493 152.904 469.746 152.791C469.998 152.678 470.274 152.627 470.551 152.642C470.827 152.657 471.096 152.737 471.335 152.877C471.575 153.016 471.777 153.211 471.926 153.444C472.075 153.677 472.166 153.943 472.192 154.218C472.218 154.494 472.178 154.772 472.076 155.029C471.973 155.286 471.81 155.515 471.602 155.697C473.028 155.697 473.978 157.36 473.899 158.786C473.685 160.192 473.081 161.509 472.156 162.589C473.107 161.876 474.612 162.589 475.008 163.777C475.145 164.363 475.152 164.971 475.029 165.559C474.906 166.148 474.655 166.702 474.295 167.184C473.599 168.187 472.99 169.247 472.473 170.352C473.508 169.006 474.912 167.988 476.513 167.421C477.296 167.125 478.148 167.064 478.965 167.247C479.782 167.43 480.527 167.849 481.108 168.451C482.851 170.511 481.663 173.759 479.841 175.739C480.712 175.185 481.979 174.551 483.009 174.947C484.039 175.343 484.911 176.532 483.564 177.086C485.42 176.993 487.277 177.263 489.03 177.878L489.505 178.116C489.901 178.671 489.268 179.384 488.634 179.7C489.372 179.605 490.122 179.685 490.824 179.932C491.526 180.18 492.159 180.589 492.674 181.126C484.548 182.05 476.358 182.262 468.195 181.76L469.304 180.572C454.886 179.938 440.389 181.522 425.971 180.334Z" fill="#608C53"/>
<g style="mix-blend-mode:multiply" opacity="0.3">
<path d="M425.971 180.334C424.941 180.255 423.594 179.7 423.911 178.75C424.015 178.536 424.171 178.351 424.365 178.213C424.559 178.074 424.784 177.987 425.02 177.958C426.276 177.564 427.608 177.482 428.902 177.72C428.268 177.641 427.635 175.027 427.555 174.472C427.46 173.248 427.567 172.017 427.872 170.828C428.032 170.264 428.376 169.77 428.85 169.425C429.324 169.08 429.901 168.904 430.486 168.927C431.675 169.006 432.467 170.115 433.101 171.145C432.884 170.325 432.974 169.455 433.353 168.696C433.732 167.938 434.375 167.344 435.16 167.025C435.987 166.782 436.863 166.763 437.699 166.972C438.535 167.181 439.299 167.61 439.914 168.214C440.76 169.191 441.503 170.253 442.132 171.382C442.467 171.937 442.915 172.414 443.448 172.782C443.98 173.151 444.585 173.403 445.221 173.521C444.904 171.303 444.667 169.085 444.429 166.867C444.192 164.649 444.033 163.54 444.746 162.114C445.459 160.688 447.519 159.737 448.786 160.767C448.57 159.708 448.771 158.606 449.346 157.692C449.922 156.777 450.828 156.119 451.876 155.855C453.143 155.618 454.49 156.014 455.837 155.934C456.338 155.895 456.841 155.895 457.342 155.934C458.53 156.093 459.323 157.281 459.56 158.47C459.636 159.677 459.475 160.889 459.085 162.034C459.858 161.26 460.811 160.689 461.858 160.371C462.369 160.187 462.921 160.149 463.453 160.261C463.984 160.373 464.474 160.63 464.868 161.005C466.135 162.351 465.502 164.49 464.789 166.154C465.341 165.777 465.959 165.509 466.611 165.362C466.947 165.298 467.296 165.34 467.608 165.482C467.919 165.624 468.18 165.858 468.354 166.154C468.554 166.69 468.554 167.281 468.354 167.817C468.091 168.993 467.636 170.117 467.007 171.145C467.981 170.087 469.302 169.412 470.73 169.243C471.056 169.21 471.384 169.265 471.681 169.402C472.315 169.798 472.235 170.669 472.156 171.303C471.988 172.648 471.696 173.973 471.285 175.264C472.175 173.407 473.689 171.921 475.563 171.066C476.513 170.669 477.86 170.511 478.256 171.541C478.342 171.81 478.358 172.097 478.303 172.374C478.247 172.651 478.122 172.91 477.939 173.125C477.349 174.327 476.604 175.446 475.721 176.452C476.295 176.078 476.944 175.835 477.622 175.74C477.854 175.661 478.104 175.661 478.335 175.74C478.811 175.898 478.969 176.69 478.731 177.165C478.464 177.672 478.05 178.086 477.543 178.354C478.076 178.318 478.592 178.155 479.048 177.878C479.301 177.771 479.575 177.723 479.85 177.737C480.124 177.75 480.392 177.826 480.633 177.958C481.108 178.195 481.187 179.067 480.712 179.225C482.613 179.225 484.752 179.146 486.099 180.968C483.463 181.67 480.746 182.016 478.018 181.998C474.691 182.077 471.443 181.998 468.195 181.76L469.304 180.572C454.886 179.938 440.389 181.523 425.971 180.334Z" fill="#608C53"/>
</g>
<path d="M370.358 40.5899C372.656 39.56 375.032 38.2925 376.141 36.0744C377.25 33.8562 376.537 30.3705 375.349 27.7563C367.11 9.77333 334.551 3.19805 330.273 27.9147C324.138 26.6005 317.753 27.0959 311.894 29.3407C308.25 30.7666 304.368 33.9354 305.16 37.738C296.952 37.9657 288.795 39.1083 280.84 41.1445C279.81 41.3821 278.384 42.1743 278.701 43.2834C279.018 44.3925 279.968 44.3133 280.76 44.3925C310.23 47.8782 342.314 52.869 370.358 40.5899Z" fill="white"/>
</svg>
